<?xml version="1.0" encoding="UTF-8"?>
<svg version="1.1" xmlns="http://www.w3.org/2000/svg" width="932" height="140">
<path d="M0 0 C1.07483628 5.22913428 1.12930634 10.24506799 1.09765625 15.5546875 C1.0962413 16.45623566 1.09482635 17.35778381 1.09336853 18.28665161 C1.0877974 21.149469 1.07525026 24.01220648 1.0625 26.875 C1.05748127 28.82291553 1.05291901 30.7708323 1.04882812 32.71875 C1.03783742 37.47919718 1.02059277 42.23958507 1 47 C2.01320313 46.48743652 3.02640625 45.97487305 4.0703125 45.44677734 C5.42150789 44.78408169 6.77309121 44.12217659 8.125 43.4609375 C8.79015625 43.1218335 9.4553125 42.78272949 10.140625 42.43334961 C15.4380019 39.87230159 18.91097704 39.76592261 24.640625 41.359375 C28.63208496 42.4431489 32.11340084 41.99119338 35.76953125 40.0703125 C36.36121094 39.71710937 36.95289063 39.36390625 37.5625 39 C45.59916732 34.32412083 55.04818268 35.60963654 63.8359375 37.3671875 C66 38 66 38 69 40 C69 38.68 69 37.36 69 36 C71.06230268 35.8309093 73.1248523 35.66482867 75.1875 35.5 C76.91033203 35.36078125 76.91033203 35.36078125 78.66796875 35.21875 C81.46072426 35.0354038 84.20319812 34.95786363 87 35 C87.33 35.99 87.66 36.98 88 38 C89.299375 37.79375 90.59875 37.5875 91.9375 37.375 C97.70810321 36.71966336 102.57673617 38.01091439 108.08203125 39.6015625 C110.15453436 40.15486441 110.15453436 40.15486441 112.875 39.5 C119.84272295 38.43381825 127.62983814 38.00854072 133.8359375 41.67578125 C137.87812563 45.14892347 140.15104329 47.99449106 142 53 C143.52007842 54.77277259 143.52007842 54.77277259 145 56 C145.556875 55.38125 145.556875 55.38125 146.125 54.75 C153.15739593 48.18643047 159.72755807 46.65719888 169.07421875 46.796875 C172.6743498 47.04681734 175.61887089 47.77049851 179 49 C179 49.66 179 50.32 179 51 C181.97 51.99 181.97 51.99 185 53 C185.33 52.01 185.66 51.02 186 50 C188.95857409 49.94620774 191.91617721 49.90642907 194.875 49.875 C195.71675781 49.85824219 196.55851562 49.84148438 197.42578125 49.82421875 C198.23144531 49.81777344 199.03710938 49.81132813 199.8671875 49.8046875 C200.61081543 49.79421387 201.35444336 49.78374023 202.12060547 49.77294922 C204 50 204 50 206 52 C209.15508907 52.2059702 209.15508907 52.2059702 212.75 52.0625 C217.33057953 51.95042199 221.4997114 52.10960548 226 53 C226 53.66 226 54.32 226 55 C226.7425 55.20625 227.485 55.4125 228.25 55.625 C231.90833964 57.45416982 232.97122542 59.46600557 235 63 C235.54527344 63.83144531 235.54527344 63.83144531 236.1015625 64.6796875 C242.05134792 74.65306881 240.14354216 86.39306939 237.984375 97.2109375 C236.94135935 101.22571996 235.45647933 105.11605512 234 109 C227.73 108.01 221.46 107.02 215 106 C215.165 103.64875 215.33 101.2975 215.5 98.875 C216.99237893 83.66930595 216.99237893 83.66930595 214 69 C213.34 68.67 212.68 68.34 212 68 C212 68.66 212 69.32 212 70 C211.34 70 210.68 70 210 70 C207.65587302 76.86494331 205.79379223 83.47571021 204.875 90.6875 C204.70742188 91.97011719 204.53984375 93.25273438 204.3671875 94.57421875 C203.92895123 98.08863603 203.92895123 98.08863603 204 102 C200.35418313 102.02887512 196.70839537 102.04675585 193.0625 102.0625 C192.02158203 102.07087891 190.98066406 102.07925781 189.90820312 102.08789062 C188.42416992 102.09272461 188.42416992 102.09272461 186.91015625 102.09765625 C185.53549194 102.10551147 185.53549194 102.10551147 184.13305664 102.11352539 C182 102 182 102 181 101 C180.76636119 99.15108054 180.58696365 97.29511969 180.4375 95.4375 C180.35371094 94.42558594 180.26992188 93.41367188 180.18359375 92.37109375 C180.12300781 91.58863281 180.06242188 90.80617188 180 90 C179.34 90 178.68 90 178 90 C177.67 90.99 177.34 91.98 177 93 C169.81063655 98.02529243 162.03588516 99.88348862 153.4375 98.375 C149.05755082 96.62302033 145.05060526 94.40648204 141 92 C141 92.99 141 93.98 141 95 C138.41633755 94.85879984 135.83317115 94.71221667 133.25 94.5625 C132.52039063 94.52318359 131.79078125 94.48386719 131.0390625 94.44335938 C127.5727027 94.23852902 124.34666974 93.9147998 121 93 C121.0721875 92.41476563 121.144375 91.82953125 121.21875 91.2265625 C121.88924816 85.02445451 122.13693667 78.85819491 122.1875 72.625 C122.20039062 71.85236816 122.21328125 71.07973633 122.2265625 70.28369141 C122.23400731 66.00571503 121.81523751 62.94616849 120 59 C120 58.01 120 57.02 120 56 C119.67 56.33 119.34 56.66 119 57 C119.12118035 58.58746261 119.29915629 60.1706381 119.5 61.75 C120.53547516 72.26824767 119.1986868 81.96135401 116 92 C113.22882696 91.85919445 110.45817359 91.71256882 107.6875 91.5625 C106.90181641 91.52318359 106.11613281 91.48386719 105.30664062 91.44335938 C104.54931641 91.40146484 103.79199219 91.35957031 103.01171875 91.31640625 C102.31522217 91.27974854 101.61872559 91.24309082 100.90112305 91.20532227 C99 91 99 91 96 90 C96.14308594 88.16888672 96.14308594 88.16888672 96.2890625 86.30078125 C97.73820048 70.8125 97.73820048 70.8125 94 56 C91.31638966 62.82257551 90.33804502 69.27719248 89.8125 76.5625 C89.73064453 77.57119141 89.64878906 78.57988281 89.56445312 79.61914062 C89.36627983 82.07882093 89.1783374 84.53881578 89 87 C83.45015984 87.70576462 78.04269443 88.11691936 72.4375 88.0625 C71.21933594 88.05347656 70.00117187 88.04445313 68.74609375 88.03515625 C67.38677734 88.01775391 67.38677734 88.01775391 66 88 C66 86.68 66 85.36 66 84 C65.12214844 84.2165625 65.12214844 84.2165625 64.2265625 84.4375 C57.99937771 85.78391833 51.97365331 86.21910004 45.625 86.25 C44.46605225 86.26353516 44.46605225 86.26353516 43.28369141 86.27734375 C39.07240963 86.25535751 35.84422323 85.92976943 32 84 C32.185625 84.825 32.37125 85.65 32.5625 86.5 C33.0774084 90.61926719 32.63492928 93.90823355 32 98 C27.2836807 97.30128603 24.36296974 94.39413953 21.12109375 91.078125 C19.03844325 89.03766447 16.89266237 87.31113138 14.5625 85.5625 C11.08522766 82.90173003 8.04471518 80.13426563 5 77 C3.515 76.01 3.515 76.01 2 75 C1.82793876 76.49939078 1.66269784 77.99956433 1.5 79.5 C1.4071875 80.3353125 1.314375 81.170625 1.21875 82.03125 C0.94834858 85.70098358 0.96855132 89.32050416 1 93 C-2.47951523 92.86181468 -5.95850495 92.71317399 -9.4375 92.5625 C-10.43072266 92.52318359 -11.42394531 92.48386719 -12.44726562 92.44335938 C-13.39150391 92.40146484 -14.33574219 92.35957031 -15.30859375 92.31640625 C-16.18314209 92.27974854 -17.05769043 92.24309082 -17.95874023 92.20532227 C-20 92 -20 92 -21 91 C-21.08713831 89.29227642 -21.10700007 87.58101351 -21.09765625 85.87109375 C-21.09443359 84.83662109 -21.09121094 83.80214844 -21.08789062 82.73632812 C-21.07532227 81.1034082 -21.07532227 81.1034082 -21.0625 79.4375 C-21.05798828 78.34501953 -21.05347656 77.25253906 -21.04882812 76.12695312 C-21.03699826 73.41791505 -21.02051543 70.70898401 -21 68 C-23.5637264 68 -24.83022576 68.6438911 -27 70 C-27.29390625 70.63035156 -27.5878125 71.26070313 -27.890625 71.91015625 C-29.83997815 75.58235321 -33.37452614 77.18042255 -37 79 C-39.875 79.8125 -39.875 79.8125 -43 80 C-43.78632812 80.05027344 -44.57265625 80.10054688 -45.3828125 80.15234375 C-50.70794738 80.35104281 -54.52546588 80.18189093 -59 77 C-64.97231909 71.16657205 -68.26934197 65.97258917 -69.0234375 57.59375 C-68.95457538 49.97300901 -66.78473086 42.63330895 -61.875 36.75390625 C-53.92084126 29.3134536 -45.90231349 27.59252639 -35.30859375 27.640625 C-29.51373787 28.27005445 -25.07816564 30.92183436 -21 35 C-21.495 27.575 -21.495 27.575 -22 20 C-23.65 20 -25.3 20 -27 20 C-26.76991867 18.41364978 -26.51500488 16.83089116 -26.25 15.25 C-26.11078125 14.36828125 -25.9715625 13.4865625 -25.828125 12.578125 C-24.77511624 9.29989018 -23.75166462 8.083656 -21 6 C-18.35146982 4.87408616 -15.64498413 4.0830412 -12.875 3.3125 C-1.49772036 0 -1.49772036 0 0 0 Z M-45.0625 41.6875 C-47.28995428 44.34607446 -48.08279143 45.52276005 -48 49 C-45.86495551 52.26536217 -44.13984948 54.43007526 -40.625 56.1875 C-36.53931439 55.89566531 -33.7741474 53.96108456 -31 51 C-29.95382909 47.83000856 -29.95382909 47.83000856 -30 45 C-31.6396875 45.7734375 -31.6396875 45.7734375 -33.3125 46.5625 C-37 48 -37 48 -40 47 C-40.33 44.69 -40.66 42.38 -41 40 C-43.18616018 39.78892074 -43.18616018 39.78892074 -45.0625 41.6875 Z M40.5 52.5 C38.31594766 56.14008723 38.71976982 58.79654733 39 63 C43.52615993 59.32167983 47.39424999 55.58913637 51 51 C45.46831728 50.51785874 45.46831728 50.51785874 40.5 52.5 Z M65 54 C63.67401288 55.34354986 62.41270849 56.75145257 61.1875 58.1875 C58.23332342 61.59906275 55.24005836 64.86119346 52 68 C52.99 68.495 52.99 68.495 54 69 C59.10613191 65.97263027 59.10613191 65.97263027 62 61 C64.475 61.99 64.475 61.99 67 63 C67 60.03 67 57.06 67 54 C66.34 54 65.68 54 65 54 Z M16 59 C15.01 60.32 14.02 61.64 13 63 C15.64 65.31 18.28 67.62 21 70 C22.8844171 66.2311658 23.33429462 64.31987525 23.625 60.25 C23.69976563 59.26515625 23.77453125 58.2803125 23.8515625 57.265625 C23.90054688 56.51796875 23.94953125 55.7703125 24 55 C21.3158023 55 18.19123491 57.44986876 16 59 Z M161 61 C159.70346871 63.28799639 158.89341519 65.50784185 158 68 C158.78375 68.78375 159.5675 69.5675 160.375 70.375 C161.91666667 71.91666667 163.45833333 73.45833333 165 75 C168.50213464 74.84773328 170.46496359 74.41613943 173.25 72.25 C175.07149658 69.90807582 176.06529889 67.80410332 177 65 C175.9171875 65.5259375 175.9171875 65.5259375 174.8125 66.0625 C171.6877295 67.10409017 170.11838004 66.89096572 167 66 C167 63.36 167 60.72 167 58 C164.56273797 58 162.86609692 59.62264275 161 61 Z M22 70 C23 72 23 72 23 72 Z " fill="#FFFFFF" transform="translate(632,8)"/>
<path d="M0 0 C0 9.57 0 19.14 0 29 C4.62 29 9.24 29 14 29 C14 34.94 14 40.88 14 47 C9.05 47 4.1 47 -1 47 C-0.88641524 49.95918198 -0.75966914 52.91676783 -0.625 55.875 C-0.57859375 57.13763672 -0.57859375 57.13763672 -0.53125 58.42578125 C-0.49257813 59.23144531 -0.45390625 60.03710938 -0.4140625 60.8671875 C-0.3826416 61.61081543 -0.3512207 62.35444336 -0.31884766 63.12060547 C-0.14580449 65.24010974 -0.14580449 65.24010974 2 67 C5.04638827 67.07575878 5.04638827 67.07575878 8 66 C8.30035156 65.22140625 8.60070312 64.4428125 8.91015625 63.640625 C10.23177219 60.4384301 11.51851921 59.60031582 14.4375 57.8125 C15.21996094 57.32394531 16.00242187 56.83539063 16.80859375 56.33203125 C17.53175781 55.89246094 18.25492188 55.45289063 19 55 C19.99 54.34 20.98 53.68 22 53 C24.07421875 53.09765625 24.07421875 53.09765625 26 54 C29.44591562 60.15786365 29.63765956 67.27994869 28 74 C26.51109293 78.20918052 24.33774471 81.06905897 20.5 83.375 C12.72475147 86.98493682 3.21370112 87.55873539 -5.03125 85.09375 C-11.35488567 82.12240312 -15.65510065 78.66320488 -18.1171875 71.95703125 C-19.39834596 67.20094984 -19.21653182 62.45241124 -19.125 57.5625 C-19.11597656 56.64017578 -19.10695313 55.71785156 -19.09765625 54.76757812 C-19.0742766 52.51144191 -19.04150916 50.25586316 -19 48 C-20.32 48 -21.64 48 -23 48 C-22.88153302 52.48422272 -22.75727003 56.96823642 -22.62768555 61.45214844 C-22.58443293 62.97684386 -22.54275115 64.50158469 -22.50268555 66.02636719 C-22.44474797 68.22084222 -22.38112205 70.41509068 -22.31640625 72.609375 C-22.29133751 73.62834869 -22.29133751 73.62834869 -22.26576233 74.66790771 C-22.16406883 77.93288249 -21.79262218 80.8443353 -21 84 C-21.33 84.66 -21.66 85.32 -22 86 C-26.71393321 86.04970487 -31.4277114 86.085863 -36.1418457 86.10986328 C-37.74310974 86.11987623 -39.34435571 86.1334906 -40.94555664 86.15087891 C-43.25671876 86.17533565 -45.56763762 86.18653029 -47.87890625 86.1953125 C-48.9402755 86.21079636 -48.9402755 86.21079636 -50.02308655 86.22659302 C-54.75834265 86.22764468 -58.55316497 85.46788729 -63 84 C-63 83.34 -63 82.68 -63 82 C-63.66 82 -64.32 82 -65 82 C-65.495 83.98 -65.495 83.98 -66 86 C-72.6 86 -79.2 86 -86 86 C-86.12375 83.525 -86.2475 81.05 -86.375 78.5 C-86.46434796 77.01388511 -86.55920639 75.52807 -86.6640625 74.04296875 C-86.70998535 73.37031982 -86.7559082 72.6976709 -86.80322266 72.00463867 C-87.5994711 63.89298117 -91.00145186 56.50781519 -94 49 C-96.98706215 52.76629575 -98.12573106 55.54933408 -98.1328125 60.3515625 C-98.13410156 61.20363281 -98.13539063 62.05570313 -98.13671875 62.93359375 C-98.13285156 63.82175781 -98.12898438 64.70992188 -98.125 65.625 C-98.12886719 66.48996094 -98.13273437 67.35492188 -98.13671875 68.24609375 C-98.1282324 73.90649185 -97.71752437 79.38508706 -97 85 C-99.51943396 85.50812114 -102.04016873 86.00664534 -104.5625 86.5 C-105.26697266 86.64308594 -105.97144531 86.78617187 -106.69726562 86.93359375 C-111.21890238 87.80874925 -115.39487028 88.14523405 -120 88 C-120.08564209 87.20303711 -120.17128418 86.40607422 -120.25952148 85.58496094 C-120.64930066 81.9729897 -121.04335185 78.36149698 -121.4375 74.75 C-121.57220703 73.49574219 -121.70691406 72.24148437 -121.84570312 70.94921875 C-121.97783203 69.74394531 -122.10996094 68.53867188 -122.24609375 67.296875 C-122.42676392 65.63156738 -122.42676392 65.63156738 -122.61108398 63.93261719 C-122.92892783 61.53591897 -123.38745938 59.33024878 -124 57 C-124.85885156 48.67656205 -125.15360326 40.36284437 -125 32 C-127.475 32.495 -127.475 32.495 -130 33 C-130.02698189 34.62490954 -130.04638757 36.24994633 -130.0625 37.875 C-130.07410156 38.77992187 -130.08570313 39.68484375 -130.09765625 40.6171875 C-130.16249257 43.0168585 -130.16249257 43.0168585 -129 45 C-128.79160621 46.53527615 -128.63247184 48.07741242 -128.5 49.62109375 C-128.4175 50.55759766 -128.335 51.49410156 -128.25 52.45898438 C-128.1675 53.44189453 -128.085 54.42480469 -128 55.4375 C-127.9175 56.38560547 -127.835 57.33371094 -127.75 58.31054688 C-127.58254824 60.23493394 -127.41712082 62.15949817 -127.25366211 64.08422852 C-126.99882096 67.0135527 -126.72049555 69.94008701 -126.44140625 72.8671875 C-126.11053622 76.48636168 -125.88478146 80.04992108 -125.9375 83.6875 C-125.94652344 84.51636719 -125.95554687 85.34523438 -125.96484375 86.19921875 C-125.97644531 86.79347656 -125.98804688 87.38773437 -126 88 C-129.54012525 89.77006262 -133.60068119 89.22716358 -137.5 89.25 C-138.38042969 89.270625 -139.26085937 89.29125 -140.16796875 89.3125 C-141.43060547 89.32023437 -141.43060547 89.32023437 -142.71875 89.328125 C-143.49154297 89.3374707 -144.26433594 89.34681641 -145.06054688 89.35644531 C-146.02057617 89.18000488 -146.02057617 89.18000488 -147 89 C-149.14734808 85.77897788 -149.40196239 84.249198 -149.81640625 80.4765625 C-149.94080078 79.37183594 -150.06519531 78.26710938 -150.19335938 77.12890625 C-150.31517578 75.97261719 -150.43699219 74.81632812 -150.5625 73.625 C-150.68818359 72.50738281 -150.81386719 71.38976562 -150.94335938 70.23828125 C-151.70175798 63.35313371 -152.28929618 56.4725899 -152.73413086 49.56005859 C-152.84665484 47.01299914 -152.84665484 47.01299914 -154 45 C-154.06996014 43.29297265 -154.08440154 41.58331997 -154.0625 39.875 C-154.05347656 38.96492188 -154.04445313 38.05484375 -154.03515625 37.1171875 C-154.02355469 36.41851562 -154.01195312 35.71984375 -154 35 C-154.78238037 35.06582275 -155.56476074 35.13164551 -156.37084961 35.19946289 C-159.89263257 35.49266095 -163.4150293 35.77768886 -166.9375 36.0625 C-168.16919922 36.16626953 -169.40089844 36.27003906 -170.66992188 36.37695312 C-171.83974609 36.47041016 -173.00957031 36.56386719 -174.21484375 36.66015625 C-175.84087524 36.79369507 -175.84087524 36.79369507 -177.49975586 36.92993164 C-178.32483643 36.9530542 -179.14991699 36.97617676 -180 37 C-182.11925604 34.88074396 -181.41831017 30.3803907 -181.5625 27.4375 C-181.60568359 26.63119141 -181.64886719 25.82488281 -181.69335938 24.99414062 C-181.79975262 22.99631195 -181.90040888 20.9981793 -182 19 C-176.54875175 17.27477682 -171.26661594 16.39478424 -165.59375 15.74609375 C-164.71021851 15.64031509 -163.82668701 15.53453644 -162.91638184 15.42555237 C-160.11152738 15.09083226 -157.30583106 14.76392213 -154.5 14.4375 C-151.69439335 14.10579672 -148.88898098 13.7724946 -146.08361816 13.43873596 C-144.34413875 13.23236461 -142.60448244 13.02747687 -140.86462402 12.82432556 C-136.23187758 12.28090836 -131.61455226 11.68127318 -127 11 C-127.495 9.02 -127.495 9.02 -128 7 C-124.90477312 5.5491124 -122.12124318 4.81342999 -118.75 4.4375 C-115.21082486 4.41762589 -115.21082486 4.41762589 -114 3 C-111.66702567 2.95907063 -109.33294775 2.95758277 -107 3 C-103.62473743 25.80127986 -103.62473743 25.80127986 -103 35 C-101.95585937 34.51853516 -101.95585937 34.51853516 -100.890625 34.02734375 C-94.95764828 31.91873175 -88.0306079 31.80688002 -82.15234375 34.12109375 C-80.0105684 35.31926601 -77.98735008 36.56212397 -76 38 C-76 38.66 -76 39.32 -76 40 C-75.071875 40.37125 -75.071875 40.37125 -74.125 40.75 C-71.62519797 42.22047178 -71.16683978 43.41403076 -70 46 C-69.38253906 45.46890625 -68.76507813 44.9378125 -68.12890625 44.390625 C-60.43445078 37.97272302 -54.084885 33.98443787 -44.01171875 33.28125 C-41.21420798 32.8901417 -39.28885446 31.5952622 -37 30 C-36.34 30 -35.68 30 -35 30 C-35 29.34 -35 28.68 -35 28 C-29.555 26.515 -29.555 26.515 -24 25 C-23.67 25.99 -23.34 26.98 -23 28 C-21.68 28 -20.36 28 -19 28 C-19.2165625 26.83984375 -19.2165625 26.83984375 -19.4375 25.65625 C-19.623125 24.6146875 -19.80875 23.573125 -20 22.5 C-20.185625 21.4790625 -20.37125 20.458125 -20.5625 19.40625 C-21.05865086 15.54336117 -21.06768017 11.89160976 -21 8 C-17.87745057 6.66087415 -14.75157642 5.32969342 -11.625 4 C-10.73554688 3.6184375 -9.84609375 3.236875 -8.9296875 2.84375 C-8.07890625 2.4828125 -7.228125 2.121875 -6.3515625 1.75 C-5.56604004 1.41484375 -4.78051758 1.0796875 -3.97119141 0.734375 C-2 0 -2 0 0 0 Z M-49.5 46.0625 C-52.47491472 49.5580248 -53.16635804 51.425154 -53 56 C-50.04136665 59.30670786 -47.37163047 60.50038509 -43 61 C-43 58.36 -43 55.72 -43 53 C-43.99 53 -44.98 53 -46 53 C-46 50.03 -46 47.06 -46 44 C-47.41159996 43.89393617 -47.41159996 43.89393617 -49.5 46.0625 Z " fill="#FFFFFF" transform="translate(449,0)"/>
<path d="M0 0 C3.0625 0.1875 3.0625 0.1875 5.0625 2.1875 C5.5546875 4.0078125 5.5546875 4.0078125 5.9375 6.3125 C6.82502595 11.15484161 7.93074753 15.91370336 9.125 20.6875 C9.29950684 21.39406738 9.47401367 22.10063477 9.65380859 22.82861328 C10.58694908 26.60362467 10.58694908 26.60362467 12.0625 30.1875 C12.74828125 29.87683594 13.4340625 29.56617187 14.140625 29.24609375 C20.24962228 27.0328073 27.52638326 26.09791196 33.80078125 28.03125 C38.64573993 30.57179976 41.88348852 33.77790344 45.0625 38.1875 C48.39473017 35.39303608 51.64605162 32.61386382 54.6875 29.5 C59.01595027 25.28545632 62.46967274 23.80684867 68.5 23.4375 C69.59183594 23.36015625 70.68367187 23.2828125 71.80859375 23.203125 C78.75664689 23.169761 83.77627061 24.67898879 89.0625 29.1875 C94.12790304 35.4575691 94.52498026 43.92678707 93.84375 51.67578125 C92.14325719 61.14294794 86.60335856 67.5468181 79.0625 73.1875 C73.51753693 76.72683813 67.71149998 77.98651394 61.26171875 76.57421875 C58.82983354 75.84843688 56.44266782 75.06701921 54.0625 74.1875 C53.81773926 74.83041992 53.57297852 75.47333984 53.32080078 76.13574219 C52.0625 78.1875 52.0625 78.1875 50.18310547 78.82519531 C49.43947754 78.88803711 48.69584961 78.95087891 47.9296875 79.015625 C46.72119141 79.13164062 46.72119141 79.13164062 45.48828125 79.25 C44.22564453 79.3428125 44.22564453 79.3428125 42.9375 79.4375 C42.08800781 79.51484375 41.23851563 79.5921875 40.36328125 79.671875 C38.26446182 79.86053293 36.1635993 80.02620349 34.0625 80.1875 C33.92972656 79.40503906 33.79695313 78.62257813 33.66015625 77.81640625 C33.39525391 76.29853516 33.39525391 76.29853516 33.125 74.75 C32.86396484 73.23599609 32.86396484 73.23599609 32.59765625 71.69140625 C32.31498903 69.2587562 32.31498903 69.2587562 31.0625 68.1875 C30.6603125 66.269375 30.6603125 66.269375 30.25 64.3125 C29.43835556 60.56089904 28.42042083 56.9484077 27.1875 53.3125 C26.88070312 52.40757813 26.57390625 51.50265625 26.2578125 50.5703125 C24.89890215 47.86137356 23.6524923 46.72118171 21.0625 45.1875 C20.4025 45.1875 19.7425 45.1875 19.0625 45.1875 C18.02720809 52.26136383 18.21901126 58.47231275 19.4375 65.5 C19.64632812 66.8003418 19.64632812 66.8003418 19.859375 68.12695312 C20.5151414 72.16362835 21.22070997 76.18487095 22.0625 80.1875 C19.14753169 81.0272028 16.2307814 81.85946003 13.3125 82.6875 C12.075 83.04521484 12.075 83.04521484 10.8125 83.41015625 C10.01328125 83.63574219 9.2140625 83.86132812 8.390625 84.09375 C7.29089355 84.40795898 7.29089355 84.40795898 6.16894531 84.72851562 C4.0625 85.1875 4.0625 85.1875 0.0625 85.1875 C-0.33582031 83.57681641 -0.33582031 83.57681641 -0.7421875 81.93359375 C-1.09889421 80.4973799 -1.45566866 79.06118288 -1.8125 77.625 C-1.98652344 76.92052734 -2.16054687 76.21605469 -2.33984375 75.49023438 C-3.45044815 71.02725002 -4.64951216 66.60262948 -5.9375 62.1875 C-6.2675 62.5175 -6.5975 62.8475 -6.9375 63.1875 C-6.87075279 64.91989348 -6.73117057 66.64954568 -6.5625 68.375 C-6.11293677 73.22677982 -5.71619004 78.07677818 -5.375 82.9375 C-5.29121094 84.12859375 -5.20742187 85.3196875 -5.12109375 86.546875 C-5.06050781 87.41828125 -4.99992187 88.2896875 -4.9375 89.1875 C-8.27202193 91.11716281 -11.3301409 91.69995343 -15.125 92.25 C-18.84721452 92.5103285 -18.84721452 92.5103285 -21.9375 94.1875 C-24.75 94.5625 -24.75 94.5625 -27.9375 94.1875 C-30.3125 91.6875 -30.3125 91.6875 -31.9375 89.1875 C-32.9275 92.4875 -33.9175 95.7875 -34.9375 99.1875 C-40.07690726 100.43341691 -44.6162418 101.46038504 -49.9375 101.1875 C-49.9375 100.5275 -49.9375 99.8675 -49.9375 99.1875 C-50.5975 99.1875 -51.2575 99.1875 -51.9375 99.1875 C-51.9375 97.5375 -51.9375 95.8875 -51.9375 94.1875 C-52.5975 94.1875 -53.2575 94.1875 -53.9375 94.1875 C-54.77911854 92.10749989 -55.61050763 90.02335854 -56.4375 87.9375 C-56.9015625 86.77734375 -57.365625 85.6171875 -57.84375 84.421875 C-58.9375 81.1875 -58.9375 81.1875 -58.9375 77.1875 C-59.5975 77.1875 -60.2575 77.1875 -60.9375 77.1875 C-60.9375 75.5375 -60.9375 73.8875 -60.9375 72.1875 C-61.5975 72.1875 -62.2575 72.1875 -62.9375 72.1875 C-63.31261719 71.16011719 -63.68773437 70.13273437 -64.07421875 69.07421875 C-66.72205954 61.88212242 -69.46003499 54.80885358 -72.703125 47.859375 C-74.10571112 44.82339744 -75.4397239 41.7644405 -76.75 38.6875 C-77.16894531 37.7078125 -77.58789062 36.728125 -78.01953125 35.71875 C-78.9375 33.1875 -78.9375 33.1875 -78.9375 30.1875 C-77.36162109 30.09662109 -77.36162109 30.09662109 -75.75390625 30.00390625 C-74.33593611 29.91929417 -72.91796745 29.83465712 -71.5 29.75 C-70.40316895 29.68776245 -70.40316895 29.68776245 -69.28417969 29.62426758 C-65.36920906 29.38945615 -61.56120302 29.01302167 -57.6875 28.375 C-53.9375 28.1875 -53.9375 28.1875 -51.5625 29.5 C-49.52193412 32.87478203 -48.54702919 36.24164282 -47.55078125 40.04296875 C-47.13555998 42.15125089 -47.13555998 42.15125089 -45.9375 43.1875 C-45.89686168 44.85367115 -45.894779 46.52138095 -45.9375 48.1875 C-43.77406989 46.15481398 -43.77406989 46.15481398 -41.9375 43.1875 C-39.07623816 43.58215681 -38.14610296 43.92662183 -36.30078125 46.234375 C-35.85089844 46.87890625 -35.40101562 47.5234375 -34.9375 48.1875 C-34.67086815 39.10720417 -35.19384579 30.40491183 -36.40185547 21.41088867 C-36.65835246 19.34461545 -36.80709637 17.26554491 -36.9375 15.1875 C-34.65752437 12.90752437 -33.67697716 12.73539543 -30.5859375 12.1171875 C-29.73515625 11.94316406 -28.884375 11.76914062 -28.0078125 11.58984375 C-27.11835937 11.41582031 -26.22890625 11.24179687 -25.3125 11.0625 C-24.4153125 10.88074219 -23.518125 10.69898438 -22.59375 10.51171875 C-20.3762734 10.0635054 -18.15761786 9.6224076 -15.9375 9.1875 C-15.9375 7.5375 -15.9375 5.8875 -15.9375 4.1875 C-14.65552734 3.88005859 -14.65552734 3.88005859 -13.34765625 3.56640625 C-12.24292969 3.29699219 -11.13820313 3.02757812 -10 2.75 C-8.89785156 2.48316406 -7.79570313 2.21632813 -6.66015625 1.94140625 C-3.52463855 1.07317825 -3.29760019 0.21048512 0 0 Z M68.0625 34.1875 C68.3925 34.8475 68.7225 35.5075 69.0625 36.1875 C69.3925 35.5275 69.7225 34.8675 70.0625 34.1875 C69.4025 34.1875 68.7425 34.1875 68.0625 34.1875 Z M66.0625 36.1875 C64.7425 38.8275 63.4225 41.4675 62.0625 44.1875 C65.39983082 48.94645097 65.39983082 48.94645097 70.5625 51.375 C74.16582143 51.48987347 74.16582143 51.48987347 76.9375 49.1875 C79.37704995 45.74342948 79.81714515 43.35853241 80.0625 39.1875 C78.4228125 40.2084375 78.4228125 40.2084375 76.75 41.25 C74.88671875 42.41015625 74.88671875 42.41015625 73.0625 43.1875 C72.0725 42.8575 71.0825 42.5275 70.0625 42.1875 C68.875 39.125 68.875 39.125 68.0625 36.1875 C67.4025 36.1875 66.7425 36.1875 66.0625 36.1875 Z M-7.9375 50.1875 C-7.9375 52.1675 -7.9375 54.1475 -7.9375 56.1875 C-7.6075 56.1875 -7.2775 56.1875 -6.9375 56.1875 C-6.9375 54.2075 -6.9375 52.2275 -6.9375 50.1875 C-7.2675 50.1875 -7.5975 50.1875 -7.9375 50.1875 Z " fill="#FFFFFF" transform="translate(82.9375,28.8125)"/>
<path d="M0 0 C1.13050781 -0.00257812 2.26101562 -0.00515625 3.42578125 -0.0078125 C6.30903596 0.10958949 8.8865855 0.46287012 11.6875 1.125 C12.76731615 7.75815632 13.21395614 14.42485815 13.6875 21.125 C17.43417202 19.4922149 17.43417202 19.4922149 20.6875 17.125 C30.98489625 15.30781243 41.29454832 15.66120199 51.5625 17.4375 C52.25142334 17.55512695 52.94034668 17.67275391 53.65014648 17.79394531 C58.57638375 18.72076296 63.03314846 20.26638311 67.6875 22.125 C66.55958407 27.81117553 65.14974643 32.86474627 62.6875 38.125 C57.99520808 38.32051216 54.16433529 37.85397667 49.640625 36.63671875 C42.71833902 34.82307982 35.78354937 35.02013228 28.6875 35.125 C29.0175 35.785 29.3475 36.445 29.6875 37.125 C34.55660316 38.71682219 39.01407687 39.24235675 44.125 39.5 C51.82090709 40.03443799 57.73445984 41.72858962 63.1875 47.375 C66.86249446 52.1290787 66.93271367 56.52573509 66.375 62.4375 C65.6875 65.125 65.6875 65.125 63.6875 68.125 C63.0275 68.125 62.3675 68.125 61.6875 68.125 C61.378125 69.0221875 61.378125 69.0221875 61.0625 69.9375 C59.00824088 73.20563951 57.35834385 73.81842846 53.6875 75.125 C42.33245748 77.40645793 30.92313225 75.1520697 19.6875 73.125 C18.82705078 72.97756348 17.96660156 72.83012695 17.08007812 72.67822266 C16.26474609 72.52272949 15.44941406 72.36723633 14.609375 72.20703125 C13.51254395 72.00364136 13.51254395 72.00364136 12.39355469 71.79614258 C11.83055664 71.57466553 11.26755859 71.35318848 10.6875 71.125 C9.44902184 67.40956553 10.12019999 66.28083076 11.5 62.6875 C11.85707031 61.74003906 12.21414062 60.79257813 12.58203125 59.81640625 C13.52476504 57.52119924 14.53923895 55.32280282 15.6875 53.125 C21.69632384 53.90875963 27.49350685 55.19689222 33.3828125 56.6015625 C36.57053474 57.10647359 38.61303632 56.99513123 41.6875 56.125 C40.32625 55.939375 40.32625 55.939375 38.9375 55.75 C37.98230469 55.60884766 37.98230469 55.60884766 37.0078125 55.46484375 C35.2962226 55.21415634 33.58225561 54.97957311 31.8671875 54.75390625 C23.9370581 53.60799241 16.45509744 52.51530687 11.1875 46.0625 C9.16578193 42.10330211 8.56799642 39.32677537 8.625 34.9375 C8.63402344 34.03644531 8.64304688 33.13539062 8.65234375 32.20703125 C8.66394531 31.51996094 8.67554688 30.83289063 8.6875 30.125 C7.07875 29.939375 7.07875 29.939375 5.4375 29.75 C2.92654532 29.01029992 1.94505024 28.53725618 0.54296875 26.29296875 C-0.50709182 23.59855802 -1.40209081 20.86986667 -2.3125 18.125 C-3.36416705 15.44534411 -4.46576956 12.78648014 -5.5625 10.125 C-8.3125 3.43286968 -8.3125 3.43286968 -8.3125 1.125 C-5.50346379 -0.2795181 -3.13135492 -0.00709254 0 0 Z " fill="#FFFFFF" transform="translate(174.3125,23.875)"/>
<path d="M0 0 C3.1112597 3.34460418 4.25610216 5.95587716 4.5 10.4375 C4.14604137 17.69975474 0.19160138 22.16237144 -5 27 C-7.07937778 29.1394754 -9.15681391 31.2807578 -11.23046875 33.42578125 C-13 35 -13 35 -15 35 C-18.5713805 41.4284849 -17.81871139 46.06731308 -16.125 52.9375 C-15.75119274 54.50877948 -15.37876763 56.08038849 -15.0078125 57.65234375 C-14.8315332 58.39339355 -14.65525391 59.13444336 -14.47363281 59.89794922 C-13.86882679 62.58216565 -13.41042485 65.27984384 -13 68 C-16.625 71 -16.625 71 -20 71 C-20 71.66 -20 72.32 -20 73 C-20.99 73 -21.98 73 -23 73 C-23 73.66 -23 74.32 -23 75 C-24.485 75.495 -24.485 75.495 -26 76 C-27.13501477 73.02455559 -28.25609196 70.04403472 -29.375 67.0625 C-29.69210937 66.23169922 -30.00921875 65.40089844 -30.3359375 64.54492188 C-31.80252636 60.61874127 -33.11416634 56.80087498 -33.9375 52.6875 C-35.19352236 46.56321053 -37.46381104 40.78959449 -39.625 34.9375 C-40.04523437 33.78572266 -40.46546875 32.63394531 -40.8984375 31.44726562 C-41.92728295 28.62963206 -42.96123455 25.81398816 -44 23 C-46.21081851 22.89459074 -46.21081851 22.89459074 -49 24 C-52.14234471 17.14397517 -53.88099344 10.46004375 -55 3 C-14.96101442 -10.85406929 -14.96101442 -10.85406929 0 0 Z M-25 16 C-25.04125 17.27875 -25.0825 18.5575 -25.125 19.875 C-25.14820313 20.59429687 -25.17140625 21.31359375 -25.1953125 22.0546875 C-25.18331689 24.23863645 -25.18331689 24.23863645 -23 26 C-18.47951843 22.86077669 -16.48454089 19.78504172 -14 15 C-15.45823212 14.9729957 -16.91660675 14.95360213 -18.375 14.9375 C-19.59316406 14.92009766 -19.59316406 14.92009766 -20.8359375 14.90234375 C-23.04937142 14.85533666 -23.04937142 14.85533666 -25 16 Z " fill="#FFFFFF" transform="translate(571,12)"/>
<path d="M0 0 C3.26755463 3.33689266 4.87256921 5.94414489 5.4375 10.625 C5.02977102 13.77033787 4.37785549 16.15817306 3 19 C2.34 19 1.68 19 1 19 C0.731875 19.639375 0.46375 20.27875 0.1875 20.9375 C-1 23 -1 23 -4 24 C-4.495 25.485 -4.495 25.485 -5 27 C-9.33333333 30 -9.33333333 30 -12 30 C-12.33 30.99 -12.66 31.98 -13 33 C-15.15234375 34.4296875 -15.15234375 34.4296875 -17.9375 35.875 C-19.42636719 36.6484375 -19.42636719 36.6484375 -20.9453125 37.4375 C-21.95335937 37.953125 -22.96140625 38.46875 -24 39 C-24.90492188 39.495 -25.80984375 39.99 -26.7421875 40.5 C-27.59039063 40.95375 -28.43859375 41.4075 -29.3125 41.875 C-30.07175781 42.28492188 -30.83101562 42.69484375 -31.61328125 43.1171875 C-34.51517304 44.190555 -36.93063652 44.15058926 -40 44 C-40.38863565 41.87745145 -40.76053209 39.75183172 -41.125 37.625 C-41.43824219 35.84996094 -41.43824219 35.84996094 -41.7578125 34.0390625 C-41.83773437 33.03617188 -41.91765625 32.03328125 -42 31 C-39.72360853 28.72360853 -38.77105117 28.58043316 -35.6875 28 C-30.03684811 26.92551271 -25.84597953 25.14156279 -21.3125 21.5625 C-20.16201172 20.66724609 -20.16201172 20.66724609 -18.98828125 19.75390625 C-16.79446564 17.97014411 -16.79446564 17.97014411 -15 15 C-23.49742101 14.68657054 -30.91341145 14.77303664 -39.12109375 17.24609375 C-42.74101501 18.19405142 -46.28097856 18.59031101 -50 19 C-50.7269725 15.71216232 -51.42836941 12.41938854 -52.125 9.125 C-52.33253906 8.18785156 -52.54007813 7.25070313 -52.75390625 6.28515625 C-52.94082031 5.38925781 -53.12773438 4.49335937 -53.3203125 3.5703125 C-53.49836426 2.74289551 -53.67641602 1.91547852 -53.85986328 1.06298828 C-53.9061084 0.38220215 -53.95235352 -0.29858398 -54 -1 C-50.11787153 -4.88212847 -43.27543161 -4.34630521 -38 -5 C-36.77796875 -5.18949219 -36.77796875 -5.18949219 -35.53125 -5.3828125 C-24.64761953 -6.9666244 -9.36977465 -6.31915034 0 0 Z " fill="#FFFFFF" transform="translate(923,50)"/>
<path d="M0 0 C6.02182245 2.04129575 6.02182245 2.04129575 8.6875 4.25 C10.30890594 8.05677916 11.00494491 10.18429209 9.8125 14.1875 C9.255625 15.2084375 9.255625 15.2084375 8.6875 16.25 C8.0275 16.25 7.3675 16.25 6.6875 16.25 C6.39875 16.889375 6.11 17.52875 5.8125 18.1875 C4.6875 20.25 4.6875 20.25 2.6875 21.25 C-1.46715339 21.07628627 -5.71617667 20.64581895 -8.9296875 17.8359375 C-10.70595074 15.1531675 -11.40973056 13.24487697 -11.09375 10.01171875 C-10.5625 7.8125 -10.5625 7.8125 -9.3125 4.25 C-8.6525 4.25 -7.9925 4.25 -7.3125 4.25 C-6.879375 3.2909375 -6.879375 3.2909375 -6.4375 2.3125 C-4.59713052 -1.06151072 -3.74798177 -0.84859965 0 0 Z " fill="#FFFFFF" transform="translate(890.3125,100.75)"/>
</svg>
