<?xml version="1.0" encoding="UTF-8"?>
<svg version="1.1" xmlns="http://www.w3.org/2000/svg" width="936" height="137">
<path d="M0 0 C1.125 4.75 1.125 4.75 0 7 C-0.30594651 8.70239543 -0.56820756 10.41266981 -0.8125 12.125 C-1.83532597 19.03493118 -2.97105669 25.92330135 -4.125 32.8125 C-4.30780518 33.9051416 -4.49061035 34.9977832 -4.67895508 36.12353516 C-5.11863414 38.74913638 -5.55896045 41.37462702 -6 44 C-5.38181396 43.63326172 -4.76362793 43.26652344 -4.12670898 42.88867188 C2.04689771 39.47525838 6.0233322 38.47235203 12.9375 39.5 C19.93545441 40.23161416 24.09111659 39.66777774 30.3671875 36.22265625 C38.21788729 32.5768565 47.1809413 33.82771852 55.34375 35.72265625 C58.53266819 36.05561683 60.05912525 35.20606453 63 34 C65.57179219 33.779233 67.99338518 33.6680143 70.5625 33.6875 C71.28904785 33.68951416 72.0155957 33.69152832 72.76416016 33.69360352 C82.69091737 33.86880627 93.54418463 34.84806154 103 38 C104.50504575 37.88768315 106.00593768 37.71343747 107.5 37.5 C116.05085778 36.5637747 124.02114643 36.55649422 131 42 C132.91475982 44.54814093 134.51569121 47.18186535 136 50 C139.30401716 48.92619442 142.44994129 47.79830218 145.625 46.375 C153.69181463 43.34802385 162.50816574 44.82551522 170.72265625 46.5625 C173.6821452 47.13104676 176.49838242 46.99501063 179.51171875 46.96484375 C186.40744586 46.91195227 193.17625138 46.86270856 200 48 C200 48.66 200 49.32 200 50 C200.84433594 49.81953125 201.68867187 49.6390625 202.55859375 49.453125 C206.28918967 48.96192281 209.34344409 49.21581569 213.0625 49.75 C214.24972656 49.90984375 215.43695312 50.0696875 216.66015625 50.234375 C220.01865043 51.00427542 222.25000863 51.94140532 225 54 C225 54.66 225 55.32 225 56 C225.66 56 226.32 56 227 56 C227.64834654 57.269553 228.29357815 58.54069706 228.9375 59.8125 C229.29714844 60.52019531 229.65679688 61.22789063 230.02734375 61.95703125 C234.96290459 72.32369117 230.83508929 83.96657788 227.29296875 94.12890625 C225.55427654 97.98974846 223.30988306 101.45891877 221 105 C217.37317024 104.55544386 213.74899834 104.09203324 210.125 103.625 C209.09246094 103.49867187 208.05992187 103.37234375 206.99609375 103.2421875 C205.51689453 103.04882812 205.51689453 103.04882812 204.0078125 102.8515625 C203.09660645 102.73635254 202.18540039 102.62114258 201.24658203 102.50244141 C199 102 199 102 197 100 C197.26554687 99.30777344 197.53109375 98.61554688 197.8046875 97.90234375 C200.6816222 89.93302464 204.79052644 78.37157933 202 70 C197.36684378 75.95120928 196.05895196 82.4269159 194.2890625 89.65234375 C194.04929687 90.56628906 193.80953125 91.48023437 193.5625 92.421875 C193.25505859 93.66855957 193.25505859 93.66855957 192.94140625 94.94042969 C192 97 192 97 190.03710938 98.27172852 C182.96827153 100.79885499 173.28491817 98.93366831 166 98 C165.34 97.67 164.68 97.34 164 97 C164 95.02 164 93.04 164 91 C163.37996094 91.28875 162.75992188 91.5775 162.12109375 91.875 C150.51339887 96.7411079 139.74233355 95.91411118 128 92 C125.43401544 91.79449289 122.88219921 91.62905692 120.3125 91.5 C104.61220121 90.61220121 104.61220121 90.61220121 103 89 C101.62500853 88.97861124 100.24916844 89.01034509 98.875 89.0625 C91.81944434 89.15479651 84.96383084 88.03993207 78 87 C78.62428218 84.33316351 79.24940826 81.66652933 79.875 79 C80.04902344 78.25621094 80.22304688 77.51242188 80.40234375 76.74609375 C81.55902782 71.81947641 82.76213258 66.90686184 84 62 C83.34 62 82.68 62 82 62 C81.35350695 64.89568747 80.70778268 67.79154279 80.0625 70.6875 C79.88009766 71.50412109 79.69769531 72.32074219 79.50976562 73.16210938 C79.33251953 73.95810547 79.15527344 74.75410156 78.97265625 75.57421875 C78.81031494 76.30213623 78.64797363 77.03005371 78.48071289 77.7800293 C77.96064642 80.181738 77.47622061 82.58924898 77 85 C73.27129547 85.19756803 69.54203204 85.38128099 65.8125 85.5625 C64.22985352 85.64661133 64.22985352 85.64661133 62.61523438 85.73242188 C61.08286133 85.80493164 61.08286133 85.80493164 59.51953125 85.87890625 C58.11344604 85.94960327 58.11344604 85.94960327 56.67895508 86.02172852 C53.98697068 85.99989432 51.61483024 85.61586406 49 85 C49 84.01 49 83.02 49 82 C48.02160156 82.32613281 47.04320312 82.65226562 46.03515625 82.98828125 C41.79961226 84.19554448 37.81594543 84.26144708 33.4375 84.1875 C32.70853516 84.18685547 31.97957031 84.18621094 31.22851562 84.18554688 C27.05171137 84.15171138 23.11298603 83.81220103 19 83 C18.97421875 83.77085938 18.9484375 84.54171875 18.921875 85.3359375 C18.83679688 86.84027344 18.83679688 86.84027344 18.75 88.375 C18.70359375 89.37273437 18.6571875 90.37046875 18.609375 91.3984375 C18 94 18 94 16.328125 95.4765625 C12.93317062 96.23985761 11.14395501 95.44709152 8 94 C5.18359375 91.79296875 5.18359375 91.79296875 2.4375 89.1875 C1.52871094 88.33542969 0.61992188 87.48335938 -0.31640625 86.60546875 C-2.11585075 84.85840983 -3.89449986 83.0896916 -5.65234375 81.30078125 C-7.97334139 78.8832813 -7.97334139 78.8832813 -11 77 C-11.99 81.62 -12.98 86.24 -14 91 C-17.77109855 90.85944359 -21.54178769 90.71279014 -25.3125 90.5625 C-26.38435547 90.52318359 -27.45621094 90.48386719 -28.56054688 90.44335938 C-29.58857422 90.40146484 -30.61660156 90.35957031 -31.67578125 90.31640625 C-32.62364502 90.27974854 -33.57150879 90.24309082 -34.5480957 90.20532227 C-37 90 -37 90 -40 89 C-40.23549167 82.52397908 -39.95300439 75.90600878 -37 70 C-38.00160156 70.56589844 -39.00320313 71.13179688 -40.03515625 71.71484375 C-41.37728826 72.45630129 -42.71975413 73.19715473 -44.0625 73.9375 C-45.04766602 74.49727539 -45.04766602 74.49727539 -46.05273438 75.06835938 C-54.63940219 79.76353242 -64.03120612 79.96526764 -73.41015625 77.3203125 C-78.01038451 75.3770385 -80.46846029 72.87556279 -82.375 68.25390625 C-84.94716499 58.97803627 -82.31153911 48.86560007 -77.66796875 40.640625 C-72.30630335 33.63652539 -63.21461065 29.73820355 -55 27 C-51.87021194 26.91655423 -48.75021383 27.14122327 -45.625 27.3125 C-44.77421875 27.34794922 -43.9234375 27.38339844 -43.046875 27.41992188 C-42.21929688 27.46310547 -41.39171875 27.50628906 -40.5390625 27.55078125 C-39.41298584 27.60745972 -39.41298584 27.60745972 -38.26416016 27.6652832 C-36 28 -36 28 -31 30 C-30.34 26.37 -29.68 22.74 -29 19 C-30.98 19 -32.96 19 -35 19 C-34.38655243 17.31301918 -33.70286303 15.65172812 -33 14 C-32.525625 12.824375 -32.05125 11.64875 -31.5625 10.4375 C-28.60423666 5.38653926 -23.33235829 4.49389026 -18 3 C-17.03707031 2.7009375 -16.07414063 2.401875 -15.08203125 2.09375 C-9.89590824 0.54864301 -5.4073577 -0.36049051 0 0 Z M-54 43 C-55.28776153 45.77825456 -55.28776153 45.77825456 -56 49 C-54.75651531 51.38305196 -54.75651531 51.38305196 -53 53 C-50.0957107 52.89207179 -50.0957107 52.89207179 -47 52 C-45.08255407 49.55690423 -45.08255407 49.55690423 -44 47 C-46.01822917 46.83723958 -48.03645833 46.67447917 -50.0546875 46.51171875 C-52 46 -52 46 -54 43 Z M34 51 C33.67 51.66 33.34 52.32 33 53 C34.32 52.34 35.64 51.68 37 51 C36.01 51 35.02 51 34 51 Z M53 57 C52.67 57.66 52.34 58.32 52 59 C52.66 59 53.32 59 54 59 C53.67 58.34 53.34 57.68 53 57 Z M3 61 C5.475 62.98 5.475 62.98 8 65 C8.33 62.36 8.66 59.72 9 57 C6.77885534 57 4.64121052 59.65336573 3 61 Z M153 60 C151.44863214 62.46393719 150.96960871 63.68089146 151.25 66.625 C151.8484338 69.15600229 151.8484338 69.15600229 154 71 C156.9628331 70.60495559 159.38326241 69.40182371 162 68 C162 67.01 162 66.02 162 65 C160.88625 64.9175 159.7725 64.835 158.625 64.75 C155 64 155 64 153.5625 61.9375 C153.2840625 60.9784375 153.2840625 60.9784375 153 60 Z M104 85 C105 87 105 87 105 87 Z " fill="#F9FAFB" transform="translate(638,8)"/>
<path d="M0 0 C0.27501507 6.19643329 -0.77367798 11.87632056 -2 17.9375 C-2.19078125 18.90751953 -2.3815625 19.87753906 -2.578125 20.87695312 C-3.04620667 23.2524676 -3.52229475 25.62640206 -4 28 C0.29 28 4.58 28 9 28 C8.48032304 34.23612352 7.67411767 39.9731764 6 46 C1.38 46.33 -3.24 46.66 -8 47 C-8.495 49.041875 -8.99 51.08375 -9.5 53.1875 C-9.7784375 54.33605469 -10.056875 55.48460937 -10.34375 56.66796875 C-10.91495385 59.56818829 -11.13283779 62.06096385 -11 65 C-10.01 64.67 -9.02 64.34 -8 64 C-7.75378906 63.23171875 -7.50757813 62.4634375 -7.25390625 61.671875 C-5.47861382 57.88900889 -2.5809358 56.87011203 1.0625 55.25 C5.32170745 53.54376632 5.32170745 53.54376632 9 51 C11.33297433 50.95907063 13.66705225 50.95758277 16 51 C18.85410056 58.1352514 18.79560373 64.68149269 16.16796875 71.82421875 C12.95532555 77.80897548 7.49998956 81.20185354 1.25463867 83.41113281 C-2.81318273 84.47356759 -6.81767762 84.47235269 -11 84.4375 C-11.85078125 84.45748047 -12.7015625 84.47746094 -13.578125 84.49804688 C-20.14979267 84.49300725 -25.81380875 83.16915019 -30.59765625 78.41088867 C-31.79558476 76.99210252 -32.90783834 75.50172228 -34 74 C-34.66 77.3 -35.32 80.6 -36 84 C-41.46245573 84.16799937 -46.92506151 84.32851773 -52.38793945 84.48217773 C-54.24542114 84.53547079 -56.10284588 84.59078972 -57.96020508 84.64819336 C-60.63350141 84.73045964 -63.30691942 84.80538274 -65.98046875 84.87890625 C-66.80773972 84.90594131 -67.63501068 84.93297638 -68.48735046 84.96083069 C-72.52581221 85.06482194 -76.03771868 84.8632715 -80 84 C-81.91312745 83.98499706 -83.82730693 84.02912172 -85.73828125 84.12109375 C-86.80498047 84.16943359 -87.87167969 84.21777344 -88.97070312 84.26757812 C-90.62489258 84.35168945 -90.62489258 84.35168945 -92.3125 84.4375 C-93.43462891 84.48970703 -94.55675781 84.54191406 -95.71289062 84.59570312 C-98.47556709 84.7250199 -101.23784918 84.85997143 -104 85 C-104.81651163 81.41944532 -104.87372141 78.84307745 -104.26171875 75.21875 C-103.39541154 67.87453367 -103.64829507 60.26541402 -105 53 C-107.85204396 55.85204396 -107.93703945 59.0985658 -108.5625 62.9375 C-108.69180908 63.69861084 -108.82111816 64.45972168 -108.9543457 65.24389648 C-109.9280973 71.14060719 -110.62626362 77.03310546 -111 83 C-120.89285803 85.27247887 -130.69374569 86.44657978 -140.8125 87.1875 C-141.94405518 87.27112793 -143.07561035 87.35475586 -144.24145508 87.44091797 C-163.50022166 88.74988917 -163.50022166 88.74988917 -167 87 C-167.54109879 69.32410604 -165.86718272 51.56358016 -164 34 C-165.18142578 34.10828125 -165.18142578 34.10828125 -166.38671875 34.21875 C-174.27957154 34.8912771 -182.08058786 35.11665255 -190 35 C-190.17178611 30.36177494 -189.95039121 26.2605189 -188.9921875 21.7109375 C-188.80769043 20.8245459 -188.62319336 19.9381543 -188.43310547 19.02490234 C-188.29018066 18.35668457 -188.14725586 17.6884668 -188 17 C-187.06655762 16.88724731 -187.06655762 16.88724731 -186.11425781 16.7722168 C-174.28663641 15.33662569 -162.48722618 13.81546666 -150.71289062 11.99169922 C-144.8247628 11.09151836 -138.94598327 10.39548971 -133 10 C-132.67 8.35 -132.34 6.7 -132 5 C-123.5667066 3.11094228 -115.69382838 1.56559362 -107 2 C-106.80851064 21.34042553 -106.80851064 21.34042553 -108 31 C-106.7934375 31.02578125 -105.586875 31.0515625 -104.34375 31.078125 C-102.72913262 31.13444886 -101.11455067 31.1917952 -99.5 31.25 C-98.70851563 31.26417969 -97.91703125 31.27835938 -97.1015625 31.29296875 C-89.91343643 31.58756408 -84.17480163 33.64015404 -79 38.75 C-78.01 39.86375 -78.01 39.86375 -77 41 C-76.40832031 40.59007812 -75.81664062 40.18015625 -75.20703125 39.7578125 C-74.02173828 38.94957031 -74.02173828 38.94957031 -72.8125 38.125 C-72.03519531 37.59132812 -71.25789063 37.05765625 -70.45703125 36.5078125 C-66.62562913 34.1565864 -63.23567602 32.83662465 -58.75 32.5625 C-54.01069374 32.1092442 -49.25345664 31.22167155 -45 29 C-44.67 28.01 -44.34 27.02 -44 26 C-42.1796875 25.26953125 -42.1796875 25.26953125 -39.875 24.8125 C-39.12992188 24.65394531 -38.38484375 24.49539062 -37.6171875 24.33203125 C-34.39547524 23.92330656 -31.24389553 23.94844665 -28 24 C-28.04640625 23.03578125 -28.0928125 22.0715625 -28.140625 21.078125 C-28.17671875 19.81484375 -28.2128125 18.5515625 -28.25 17.25 C-28.29640625 15.99703125 -28.3428125 14.7440625 -28.390625 13.453125 C-28 10 -28 10 -26.43359375 7.75 C-23.40538738 5.5724134 -20.26651126 4.09851631 -16.8125 2.75 C-15.81754517 2.35433838 -15.81754517 2.35433838 -14.80249023 1.95068359 C-9.58315189 -0.01506599 -5.50266729 -0.57922814 0 0 Z M-136 33 C-135 37 -135 37 -135 37 Z M-136 41 C-135 43 -135 43 -135 43 Z M-137 47 C-136 50 -136 50 -136 50 Z M-61 49 C-61.68493373 51.85778033 -61.68493373 51.85778033 -62 55 C-61.01 56.485 -61.01 56.485 -60 58 C-59.34 58 -58.68 58 -58 58 C-57.67 56.02 -57.34 54.04 -57 52 C-57.66 52 -58.32 52 -59 52 C-59.33 51.01 -59.66 50.02 -60 49 C-60.33 49 -60.66 49 -61 49 Z M-138 62 C-138 63.65 -138 65.3 -138 67 C-137.67 67 -137.34 67 -137 67 C-137 65.35 -137 63.7 -137 62 C-137.33 62 -137.66 62 -138 62 Z M-139 70 C-138 74 -138 74 -138 74 Z M-139 75 C-139 76.98 -139 78.96 -139 81 C-138.67 81 -138.34 81 -138 81 C-138 79.02 -138 77.04 -138 75 C-138.33 75 -138.66 75 -139 75 Z " fill="#FAFBFB" transform="translate(456,1)"/>
<path d="M0 0 C0.33 9.9 0.66 19.8 1 30 C8.31377466 28.53758055 8.31377466 28.53758055 15.625 27.0625 C20.17330831 26.57604991 22.86955412 28.16076879 26.56640625 30.67578125 C27.03949219 31.11277344 27.51257813 31.54976562 28 32 C28 32.66 28 33.32 28 34 C29.76529595 35.21690533 29.76529595 35.21690533 32 36 C34.23377831 35.42481768 34.23377831 35.42481768 36 34 C36.33 33.01 36.66 32.02 37 31 C39.0625 30.3125 39.0625 30.3125 41 30 C41 29.34 41 28.68 41 28 C46.34968859 25.80280647 51.19712092 24.35017374 57 24 C57.95390625 23.92394531 58.9078125 23.84789063 59.890625 23.76953125 C65.92191506 23.48918234 70.55965158 23.71052815 75.5078125 27.40625 C78.19404182 30.27531168 78.72229846 33.23895519 79 37 C79.11988281 38.52947266 79.11988281 38.52947266 79.2421875 40.08984375 C79.53085458 47.36595229 78.70668873 52.72132317 75 59 C74.64164063 59.62132812 74.28328125 60.24265625 73.9140625 60.8828125 C72.875 62.5625 72.875 62.5625 71 65 C70.34 65 69.68 65 69 65 C68.01 66.98 68.01 66.98 67 69 C66.34 69 65.68 69 65 69 C65 69.66 65 70.32 65 71 C63.29807615 71.9902653 61.58811989 72.96673206 59.875 73.9375 C58.44800781 74.75541016 58.44800781 74.75541016 56.9921875 75.58984375 C51.83056482 78.02241005 46.89001924 78.13799544 41.25 78.125 C39.55617187 78.12886719 39.55617187 78.12886719 37.828125 78.1328125 C35 78 35 78 33 77 C33 77.66 33 78.32 33 79 C25.41 79.99 17.82 80.98 10 82 C9.3572658 77.50086059 8.90610302 74.21331618 9.0625 69.875 C9.13633755 63.22039101 9.02152551 55.04305102 6 49 C1.59642813 58.59477449 2.84527893 70.65087922 3 81 C0.56363318 81.62972593 -1.87373765 82.25466099 -4.3125 82.875 C-5.03856445 83.060625 -5.76462891 83.24625 -6.51269531 83.4375 C-10.74416759 84.49957523 -14.93081096 85.35534492 -19.25 86 C-23.51219359 86.70931008 -25.07521176 87.77264746 -28 91 C-31.5 92.0625 -31.5 92.0625 -33.58203125 92.49609375 C-37.48307732 93.30907427 -41.31651771 94.39441229 -45.16796875 95.4140625 C-47.88833845 95.97689761 -50.23277959 96.18677509 -53 96 C-53.33 95.67 -53.66 95.34 -54 95 C-54.16757812 95.78761719 -54.33515625 96.57523437 -54.5078125 97.38671875 C-56 100 -56 100 -59.5546875 101.14453125 C-60.99105837 101.39012146 -62.43164938 101.61196368 -63.875 101.8125 C-64.95587891 101.99329102 -64.95587891 101.99329102 -66.05859375 102.17773438 C-69.42481056 102.72017263 -72.58364956 103 -76 103 C-76.24234375 101.89785156 -76.4846875 100.79570313 -76.734375 99.66015625 C-78.45489905 91.86362534 -80.20572001 84.07779021 -82.0625 76.3125 C-83.62609389 69.75629862 -84.99318411 63.1836879 -86.27734375 56.56640625 C-86.9829368 53.08420919 -87.78902797 49.64042794 -88.625 46.1875 C-89.89747917 40.80444677 -90.63889574 35.51617889 -91 30 C-80.58696894 28.58806359 -70.52670777 27.69971357 -60 28 C-59.71125 29.175625 -59.4225 30.35125 -59.125 31.5625 C-58.16686279 35.4018927 -57.10794489 39.2013318 -56 43 C-54.02 43 -52.04 43 -50 43 C-50.02320313 42.46375 -50.04640625 41.9275 -50.0703125 41.375 C-50.20114465 35.69314652 -49.76924294 30.19097528 -49.0625 24.5625 C-48.97564941 23.86447266 -48.88879883 23.16644531 -48.79931641 22.44726562 C-48.41107732 19.49923205 -47.94290398 16.82871193 -47 14 C-44.99047852 13.27978516 -44.99047852 13.27978516 -42.37890625 12.7890625 C-41.44369141 12.59570312 -40.50847656 12.40234375 -39.54492188 12.203125 C-37.56185332 11.81871878 -35.57746167 11.44107437 -33.59179688 11.0703125 C-32.65529297 10.874375 -31.71878906 10.6784375 -30.75390625 10.4765625 C-29.45948608 10.230271 -29.45948608 10.230271 -28.13891602 9.97900391 C-25.74013426 9.16771624 -25.74013426 9.16771624 -24.890625 6.47705078 C-24.59671875 5.65962402 -24.3028125 4.84219727 -24 4 C-20.99609375 2.890625 -20.99609375 2.890625 -17.4375 2.25 C-13.3995222 1.81496813 -13.3995222 1.81496813 -10 0 C-3.57142857 -1.19047619 -3.57142857 -1.19047619 0 0 Z M50 41 C49.14349347 43.80045046 49.14349347 43.80045046 49 47 C50.54285631 49.54331238 50.54285631 49.54331238 53 51 C55.60928057 50.92093089 56.71036212 50.22757262 58.75 48.625 C60.30485538 46.94538008 60.30485538 46.94538008 60 44 C57.98177083 44.09765625 55.96354167 44.1953125 53.9453125 44.29296875 C53.30335938 44.19628906 52.66140625 44.09960938 52 44 C51.34 43.01 50.68 42.02 50 41 Z " fill="#FAFCFD" transform="translate(95,27)"/>
<path d="M0 0 C0.98613281 0.00322266 1.97226563 0.00644531 2.98828125 0.00976562 C4.02082031 0.01814453 5.05335938 0.02652344 6.1171875 0.03515625 C7.67759766 0.04192383 7.67759766 0.04192383 9.26953125 0.04882812 C11.84380712 0.06063673 14.41796896 0.0771055 16.9921875 0.09765625 C18.32182592 4.0865715 17.37623757 7.28228461 16.5546875 11.28515625 C16.40708984 12.03474609 16.25949219 12.78433594 16.10742188 13.55664062 C15.74245959 15.40499799 15.36821339 17.25151786 14.9921875 19.09765625 C16.13816406 18.78183594 17.28414062 18.46601562 18.46484375 18.140625 C22.79130027 17.0621046 26.9850754 16.62700358 31.4296875 16.41015625 C32.17613525 16.37108154 32.92258301 16.33200684 33.69165039 16.29174805 C38.89551536 16.05843415 43.85804764 16.13192553 48.9921875 17.09765625 C49.79785156 17.24460937 50.60351562 17.3915625 51.43359375 17.54296875 C56.97793693 18.60951416 62.48527781 19.85416051 67.9921875 21.09765625 C67.44196494 25.5723578 66.32091625 28.94752786 64.1796875 32.91015625 C63.67824219 33.86535156 63.17679687 34.82054687 62.66015625 35.8046875 C60.9921875 38.09765625 60.9921875 38.09765625 59.0625 38.9375 C51.09206641 39.55408071 43.12960973 37.36497029 35.41015625 35.62109375 C32.17404808 35.1255069 30.10678881 35.20777016 26.9921875 36.09765625 C27.3221875 36.75765625 27.6521875 37.41765625 27.9921875 38.09765625 C31.00338087 38.47405542 33.96931818 38.74971328 36.9921875 38.97265625 C51.99597496 40.34941871 51.99597496 40.34941871 57.62890625 45.6328125 C60.63283278 49.24575427 61.70134311 52.44495097 61.33203125 57.12890625 C60.11635705 64.17143265 56.84508911 67.92617391 51.44140625 72.43359375 C47.70053363 74.97523926 44.43725909 75.66172479 39.9921875 76.09765625 C39.08726562 76.22785156 38.18234375 76.35804687 37.25 76.4921875 C24.31950357 78.05276466 11.59332888 74.74495486 -1.0078125 72.09765625 C-2.0078125 69.09765625 -2.0078125 69.09765625 -0.64453125 65.8125 C-0.00504303 64.54814804 0.6451517 63.28916725 1.3046875 62.03515625 C1.62630859 61.39771484 1.94792969 60.76027344 2.27929688 60.10351562 C3.64934599 57.43374846 4.85811768 55.23172607 6.9921875 53.09765625 C8.3121875 53.09765625 9.6321875 53.09765625 10.9921875 53.09765625 C10.0640625 52.60265625 9.1359375 52.10765625 8.1796875 51.59765625 C4.8245414 49.34764121 3.59505241 46.98525171 2.38671875 43.18359375 C1.7782665 39.96662838 2.27540434 37.26344856 2.9921875 34.09765625 C3.1778125 33.12828125 3.3634375 32.15890625 3.5546875 31.16015625 C3.77125 30.13921875 3.77125 30.13921875 3.9921875 29.09765625 C2.0121875 29.09765625 0.0321875 29.09765625 -2.0078125 29.09765625 C-3.70379699 24.68809657 -4.37857111 20.62127068 -4.76171875 15.953125 C-4.81821865 14.08458419 -4.81821865 14.08458419 -6.0078125 13.09765625 C-6.24209028 11.08171043 -6.42117374 9.05918225 -6.5703125 7.03515625 C-6.65410156 5.93042969 -6.73789063 4.82570313 -6.82421875 3.6875 C-6.91509766 2.40552734 -6.91509766 2.40552734 -7.0078125 1.09765625 C-4.50284246 -0.15482877 -2.79927976 -0.01608781 0 0 Z M22.9921875 55.09765625 C25.92881366 57.05540703 27.5658931 57.65838774 30.9921875 58.09765625 C31.6521875 57.76765625 32.3121875 57.43765625 32.9921875 57.09765625 C32.9921875 56.43765625 32.9921875 55.77765625 32.9921875 55.09765625 C29.6921875 55.09765625 26.3921875 55.09765625 22.9921875 55.09765625 Z " fill="#FAF9FA" transform="translate(175.0078125,22.90234375)"/>
<path d="M0 0 C3.15606463 2.44787452 5.08124273 5.04319525 5.9140625 8.9296875 C6.04769616 15.87863788 2.50077037 20.10344169 -2.0859375 24.9296875 C-3.9850738 26.53220413 -5.92652779 27.96835509 -7.96875 29.3828125 C-11.21829686 31.75702017 -14.08474813 34.53288099 -17.0078125 37.29296875 C-19.10569164 38.94524574 -20.47728372 39.5242886 -23.0859375 39.9296875 C-23.18965661 49.65623523 -23.13112195 59.24306734 -22.0859375 68.9296875 C-24.0323395 69.9028885 -25.97917606 70.87489003 -27.9296875 71.83984375 C-29.71356136 72.74147564 -31.46698457 73.70307386 -33.2109375 74.6796875 C-36.42071332 76.07524221 -38.62719422 76.02549756 -42.0859375 75.9296875 C-42.25722168 74.84139648 -42.42850586 73.75310547 -42.60498047 72.63183594 C-43.24929549 68.53897705 -43.89432325 64.44623074 -44.53955078 60.35351562 C-44.81708467 58.59247787 -45.09443313 56.83141088 -45.37158203 55.0703125 C-46.90148082 45.34965596 -48.43953032 35.63146691 -50.0859375 25.9296875 C-52.0659375 25.5996875 -54.0459375 25.2696875 -56.0859375 24.9296875 C-56.43431079 23.49575814 -56.76345519 22.0571606 -57.0859375 20.6171875 C-57.364375 19.41642578 -57.364375 19.41642578 -57.6484375 18.19140625 C-58.28587527 13.43908002 -58.16222296 8.71712987 -58.0859375 3.9296875 C-53.87830601 2.94748842 -49.66971465 1.96946466 -45.4609375 0.9921875 C-44.27113281 0.71439453 -43.08132813 0.43660156 -41.85546875 0.15039062 C-40.70175781 -0.11708984 -39.54804687 -0.38457031 -38.359375 -0.66015625 C-37.30153809 -0.90628662 -36.24370117 -1.15241699 -35.15380859 -1.40600586 C-24.40286394 -3.73397979 -10.13342065 -5.19954543 0 0 Z M-26.0859375 18.9296875 C-26.0859375 20.2496875 -26.0859375 21.5696875 -26.0859375 22.9296875 C-23.46406256 21.88093752 -22.29222389 21.28037437 -20.8359375 18.8046875 C-20.5884375 18.1859375 -20.3409375 17.5671875 -20.0859375 16.9296875 C-23.27083757 16.6523374 -23.27083757 16.6523374 -26.0859375 18.9296875 Z " fill="#F9F8F9" transform="translate(574.0859375,10.0703125)"/>
<path d="M0 0 C0.94037109 0.17402344 1.88074219 0.34804688 2.84960938 0.52734375 C9.80436525 1.86957684 9.80436525 1.86957684 13.1875 4.125 C13.1875 4.785 13.1875 5.445 13.1875 6.125 C14.1775 6.455 15.1675 6.785 16.1875 7.125 C16.1875 7.785 16.1875 8.445 16.1875 9.125 C16.8475 9.125 17.5075 9.125 18.1875 9.125 C18.63488155 17.92350374 18.63488155 17.92350374 15.1875 22.125 C5.88249106 31.16297778 -5.73306616 38.42744239 -17.8125 43.125 C-18.59238281 43.475625 -19.37226562 43.82625 -20.17578125 44.1875 C-25.69278796 46.59857425 -29.79076593 47.66265483 -35.8125 47.125 C-36.4725 46.795 -37.1325 46.465 -37.8125 46.125 C-37.8125 41.505 -37.8125 36.885 -37.8125 32.125 C-32.8125 31.125 -32.8125 31.125 -30.55859375 30.87109375 C-22.79132665 29.83282962 -16.81041067 26.07173045 -10.8125 21.125 C-10.8125 20.465 -10.8125 19.805 -10.8125 19.125 C-16.57429478 18.91922162 -21.29440493 19.52992564 -26.8125 21.125 C-32.33059507 22.72007436 -37.05070522 23.33077838 -42.8125 23.125 C-45.16832065 18.49683267 -45.04771469 14.36965865 -44.9375 9.3125 C-44.92847656 8.52423828 -44.91945313 7.73597656 -44.91015625 6.92382812 C-44.88672504 4.99075334 -44.85085838 3.0578362 -44.8125 1.125 C-40.59663572 0.62645348 -36.3806074 0.12947611 -32.1640625 -0.36328125 C-29.76180915 -0.64424356 -27.36101485 -0.93128103 -24.9609375 -1.23046875 C-16.18971336 -2.29975226 -8.61207056 -1.69951287 0 0 Z " fill="#FBFCFC" transform="translate(913.8125,43.875)"/>
<path d="M0 0 C7.26 0 14.52 0 22 0 C23.27781432 3.83344297 22.55521045 6.82628721 21.8125 10.6875 C21.60983521 11.76354492 21.60983521 11.76354492 21.40307617 12.86132812 C20.34450361 18.10242262 18.78125959 22.39653585 16 27 C12.7 27 9.4 27 6 27 C3.65046273 18.05176232 1.76514654 9.07789651 0 0 Z " fill="#EEFCFC" transform="translate(170,23)"/>
<path d="M0 0 C2.80355367 2.403046 3.83900945 3.66937639 4.625 7.25 C4.25 10.0625 4.25 10.0625 3.625 12.25 C2.965 12.25 2.305 12.25 1.625 12.25 C1.356875 12.86875 1.08875 13.4875 0.8125 14.125 C-0.375 16.25 -0.375 16.25 -3.375 18.25 C-5.8984375 18.26171875 -5.8984375 18.26171875 -8.75 17.9375 C-9.68585937 17.83824219 -10.62171875 17.73898438 -11.5859375 17.63671875 C-12.96652344 17.44529297 -12.96652344 17.44529297 -14.375 17.25 C-15.73044922 17.08564453 -15.73044922 17.08564453 -17.11328125 16.91796875 C-17.85964844 16.69753906 -18.60601563 16.47710937 -19.375 16.25 C-21.25542897 12.74851158 -22.375 10.2419694 -22.375 6.25 C-21.715 6.25 -21.055 6.25 -20.375 6.25 C-20.2925 5.486875 -20.21 4.72375 -20.125 3.9375 C-19.20956067 0.65717573 -18.29028755 -0.0841214 -15.375 -1.75 C-10.23083049 -3.95464407 -4.71625448 -2.44546529 0 0 Z " fill="#F7F8F9" transform="translate(891.375,98.75)"/>
<path d="M0 0 C9.66928251 0.21020179 9.66928251 0.21020179 13.5 3.25 C16.93543909 7.02898299 17.9644343 9.15058379 18.0625 14.25 C15.89735936 21.89167286 10.50628603 27.02799061 4.1171875 31.453125 C0.86764064 33.82733267 -1.99881063 36.60319349 -4.921875 39.36328125 C-7.01975414 41.01555824 -8.39134622 41.5946011 -11 42 C-11.10371911 51.72654773 -11.04518445 61.31337984 -10 71 C-17 74.5 -17 74.5 -24 78 C-24 77.01 -24 76.02 -24 75 C-22.3203125 73.61328125 -22.3203125 73.61328125 -20.125 72.3125 C-19.40570312 71.87550781 -18.68640625 71.43851562 -17.9453125 70.98828125 C-16 70 -16 70 -14 70 C-14.2165625 68.35064453 -14.2165625 68.35064453 -14.4375 66.66796875 C-14.92958258 62.83511017 -15.35348725 58.99756284 -15.75537109 55.15429688 C-15.96239217 53.33118915 -16.23391875 51.51558328 -16.51953125 49.703125 C-16.82899235 46.78181226 -16.90840157 44.79974021 -16 42 C-13.5616253 39.53448198 -11.02327515 37.81098012 -8.08984375 35.96484375 C0.26839058 30.64980978 7.5125154 23.2312269 13 15 C12.92181107 10.77779769 12.43696476 8.57833571 9.875 5.1875 C6.49604995 2.61655974 4.10953627 1.88637057 0 1 C0 0.67 0 0.34 0 0 Z " fill="#19FBF9" transform="translate(562,8)"/>
<path d="M0 0 C5.75 1.875 5.75 1.875 8 3 C8 3.66 8 4.32 8 5 C8.99 5.33 9.98 5.66 11 6 C11 6.66 11 7.32 11 8 C11.66 8 12.32 8 13 8 C13.44738155 16.79850374 13.44738155 16.79850374 10 21 C0.69499106 30.03797778 -10.92056616 37.30244239 -23 42 C-23.82628906 42.36222656 -24.65257812 42.72445312 -25.50390625 43.09765625 C-26.38949219 43.47792969 -27.27507813 43.85820313 -28.1875 44.25 C-29.41533203 44.78367187 -29.41533203 44.78367187 -30.66796875 45.328125 C-33.24034644 46.06924554 -34.51313099 45.89184268 -37 45 C-35.45121147 41.90242293 -32.40966266 41.50780989 -29.3125 40.375 C-16.88788142 35.59652949 0.78831432 27.76023253 8 16 C8.52795493 11.8517827 8.47613145 9.76521126 6.25 6.1875 C4.19990411 4.19435122 2.63844545 3.03653214 0 2 C0 1.34 0 0.68 0 0 Z " fill="#1DFBF9" transform="translate(919,45)"/>
<path d="M0 0 C0.99 0.33 1.98 0.66 3 1 C3.83000089 3.42592173 4.45240273 5.69581786 5 8.1875 C5.16951172 8.91291992 5.33902344 9.63833984 5.51367188 10.38574219 C6.0234778 12.58752666 6.51412791 14.7928248 7 17 C7.2578125 18.14597656 7.515625 19.29195312 7.78125 20.47265625 C8.89343301 25.54396898 9.92992475 30.6289087 10.93359375 35.72265625 C11.26821666 37.4192733 11.60285232 39.11588784 11.9375 40.8125 C12.1034668 41.65723877 12.26943359 42.50197754 12.44042969 43.37231445 C13.71955967 49.80172259 15.17033872 56.17792601 16.78100586 62.5324707 C17.66119675 66.09890663 18.19833714 69.32367943 18 73 C17.01 73 16.02 73 15 73 C14.75765625 71.89785156 14.5153125 70.79570313 14.265625 69.66015625 C12.54510095 61.86362534 10.79427999 54.07779021 8.9375 46.3125 C7.37390611 39.75629862 6.00681589 33.1836879 4.72265625 26.56640625 C4.0170632 23.08420919 3.21097203 19.64042794 2.375 16.1875 C1.10252083 10.80444677 0.36110426 5.51617889 0 0 Z " fill="#D02349" transform="translate(4,57)"/>
<path d="M0 0 C5.80944597 -0.51870053 9.53930058 -0.00167018 14.3671875 3.40625 C17.22715456 6.1977968 17.71887416 9.19257829 18 13 C18.07992187 14.01964844 18.15984375 15.03929688 18.2421875 16.08984375 C18.53085458 23.36595229 17.70668873 28.72132317 14 35 C13.46246094 35.93199219 13.46246094 35.93199219 12.9140625 36.8828125 C11.875 38.5625 11.875 38.5625 10 41 C9.34 41 8.68 41 8 41 C7.34 42.32 6.68 43.64 6 45 C5.34 45 4.68 45 4 45 C4 45.66 4 46.32 4 47 C2.27843904 48.01303762 0.54738194 49.00994848 -1.1875 50 C-2.15042969 50.556875 -3.11335937 51.11375 -4.10546875 51.6875 C-7.04888743 53.02216758 -8.81880057 53.27915461 -12 53 C-9.87335676 50.67460506 -7.90404969 49.28464544 -5.0625 47.9375 C-4.39347656 47.61652344 -3.72445312 47.29554687 -3.03515625 46.96484375 C-1.66445055 46.31500822 -0.27505599 45.70337153 1.12890625 45.12890625 C3.47908057 43.71095139 3.91636904 42.4923512 5 40 C6.48251559 37.71176942 8.02183351 35.46812308 9.5625 33.21875 C10.036875 32.4865625 10.51125 31.754375 11 31 C11.57621094 30.13181641 11.57621094 30.13181641 12.1640625 29.24609375 C13.46446793 25.75201375 13.36871621 22.24165821 13.375 18.5625 C13.39949219 17.81162109 13.42398438 17.06074219 13.44921875 16.28710938 C13.46932457 12.4770558 13.26700713 10.44702551 11.2734375 7.109375 C8.97636616 4.9780717 7.14691575 3.83774596 4.25 2.6875 C3.45078125 2.36136719 2.6515625 2.03523438 1.828125 1.69921875 C1.22484375 1.46847656 0.6215625 1.23773438 0 1 C0 0.67 0 0.34 0 0 Z " fill="#19FBF9" transform="translate(156,51)"/>
<path d="M0 0 C3.37462715 0.54723683 5.08235 1.0549 8 3 C8 3.66 8 4.32 8 5 C8.66 5 9.32 5 10 5 C10.64834654 6.269553 11.29357815 7.54069706 11.9375 8.8125 C12.29714844 9.52019531 12.65679688 10.22789063 13.02734375 10.95703125 C17.55351811 20.46381514 14.39977197 31.12076134 11.1875 40.5625 C9.3588454 45.4619142 6.99113902 49.72169051 4 54 C3.01 53.67 2.02 53.34 1 53 C1.60403766 49.25496651 2.70238335 46.27091866 4.375 42.875 C8.78180003 33.34609327 12.56528415 22.5902852 9.05078125 12.19140625 C6.82353569 7.3504845 5.0001797 4.28579643 0 2 C0 1.34 0 0.68 0 0 Z " fill="#1BFBF9" transform="translate(855,59)"/>
<path d="M0 0 C1.65 0 3.3 0 5 0 C4.43625176 8.01030059 3.86502372 16.02004081 3.28662109 24.02929688 C3.09855268 26.63470125 2.91134907 29.24016823 2.72509766 31.84570312 C2.46701305 35.43914345 2.20309471 39.0321079 1.9375 42.625 C1.81882568 44.2944165 1.81882568 44.2944165 1.69775391 45.99755859 C1.62089355 47.02187988 1.5440332 48.04620117 1.46484375 49.1015625 C1.399021 50.00213379 1.33319824 50.90270508 1.26538086 51.83056641 C1 54 1 54 0 56 C-0.99 56 -1.98 56 -3 56 C-3.30270929 44.17892209 -2.36856843 32.4675808 -1.5 20.6875 C-1.35504541 18.67516066 -1.21051091 16.66279101 -1.06640625 14.65039062 C-0.71577705 9.76656438 -0.35947466 4.88318281 0 0 Z " fill="#16FBF9" transform="translate(316,32)"/>
<path d="M0 0 C1.98 0.495 1.98 0.495 4 1 C4 1.99 4 2.98 4 4 C5.90072266 4.14695312 5.90072266 4.14695312 7.83984375 4.296875 C27.72677683 5.99194104 27.72677683 5.99194104 33.63671875 11.53515625 C36.64064528 15.14809802 37.70915561 18.34729472 37.33984375 23.03125 C36.11948609 30.10090816 32.80923051 33.83023541 27.4296875 38.3984375 C23.85268888 40.75626617 21.23962606 41 17 41 C18.485 40.505 18.485 40.505 20 40 C20 39.34 20 38.68 20 38 C21.609375 36.95703125 21.609375 36.95703125 23.75 35.8125 C28.25832068 33.07873108 30.00605832 30.9017733 32 26 C32.7652604 21.88672532 32.26499819 18.656186 30.6875 14.75 C23.86991718 7.77386874 14.43304718 7.51973281 5.1875 7.2734375 C2 7 2 7 -1 5 C-0.67 3.35 -0.34 1.7 0 0 Z " fill="#1FFBF9" transform="translate(199,57)"/>
<path d="M0 0 C0.99 0.33 1.98 0.66 3 1 C2.85175781 1.87785156 2.70351563 2.75570313 2.55078125 3.66015625 C2.068785 6.58289944 1.6223301 9.5074766 1.1875 12.4375 C0.91036734 14.21114903 0.63287559 15.98474431 0.35205078 17.7578125 C0.09087867 19.42119996 -0.16516044 21.08539508 -0.41845703 22.75 C-0.88889331 25.81506948 -1.38056125 28.87621849 -1.875 31.9375 C-2.02428955 32.93257568 -2.1735791 33.92765137 -2.32739258 34.95288086 C-3.25625914 40.57121697 -4.23839057 44.64095848 -8 49 C-8.66 49 -9.32 49 -10 49 C-8.25302731 36.28436061 -6.38443077 23.61309683 -4 11 C-3.814375 10.01644531 -3.62875 9.03289063 -3.4375 8.01953125 C-2.26684132 2.26684132 -2.26684132 2.26684132 0 0 Z " fill="#23FBF9" transform="translate(636,8)"/>
<path d="M0 0 C0.33 0 0.66 0 1 0 C1.02472359 4.50235595 1.04287119 9.00467236 1.05493164 13.50708008 C1.0599596 15.0386626 1.06678284 16.57024033 1.07543945 18.10180664 C1.08757229 20.30356022 1.09324367 22.50525033 1.09765625 24.70703125 C1.10281754 25.39150833 1.10797882 26.07598541 1.11329651 26.78120422 C1.1136536 29.80906242 0.96616619 32.10150142 0 35 C-0.21608346 36.91669758 -0.3887142 38.83844643 -0.53515625 40.76171875 C-0.62216797 41.87998047 -0.70917969 42.99824219 -0.79882812 44.15039062 C-0.88583984 45.31763672 -0.97285156 46.48488281 -1.0625 47.6875 C-1.15337891 48.86634766 -1.24425781 50.04519531 -1.33789062 51.25976562 C-1.5619806 54.17293532 -1.78254296 57.0863289 -2 60 C-3.65 60.66 -5.3 61.32 -7 62 C-6.46730927 56.79366532 -5.93424754 51.58736879 -5.40087891 46.38110352 C-5.22044465 44.61939457 -5.04010234 42.8576762 -4.85986328 41.09594727 C-4.3319486 35.93624483 -3.80126203 30.77683708 -3.26867676 25.61761475 C-2.99466499 22.94802305 -2.72516402 20.27800009 -2.45605469 17.60791016 C-2.28069652 15.89094055 -2.10524443 14.17398054 -1.9296875 12.45703125 C-1.85090363 11.66439377 -1.77211975 10.87175629 -1.69094849 10.05509949 C-1.33674993 6.61987056 -0.89216301 3.33461887 0 0 Z " fill="#1BFBF9" transform="translate(72,56)"/>
<path d="M0 0 C0.66 0 1.32 0 2 0 C1.68318981 8.00073066 1.34758631 16.00054941 1 24 C0.96261719 24.88365234 0.92523438 25.76730469 0.88671875 26.67773438 C0.45758927 36.57155297 -0.37998114 46.21697347 -2 56 C-3.485 56.495 -3.485 56.495 -5 57 C-5.09195897 50.20525376 -4.99692422 43.72923848 -4 37 C-4.00278728 35.33320546 -4.02584911 33.66639387 -4.0625 32 C-4.12734804 26.10693403 -3.35255062 20.4372152 -2.5078125 14.61328125 C-1.95331055 10.66778659 -1.56712248 6.7280862 -1.24609375 2.7578125 C-1 1 -1 1 0 0 Z " fill="#CE153D" transform="translate(322,31)"/>
<path d="M0 0 C0.556875 0.268125 1.11375 0.53625 1.6875 0.8125 C1.0275 1.1425 0.3675 1.4725 -0.3125 1.8125 C-0.99870031 3.13588632 -1.66036461 4.47199948 -2.3125 5.8125 C-2.93382812 6.62847656 -3.55515625 7.44445312 -4.1953125 8.28515625 C-7.63012002 13.37672584 -8.58227289 19.58140801 -10.0234375 25.46484375 C-10.38308594 26.83576172 -10.38308594 26.83576172 -10.75 28.234375 C-10.95496094 29.06549805 -11.15992188 29.89662109 -11.37109375 30.75292969 C-12.3125 32.8125 -12.3125 32.8125 -14.26879883 34.08422852 C-20.6877482 36.37161664 -28.71390222 34.66393197 -35.3125 33.8125 C-35.3125 33.4825 -35.3125 33.1525 -35.3125 32.8125 C-29.3725 32.4825 -23.4325 32.1525 -17.3125 31.8125 C-16.77625 29.585 -16.24 27.3575 -15.6875 25.0625 C-9.03962655 -0.73294269 -9.03962655 -0.73294269 0 0 Z " fill="#25F9F8" transform="translate(842.3125,72.1875)"/>
<path d="M0 0 C-3.81412089 1.94051765 -7.491152 3.809182 -11.5 5.3125 C-19.11028663 8.98174534 -23.97371152 14.13506949 -27 22 C-29.08079409 28.24238228 -28.81192229 34.87930729 -26.25 40.9375 C-24.61960479 44.18664474 -22.84064453 46.66661342 -20 49 C-23.62198684 48.22385996 -26.89009834 47.39765394 -29.265625 44.40625 C-33.33641013 36.52314229 -32.68827229 29.8032166 -30.4375 21.375 C-27.20523162 11.91145135 -22.64291836 7.48959208 -13.75 3.0625 C-4.47527921 -1.38887976 -4.47527921 -1.38887976 0 0 Z " fill="#CD173F" transform="translate(587,36)"/>
<path d="M0 0 C0.99 0.33 1.98 0.66 3 1 C2.73155273 1.56960449 2.46310547 2.13920898 2.18652344 2.72607422 C-0.91437368 9.78954113 -1.9949403 16.48557242 -2.75 24.125 C-2.93755859 25.84589844 -2.93755859 25.84589844 -3.12890625 27.6015625 C-3.43206434 30.3999449 -3.722142 33.19901214 -4 36 C-6.54046458 36.50688605 -9.08208876 37.00566874 -11.625 37.5 C-12.33785156 37.64308594 -13.05070312 37.78617188 -13.78515625 37.93359375 C-17.92144935 38.73049426 -21.76433679 39.16034056 -26 39 C-22.91545869 36.94363913 -21.15190326 36.48865646 -17.5625 35.875 C-16.14130859 35.62363281 -16.14130859 35.62363281 -14.69140625 35.3671875 C-12 35 -12 35 -8 35 C-7.98541748 34.44650879 -7.97083496 33.89301758 -7.95581055 33.32275391 C-7.19365285 7.44170984 -7.19365285 7.44170984 0 0 Z " fill="#24FAF9" transform="translate(349,48)"/>
<path d="M0 0 C0.97366676 2.57454216 1.10117036 3.72235898 0.14453125 6.34765625 C-0.29503906 7.24355469 -0.73460937 8.13945313 -1.1875 9.0625 C-4.90146364 17.41373108 -6.27204696 26.04024352 -8 35 C-15.59 35.33 -23.18 35.66 -31 36 C-30.67 35.01 -30.34 34.02 -30 33 C-24.06 33.33 -18.12 33.66 -12 34 C-11.938125 32.494375 -11.87625 30.98875 -11.8125 29.4375 C-10.81294232 18.69225496 -7.44427328 8.00707057 0 0 Z " fill="#1DFBF9" transform="translate(723,58)"/>
<path d="M0 0 C0.99 0 1.98 0 3 0 C3.081462 7.19521725 2.87647351 14.30566578 2.34375 21.48046875 C2.27716187 22.41933426 2.21057373 23.35819977 2.14196777 24.32551575 C1.93161206 27.27978424 1.71590692 30.23363257 1.5 33.1875 C1.35511231 35.20895886 1.21057799 37.23044308 1.06640625 39.25195312 C0.71501463 44.16827087 0.35883 49.0842198 0 54 C1.32 54.33 2.64 54.66 4 55 C1.69 54.67 -0.62 54.34 -3 54 C-3.55168693 35.97822704 -1.6909809 17.92485277 0 0 Z " fill="#CC143D" transform="translate(292,34)"/>
<path d="M0 0 C0.66 0 1.32 0 2 0 C2.14099121 0.97235596 2.28198242 1.94471191 2.42724609 2.9465332 C2.95830912 6.60535126 3.49197433 10.26378608 4.02636719 13.92211914 C4.25590199 15.49591136 4.48476086 17.06980233 4.71289062 18.64379883 C5.88488583 26.72696753 7.05980667 34.79107917 8.64257812 42.80664062 C9.14953282 45.91762489 9.13972906 48.85609621 9 52 C7.515 52.495 7.515 52.495 6 53 C5.18178457 47.82630763 4.3639299 42.6525584 3.54638672 37.47875977 C3.26913829 35.72451293 2.99179711 33.97028075 2.71435547 32.21606445 C1.12196185 22.14719291 -0.46232266 12.07740103 -2 2 C-1.34 2 -0.68 2 0 2 C0 1.34 0 0.68 0 0 Z " fill="#CF2147" transform="translate(526,33)"/>
<path d="M0 0 C9.10550427 -0.45027219 17.17038815 0.85282274 26 3 C27.79077781 3.39983537 29.58231227 3.79631696 31.375 4.1875 C32.57125 4.455625 33.7675 4.72375 35 5 C34.45628039 9.53099675 33.28697545 12.83672603 31.0625 16.8125 C30.53785156 17.76769531 30.01320312 18.72289063 29.47265625 19.70703125 C28 22 28 22 26 23 C25.34 22.67 24.68 22.34 24 22 C25.13646644 18.30648408 26.49638124 14.79768809 28.078125 11.27734375 C28.4380957 10.47417725 28.79806641 9.67101074 29.16894531 8.84350586 C29.44319336 8.23514893 29.71744141 7.62679199 30 7 C14.62430157 3.65521095 14.62430157 3.65521095 -1 2 C-0.67 1.34 -0.34 0.68 0 0 Z " fill="#18FBF9" transform="translate(208,39)"/>
<path d="M0 0 C0.66 0 1.32 0 2 0 C1.814375 1.3303125 1.814375 1.3303125 1.625 2.6875 C1.53605469 3.33332031 1.44710937 3.97914062 1.35546875 4.64453125 C1.09730663 6.3552099 0.80347689 8.06062474 0.48828125 9.76171875 C-1.12930677 18.90510634 -1.1993108 27.75419356 -1 37 C-2.65 37 -4.3 37 -6 37 C-5.91834042 32.85340765 -5.80556677 28.70820285 -5.6875 24.5625 C-5.66494141 23.39783203 -5.64238281 22.23316406 -5.61914062 21.03320312 C-5.12624909 5.12624909 -5.12624909 5.12624909 0 0 Z " fill="#15FBF9" transform="translate(99,71)"/>
<path d="M0 0 C1.32 0.33 2.64 0.66 4 1 C5.88821566 8.55286264 5.72194564 16.06647585 2 23 C-2.28583218 28.09373618 -7.47984235 31.55107608 -14 33 C-17.5 33.1875 -17.5 33.1875 -20 33 C-17.87038652 31.92040428 -15.73462062 30.87879307 -13.5625 29.88671875 C-7.48465171 27.04235987 -3.53686749 24.77582912 -0.9140625 18.33203125 C0.12873058 14.53073853 0.22331177 11.02722104 0.125 7.125 C0.11597656 6.43664063 0.10695313 5.74828125 0.09765625 5.0390625 C0.07432513 3.35922162 0.03846326 1.67956254 0 0 Z " fill="#16FBF9" transform="translate(469,52)"/>
<path d="M0 0 C0.66 0 1.32 0 2 0 C2.21613388 6.37594952 1.56032113 12.21459636 0.5078125 18.5 C-0.20105403 23.38572626 -0.48536151 28.27224488 -0.75390625 33.19921875 C-1 36 -1 36 -2 38 C-3.32 38 -4.64 38 -6 38 C-5.59312218 30.84456253 -4.73604993 23.81469743 -3.5625 16.75 C-3.37917114 15.63455811 -3.37917114 15.63455811 -3.19213867 14.49658203 C-2.35471082 9.59390178 -1.25747548 4.81215726 0 0 Z " fill="#1AFAF8" transform="translate(422,47)"/>
<path d="M0 0 C0.99 0.33 1.98 0.66 3 1 C3.23717455 11.66099598 1.97766143 26.77360953 -4 36 C-6.6328125 36.78515625 -6.6328125 36.78515625 -9 37 C-8.54803755 35.39402675 -8.08817673 33.79027492 -7.625 32.1875 C-7.36976563 31.29417969 -7.11453125 30.40085937 -6.8515625 29.48046875 C-6 27 -6 27 -4 24 C-3.40895888 21.64149141 -2.8981018 19.26241248 -2.4375 16.875 C-2.24353638 15.87327759 -2.24353638 15.87327759 -2.0456543 14.85131836 C-1.11193877 9.91033236 -0.43917368 5.00657993 0 0 Z " fill="#1CFAF9" transform="translate(746,60)"/>
<path d="M0 0 C0.99 0.33 1.98 0.66 3 1 C3.33 11.23 3.66 21.46 4 32 C2.68 32.66 1.36 33.32 0 34 C-1.07891071 27.00420594 -1.14939358 20.13257353 -1.125 13.0625 C-1.12886719 11.91458984 -1.13273437 10.76667969 -1.13671875 9.58398438 C-1.13542969 8.49537109 -1.13414063 7.40675781 -1.1328125 6.28515625 C-1.13168457 5.29394775 -1.13055664 4.30273926 -1.12939453 3.28149414 C-1 1 -1 1 0 0 Z " fill="#17FAF8" transform="translate(92,26)"/>
<path d="M0 0 C1.32 0 2.64 0 4 0 C4.26910299 27.17940199 4.26910299 27.17940199 1 33 C0.34 33 -0.32 33 -1 33 C-1.20638953 10.40510967 -1.20638953 10.40510967 0 0 Z " fill="#16FBF9" transform="translate(345,3)"/>
<path d="M0 0 C0.99 0 1.98 0 3 0 C3.27501507 6.19643329 2.22632202 11.87632056 1 17.9375 C0.80921875 18.90751953 0.6184375 19.87753906 0.421875 20.87695312 C-0.04621915 23.25253095 -0.52030902 25.62674165 -1 28 C-2.32 28 -3.64 28 -5 28 C-5.56463293 19.11225936 -5.04309724 7.56464586 0 0 Z " fill="#1EFBF9" transform="translate(453,1)"/>
<path d="M0 0 C0.66 0 1.32 0 2 0 C1.835 1.27875 1.67 2.5575 1.5 3.875 C-0.68962826 18.80386152 -0.68962826 18.80386152 3.5 32.4375 C6.88650348 35.41891933 10.71483874 36.74400446 15 38 C15 38.33 15 38.66 15 39 C8.23459859 38.75837852 3.71887765 36.99091937 -1 32 C-4.78346612 26.96627402 -3.99956824 22.55541612 -3.24609375 16.63476562 C-3.08238281 15.49716797 -2.91867187 14.35957031 -2.75 13.1875 C-2.60175781 12.03056641 -2.45351563 10.87363281 -2.30078125 9.68164062 C-1.17141482 1.17141482 -1.17141482 1.17141482 0 0 Z " fill="#CD2045" transform="translate(425,46)"/>
<path d="M0 0 C0.99 0.33 1.98 0.66 3 1 C5.64294913 6.37399656 5.29697058 12.02716303 5.25 17.875 C5.25773437 18.83019531 5.26546875 19.78539063 5.2734375 20.76953125 C5.25764934 26.52431594 4.64356156 31.48232905 3 37 C2.01 36.67 1.02 36.34 0 36 C0.0721875 35.35675781 0.144375 34.71351562 0.21875 34.05078125 C1.39344077 22.61386136 1.15324494 11.42948111 0 0 Z " fill="#D1284D" transform="translate(351,49)"/>
<path d="M0 0 C-0.31316272 2.97504584 -0.8251203 3.85759796 -3.1875 5.78125 C-19.37647059 15.6745098 -19.37647059 15.6745098 -30 15 C-30 19.29 -30 23.58 -30 28 C-30.99 28 -31.98 28 -33 28 C-33 23.38 -33 18.76 -33 14 C-28 13 -28 13 -25.74609375 12.74609375 C-16.97944606 11.57424068 -10.5842964 6.61113875 -3.7734375 1.24609375 C-2 0 -2 0 0 0 Z " fill="#CF1C44" transform="translate(909,62)"/>
<path d="M0 0 C0.99 0 1.98 0 3 0 C2.67 0.99 2.34 1.98 2 3 C0.89175097 7.0418494 0.05594004 10.84939156 1 15 C3.53707308 19.20099763 6.49089342 22.05896741 11 24 C13.40947137 24.45034461 13.40947137 24.45034461 15.984375 24.6328125 C16.91894531 24.71660156 17.85351562 24.80039063 18.81640625 24.88671875 C19.78449219 24.96535156 20.75257813 25.04398438 21.75 25.125 C22.73355469 25.21136719 23.71710938 25.29773438 24.73046875 25.38671875 C27.15311603 25.59840638 29.57615667 25.80256279 32 26 C32.495 27.485 32.495 27.485 33 29 C31.35 29 29.7 29 28 29 C28 28.34 28 27.68 28 27 C27.22076172 27.27070312 27.22076172 27.27070312 26.42578125 27.546875 C18.97042742 28.93950148 9.56312097 26.70959011 3 23 C-0.63712394 20.14928124 -2.02725421 17.51000323 -3 13 C-2.67045194 8.38632722 -1.58555961 4.33386292 0 0 Z " fill="#CE1D41" transform="translate(180,51)"/>
<path d="M0 0 C3 1 3 1 3.94262695 2.57202148 C6.42520836 9.72215354 6.34311373 16.5571299 6.1875 24.0625 C6.17396484 25.30966797 6.16042969 26.55683594 6.14648438 27.84179688 C6.1113902 30.89498967 6.06222267 33.9472599 6 37 C5.01 37.495 5.01 37.495 4 38 C3.26788646 33.88186131 2.97059714 30.05964336 3.0625 25.875 C3.13331514 19.4485259 2.08733546 13.31650598 1 7 C0.78534028 5.56343109 0.57553335 4.12610884 0.375 2.6875 C0.189375 1.3571875 0.189375 1.3571875 0 0 Z " fill="#CB2047" transform="translate(101,71)"/>
<path d="M0 0 C0.99 0 1.98 0 3 0 C2.47338846 7.71901646 1.81249484 15.42471049 1.0625 23.125 C0.98789551 23.95427002 0.91329102 24.78354004 0.83642578 25.63793945 C0.75763184 26.41999756 0.67883789 27.20205566 0.59765625 28.0078125 C0.53070557 28.70535645 0.46375488 29.40290039 0.39477539 30.12158203 C0 32 0 32 -2 35 C-6.12041547 26.75916906 -2.44480641 11.91139719 -1 3 C-0.67 2.01 -0.34 1.02 0 0 Z " fill="#D43659" transform="translate(48,41)"/>
<path d="M0 0 C0.66 0 1.32 0 2 0 C2.43982322 12.68971438 1.68112841 24.36721326 -4 36 C-4.99 35.34 -5.98 34.68 -7 34 C-6.73445312 33.30777344 -6.46890625 32.61554688 -6.1953125 31.90234375 C-3.22159672 23.66493399 -1.9661376 15.67610694 -1 7 C-0.67442685 4.66557123 -0.34336241 2.3318786 0 0 Z " fill="#CD183F" transform="translate(842,74)"/>
<path d="M0 0 C1.8871875 0.061875 1.8871875 0.061875 3.8125 0.125 C5.89226724 7.88946435 7.61744618 15.08478519 5.8125 23.125 C5.1525 23.455 4.4925 23.785 3.8125 24.125 C3.14088005 21.02188362 2.47606325 17.91734832 1.8125 14.8125 C1.62171875 13.93142578 1.4309375 13.05035156 1.234375 12.14257812 C1.05390625 11.29501953 0.8734375 10.44746094 0.6875 9.57421875 C0.51992188 8.79393311 0.35234375 8.01364746 0.1796875 7.2097168 C-0.1875 5.125 -0.1875 5.125 -0.1875 2.125 C-2.4975 2.125 -4.8075 2.125 -7.1875 2.125 C-4.09861478 0.06574319 -3.47814073 -0.1140374 0 0 Z " fill="#24FAF9" transform="translate(31.1875,54.875)"/>
<path d="M0 0 C0.33 0 0.66 0 1 0 C1 6.93 1 13.86 1 21 C4.465 20.505 4.465 20.505 8 20 C9.64485066 19.93943849 11.29172957 19.91218045 12.9375 19.9375 C13.70964844 19.94652344 14.48179688 19.95554687 15.27734375 19.96484375 C15.84582031 19.97644531 16.41429688 19.98804687 17 20 C17.33 18.02 17.66 16.04 18 14 C18.82757813 14.44472656 18.82757813 14.44472656 19.671875 14.8984375 C22.16123288 16.07628804 24.6060884 16.85965717 27.25 17.625 C28.58804688 18.01558594 28.58804688 18.01558594 29.953125 18.4140625 C30.62859375 18.60742188 31.3040625 18.80078125 32 19 C32 19.33 32 19.66 32 20 C30.54176788 20.0270043 29.08339325 20.04639787 27.625 20.0625 C26.81289062 20.07410156 26.00078125 20.08570312 25.1640625 20.09765625 C23 20 23 20 21 19 C21 19.66 21 20.32 21 21 C18.62561751 21.3383344 16.25065041 21.67079002 13.875 22 C13.20984375 22.09539062 12.5446875 22.19078125 11.859375 22.2890625 C7.81151 22.84465181 4.12479613 23 0 23 C0 15.41 0 7.82 0 0 Z " fill="#A2CBD3" transform="translate(107,85)"/>
<path d="M0 0 C0.33 0 0.66 0 1 0 C1.52168987 11.70903934 0.38443376 21.77395408 -3 33 C-4.32 33 -5.64 33 -7 33 C-6.72285156 31.91203125 -6.44570313 30.8240625 -6.16015625 29.703125 C-4.22626778 21.92051138 -2.56877853 14.47169139 -2.2734375 6.41796875 C-1.98459085 3.86373907 -1.28575874 2.206362 0 0 Z " fill="#CE1941" transform="translate(723,62)"/>
<path d="M0 0 C1 3 1 3 0 6 C-0.66 6 -1.32 6 -2 6 C-2.18175781 6.90105469 -2.36351562 7.80210938 -2.55078125 8.73046875 C-4.44827406 13.01133529 -7.16094975 14.34007394 -11.1875 16.3125 C-11.83525391 16.65861328 -12.48300781 17.00472656 -13.15039062 17.36132812 C-18.98377719 20.35086589 -24.51132202 21.76963945 -31 20 C-31 19.67 -31 19.34 -31 19 C-30.2265625 18.82984375 -29.453125 18.6596875 -28.65625 18.484375 C-15.90558737 15.51763667 -7.40988891 11.11483336 0 0 Z " fill="#2EF8F7" transform="translate(605,66)"/>
<path d="M0 0 C2.0625 0.4375 2.0625 0.4375 4 1 C3.57474 3.87729107 3.13527802 6.75120078 2.6875 9.625 C2.56955078 10.43324219 2.45160156 11.24148437 2.33007812 12.07421875 C1.56699193 16.88753167 0.47326142 20.71855586 -2 25 C-2.66 25 -3.32 25 -4 25 C-2.64974619 2.64974619 -2.64974619 2.64974619 0 0 Z " fill="#1AFBF9" transform="translate(189,23)"/>
<path d="M0 0 C0.33 0 0.66 0 1 0 C1.04944705 4.50234373 1.08574161 9.0045293 1.10986328 13.50708008 C1.11991935 15.03868361 1.133566 16.57026795 1.15087891 18.10180664 C1.17514498 20.30359636 1.18648688 22.50513219 1.1953125 24.70703125 C1.20563507 25.39150833 1.21595764 26.07598541 1.22659302 26.78120422 C1.22745382 30.43061661 1.08567666 31.87148502 -1 35 C-1.33 34.34 -1.66 33.68 -2 33 C-2.33 35.31 -2.66 37.62 -3 40 C-3.33 40 -3.66 40 -4 40 C-4.19024979 32.29901925 -3.44956008 24.83272012 -2.5625 17.1875 C-2.42779297 15.97384766 -2.29308594 14.76019531 -2.15429688 13.50976562 C-1.04896334 3.76665487 -1.04896334 3.76665487 0 0 Z " fill="#63EFF0" transform="translate(72,56)"/>
<path d="M0 0 C-0.66 0 -1.32 0 -2 0 C-2 0.66 -2 1.32 -2 2 C-4.2898234 3.0044134 -6.5816599 4.00367612 -8.875 5 C-9.85146484 5.42925781 -9.85146484 5.42925781 -10.84765625 5.8671875 C-15.7734375 8 -15.7734375 8 -18 8 C-18.66 13.94 -19.32 19.88 -20 26 C-20.66 26 -21.32 26 -22 26 C-22.10812003 23.24894578 -22.18734945 20.50214913 -22.25 17.75 C-22.28351563 16.97269531 -22.31703125 16.19539063 -22.3515625 15.39453125 C-22.44922575 9.68123095 -22.44922575 9.68123095 -20.45703125 6.66015625 C-17.28867739 4.51937662 -13.98755583 3.05343276 -10.4375 1.6875 C-9.76525391 1.41099609 -9.09300781 1.13449219 -8.40039062 0.84960938 C-3.3840743 -1.12802477 -3.3840743 -1.12802477 0 0 Z " fill="#CC123B" transform="translate(450,2)"/>
<path d="M0 0 C-0.66 0.66 -1.32 1.32 -2 2 C-3.32 2 -4.64 2 -6 2 C-6 8.27 -6 14.54 -6 21 C-6.99 21 -7.98 21 -9 21 C-9.93854006 13.96094956 -10.10808032 7.09727428 -10 0 C-6.33694766 -0.74926071 -3.57644848 -1.2380014 0 0 Z " fill="#CD133C" transform="translate(879,45)"/>
<path d="M0 0 C1.65 0.33 3.3 0.66 5 1 C4.77183594 1.9178125 4.54367187 2.835625 4.30859375 3.78125 C2.71731516 10.57451106 1.49103922 16.14108734 3 23 C0.525 22.01 0.525 22.01 -2 21 C-2.2494783 13.70968976 -1.72330907 7.09326321 0 0 Z " fill="#1CFBF9" transform="translate(443,46)"/>
<path d="M0 0 C0.99 0 1.98 0 3 0 C3.67901044 2.81001195 4.34333172 5.62225661 5 8.4375 C5.19078125 9.22060547 5.3815625 10.00371094 5.578125 10.81054688 C6.85087568 16.33337573 7.18152971 21.33286923 7 27 C7.66 27.33 8.32 27.66 9 28 C7.68 28 6.36 28 5 28 C3.30401551 23.59044032 2.62924139 19.52361443 2.24609375 14.85546875 C2.18959385 12.98692794 2.18959385 12.98692794 1 12 C0.76572222 9.98405418 0.58663876 7.961526 0.4375 5.9375 C0.35371094 4.83277344 0.26992187 3.72804688 0.18359375 2.58984375 C0.09271484 1.30787109 0.09271484 1.30787109 0 0 Z " fill="#CB0D38" transform="translate(168,24)"/>
<path d="M0 0 C0.66 0 1.32 0 2 0 C0.68774191 3.93677426 -1.1961394 4.8271782 -4.5625 7.1875 C-6.08037109 8.26064453 -6.08037109 8.26064453 -7.62890625 9.35546875 C-8.41136719 9.89816406 -9.19382812 10.44085938 -10 11 C-9.36707031 11.61746094 -8.73414063 12.23492187 -8.08203125 12.87109375 C-6.10105225 14.89667265 -4.94195731 16.34539305 -4 19 C-4.33 19.99 -4.66 20.98 -5 22 C-6.67561054 20.40517782 -8.34025934 18.79883156 -10 17.1875 C-10.928125 16.29417969 -11.85625 15.40085937 -12.8125 14.48046875 C-15 12 -15 12 -15 9 C-13.50146484 8.15115234 -13.50146484 8.15115234 -11.97265625 7.28515625 C-10.66922254 6.5443558 -9.36583975 5.80346575 -8.0625 5.0625 C-7.40314453 4.68931641 -6.74378906 4.31613281 -6.06445312 3.93164062 C-2.84167167 2.23037187 -2.84167167 2.23037187 0 0 Z " fill="#21F8F7" transform="translate(652,58)"/>
<path d="M0 0 C4.39381209 0.50214995 6.83419795 1.92213689 10 5 C11.44008983 8.18877034 10.83237679 10.67049285 10 14 C9.34 14 8.68 14 8 14 C7.731875 14.61875 7.46375 15.2375 7.1875 15.875 C6 18 6 18 3 20 C0.3125 20.125 0.3125 20.125 -2 20 C-2 19.34 -2 18.68 -2 18 C-0.00669158 16.65668346 1.99384866 15.32405988 4 14 C6.14762184 10.77856724 6.561068 9.7404533 6 6 C4.05990478 4.29467677 4.05990478 4.29467677 2 3 C2 2.34 2 1.68 2 1 C1.34 0.67 0.68 0.34 0 0 Z " fill="#19FAF8" transform="translate(885,97)"/>
<path d="M0 0 C0.33 0 0.66 0 1 0 C1.5391752 13.07499858 0.14473846 23.56578462 -4 36 C-4.99 36 -5.98 36 -7 36 C-6.731875 34.783125 -6.46375 33.56625 -6.1875 32.3125 C-6.00574219 31.4875 -5.82398438 30.6625 -5.63671875 29.8125 C-5.19724113 27.87124918 -4.74040945 25.9338741 -4.26953125 24 C-2.34972697 16.04791728 -1.03394022 8.11338976 0 0 Z " fill="#CB3155" transform="translate(749,62)"/>
<path d="M0 0 C-2 3 -2 3 -4.2421875 3.66015625 C-5.54542969 3.85931641 -5.54542969 3.85931641 -6.875 4.0625 C-10.33881307 4.60533638 -12.88522927 5.42958212 -16 7 C-16.99 7 -17.98 7 -19 7 C-22.15707227 7.67748973 -22.15707227 7.67748973 -23.2734375 10.28515625 C-24.28456726 12.83449406 -25.19159748 15.37982476 -26 18 C-27.32 18 -28.64 18 -30 18 C-29.38655243 16.31301918 -28.70286303 14.65172812 -28 13 C-27.525625 11.824375 -27.05125 10.64875 -26.5625 9.4375 C-23.60506305 4.38795025 -18.33178412 3.49097571 -13 2 C-11.9790625 1.68933594 -10.958125 1.37867188 -9.90625 1.05859375 C-2.32929104 -1.16464552 -2.32929104 -1.16464552 0 0 Z " fill="#CB153A" transform="translate(633,9)"/>
<path d="M0 0 C-0.928125 0.53625 -1.85625 1.0725 -2.8125 1.625 C-6.3083961 4.22978533 -7.65365628 5.87682237 -9 10 C-8.45981189 12.81172873 -8.45981189 12.81172873 -7 15 C-6.34 15.33 -5.68 15.66 -5 16 C-5 16.66 -5 17.32 -5 18 C-10.36170213 17.40425532 -10.36170213 17.40425532 -12.875 15.8125 C-14.62424521 12.99427161 -14.51128619 11.25944943 -14 8 C-10.72818669 3.09228003 -6.37517934 -2.12505978 0 0 Z " fill="#28F8F7" transform="translate(592,45)"/>
<path d="M0 0 C1.2375 0.495 1.2375 0.495 2.5 1 C7.74931247 2.49980356 12.33727452 2.24462273 17.6640625 1.4609375 C22.32556367 0.8583532 26.82453475 1.10625775 31.5 1.4375 C32.32242188 1.48970703 33.14484375 1.54191406 33.9921875 1.59570312 C35.99522899 1.72380462 37.99768871 1.86095061 40 2 C40 2.66 40 3.32 40 4 C35.10742766 4.19288209 30.21461659 4.37150301 25.32104492 4.53710938 C23.65749264 4.59539442 21.99407044 4.65752784 20.33081055 4.72363281 C17.93562514 4.81815134 15.54030817 4.89867526 13.14453125 4.9765625 C12.4047554 5.00875885 11.66497955 5.0409552 10.90278625 5.0741272 C6.78082116 5.19285022 3.70181358 4.86202812 0 3 C0 2.01 0 1.02 0 0 Z " fill="#C4D0D7" transform="translate(376,81)"/>
<path d="M0 0 C0.99 0.33 1.98 0.66 3 1 C4.13879395 5.90209317 3.71241384 9.49936532 2.5625 14.375 C2.27503906 15.62023437 1.98757813 16.86546875 1.69140625 18.1484375 C1.46324219 19.08945313 1.23507812 20.03046875 1 21 C-0.32 20.67 -1.64 20.34 -3 20 C-2.68955976 17.60388361 -2.37671642 15.20812165 -2.0625 12.8125 C-1.97548828 12.13896484 -1.88847656 11.46542969 -1.79882812 10.77148438 C-1.32174523 7.14918834 -0.76987965 3.57196415 0 0 Z " fill="#21FAF9" transform="translate(623,78)"/>
<path d="M0 0 C0.66 0.33 1.32 0.66 2 1 C1.62746094 1.50789063 1.25492188 2.01578125 0.87109375 2.5390625 C-2.24374156 7.04747928 -2.24374156 7.04747928 -3.0625 12.375 C-2.23770511 15.12114799 -2.23770511 15.12114799 0.0625 16.375 C0.701875 16.58125 1.34125 16.7875 2 17 C2 17.66 2 18.32 2 19 C-4.30162703 18.40550688 -4.30162703 18.40550688 -6.9375 16.875 C-8.70590549 13.75428442 -8.47628428 11.5125966 -8 8 C-5.95358139 4.55009889 -3.33618138 2.22412092 0 0 Z " fill="#1BFBF9" transform="translate(148,61)"/>
<path d="M0 0 C0.66 0 1.32 0 2 0 C-0.75162653 6.50384452 -5.16098171 10.33630225 -11 14 C-13.07011377 15.62539351 -15.12734562 17.26349851 -17.16796875 18.92578125 C-18.07482422 19.45751953 -18.07482422 19.45751953 -19 20 C-19.99 19.67 -20.98 19.34 -22 19 C-15.87029433 13.37556291 -9.62236223 7.9768312 -3.15234375 2.75 C-1.14403815 1.17822462 -1.14403815 1.17822462 0 0 Z " fill="#2AF6F5" transform="translate(695,57)"/>
<path d="M0 0 C-3 2 -3 2 -6 3 C-6.11320856 8.08303686 -6.11320856 8.08303686 -5 13 C-4.93259135 14.56118428 -4.91485544 16.1250252 -4.9375 17.6875 C-4.94652344 18.49574219 -4.95554687 19.30398437 -4.96484375 20.13671875 C-4.97644531 20.75160156 -4.98804688 21.36648437 -5 22 C-5.99 22 -6.98 22 -8 22 C-9.72330907 14.90673679 -10.2494783 8.29031024 -10 1 C-6.58389775 0.05685873 -3.54865136 -0.08065117 0 0 Z " fill="#CF1F45" transform="translate(526,13)"/>
<path d="M0 0 C-1.59812499 1.75793749 -2.80497411 2.91467617 -5 3.875 C-7.794266 5.44677462 -8.71476193 7.09130333 -10 10 C-9.74756206 13.5341312 -8.99789249 15.00316126 -7 18 C-9.62655933 17.64505955 -11.57968261 17.27538036 -13.8125 15.8125 C-15 14 -15 14 -15.6875 11.25 C-14.62447166 6.22477512 -11.03149915 3.93862287 -7 1 C-4.53721199 -0.231394 -2.7204945 -0.07159196 0 0 Z " fill="#18FBF9" transform="translate(800,62)"/>
<path d="M0 0 C1.32 0 2.64 0 4 0 C3.51679152 6.2054142 2.66681876 11.99945246 1 18 C-0.32 18 -1.64 18 -3 18 C-3.42765417 11.58518742 -1.85743168 6.11404596 0 0 Z " fill="#21FBF9" transform="translate(461,29)"/>
<path d="M0 0 C-1.1446875 0.556875 -1.1446875 0.556875 -2.3125 1.125 C-5.65188234 3.45480163 -6.67177231 5.16289777 -8 9 C-7.78384744 12.77376551 -7.78384744 12.77376551 -7 16 C-6.01 16.33 -5.02 16.66 -4 17 C-5.6875 17.75 -5.6875 17.75 -8 18 C-10.75 16.4375 -10.75 16.4375 -13 14 C-13.625 11.125 -13.625 11.125 -13 8 C-9.79982822 3.33689255 -6.01931772 -2.00643924 0 0 Z " fill="#26F9F8" transform="translate(403,43)"/>
<path d="M0 0 C4.96029705 4.20546924 9.80814573 8.51777318 14.625 12.88671875 C16.56512039 14.61304298 18.53143481 16.25893611 20.5625 17.875 C23 20 23 20 24 23 C19.83258477 21.60838098 17.20583337 19.66792321 14 16.6875 C13.13117187 15.883125 12.26234375 15.07875 11.3671875 14.25 C8.8648847 11.87157358 6.40538585 9.47613249 4 7 C3.236875 6.29875 2.47375 5.5975 1.6875 4.875 C0 3 0 3 0 0 Z " fill="#C31D44" transform="translate(626,80)"/>
<path d="M0 0 C5.291375 0.4150098 8.26339044 1.16240099 12 5 C14.95305685 8.77803782 16.06048307 11.04739171 15.75 15.9375 C15.37875 17.4534375 15.37875 17.4534375 15 19 C14.34 19 13.68 19 13 19 C12.85304688 18.43152344 12.70609375 17.86304687 12.5546875 17.27734375 C10.36857609 9.75159239 6.62969026 4.33479748 0 0 Z " fill="#1FFBF9" transform="translate(758,46)"/>
<path d="M0 0 C0.66 0.66 1.32 1.32 2 2 C1.319375 1.95359375 0.63875 1.9071875 -0.0625 1.859375 C-7.31993036 1.58915153 -13.54965021 2.61783769 -20.47851562 4.57714844 C-24.08712306 5.58835162 -27.24662542 6.23142194 -31 6 C-28.46565228 2.19847843 -27.19657578 2.24876025 -22.8125 1.3125 C-15.24971324 -0.17346637 -7.69613763 -0.77565785 0 0 Z " fill="#2CFAF8" transform="translate(905,61)"/>
<path d="M0 0 C0.66 0 1.32 0 2 0 C2 3 2 3 0.1875 5.4375 C-5.33623494 10.57223952 -12.84763597 12.24052921 -20.1875 12.25 C-21.79259941 12.18714296 -23.39755048 12.11158256 -25 12 C-25 11.67 -25 11.34 -25 11 C-24.02160156 10.78085938 -23.04320312 10.56171875 -22.03515625 10.3359375 C-13.74438589 8.3695504 -6.22823102 6.22823102 0 0 Z " fill="#2CFAF8" transform="translate(805,91)"/>
<path d="M0 0 C6.41443089 0.51315447 10.38879954 2.30175952 14.875 6.9375 C16.2451313 9.44940739 16.23497727 11.18027277 16 14 C15.01 14.33 14.02 14.66 13 15 C12.484375 13.96875 11.96875 12.9375 11.4375 11.875 C9.03208743 7.62457563 5.77309636 5.00174907 2 2 C1.34 1.34 0.68 0.68 0 0 Z " fill="#1DF6F5" transform="translate(362,33)"/>
<path d="M0 0 C3.93593186 0.92117554 7.01710745 2.24656072 10 5 C10 5.66 10 6.32 10 7 C10.99 7.33 11.98 7.66 13 8 C13.33 9.98 13.66 11.96 14 14 C13.01 14 12.02 14 11 14 C10.2265625 12.700625 10.2265625 12.700625 9.4375 11.375 C6.60526308 6.67326282 1.70221059 4.53057898 -3 2 C-2.01 1.34 -1.02 0.68 0 0 Z " fill="#1AF9F8" transform="translate(113,54)"/>
<path d="M0 0 C2.2476599 3.37148985 2.79798837 5.9237222 3.625 9.875 C3.88539062 11.08929688 4.14578125 12.30359375 4.4140625 13.5546875 C4.91001844 16.47090842 5.12312593 19.05617097 5 22 C4.01 22 3.02 22 2 22 C1.49255577 20.10614563 0.99435426 18.20981334 0.5 16.3125 C0.2215625 15.25675781 -0.056875 14.20101562 -0.34375 13.11328125 C-0.94200035 10.27515312 -1.20792468 7.88495495 -1 5 C-0.67 4.67 -0.34 4.34 0 4 C0 2.68 0 1.36 0 0 Z " fill="#D12B50" transform="translate(17,108)"/>
<path d="M0 0 C0.33 0.66 0.66 1.32 1 2 C0.030625 2.61875 -0.93875 3.2375 -1.9375 3.875 C-5.02835362 5.65678846 -5.02835362 5.65678846 -6 8 C-6.46588282 13.88165736 -6.46588282 13.88165736 -4 19 C-5.32 19 -6.64 19 -8 19 C-11 12.375 -11 12.375 -11 9 C-10.34 9 -9.68 9 -9 9 C-8.9175 8.236875 -8.835 7.47375 -8.75 6.6875 C-7.83456067 3.40717573 -6.91528755 2.6658786 -4 1 C-1.75 0.3125 -1.75 0.3125 0 0 Z " fill="#CD143D" transform="translate(880,96)"/>
<path d="M0 0 C0.33 0 0.66 0 1 0 C0.52087184 8.24430867 -0.97785501 16.00044527 -3 24 C-3.66 24 -4.32 24 -5 24 C-5.31858677 15.23886391 -3.71206459 7.9303198 0 0 Z " fill="#CC173F" transform="translate(603,73)"/>
<path d="M0 0 C0.66 0 1.32 0 2 0 C0.68786941 3.93639176 -0.82801522 4.28653597 -4.4375 6.1875 C-5.42621094 6.71730469 -6.41492188 7.24710938 -7.43359375 7.79296875 C-10 9 -10 9 -12 9 C-12.12375 9.78375 -12.2475 10.5675 -12.375 11.375 C-13 14 -13 14 -15 16 C-17.125 15.625 -17.125 15.625 -19 15 C-18.2884375 14.1028125 -18.2884375 14.1028125 -17.5625 13.1875 C-15.83534256 10.99617076 -15.83534256 10.99617076 -15 8 C-12.67660293 6.66985518 -10.4191372 5.49885114 -8 4.375 C-3.71145898 2.60096371 -3.71145898 2.60096371 0 0 Z " fill="#CD1A3F" transform="translate(465,52)"/>
<path d="M0 0 C0 0.66 0 1.32 0 2 C-0.886875 2.309375 -1.77375 2.61875 -2.6875 2.9375 C-6.71161339 5.44308003 -7.89506931 7.86384277 -9.921875 12.0390625 C-11 14 -11 14 -13 15 C-13.45675183 9.29060212 -12.62105556 6.44872541 -9 2 C-5.5647952 -0.29013653 -4.014669 -0.17842973 0 0 Z " fill="#1BF8F7" transform="translate(677,56)"/>
<path d="M0 0 C0.66 0.33 1.32 0.66 2 1 C0.56835889 4.65938172 -0.98934296 8.23988068 -2.625 11.8125 C-3.29402344 13.27623047 -3.29402344 13.27623047 -3.9765625 14.76953125 C-4.48316406 15.87361328 -4.48316406 15.87361328 -5 17 C-4.01 17.66 -3.02 18.32 -2 19 C-3.98 19 -5.96 19 -8 19 C-9 16 -9 16 -7.63671875 12.71484375 C-6.99723053 11.45049179 -6.3470358 10.191511 -5.6875 8.9375 C-5.36587891 8.30005859 -5.04425781 7.66261719 -4.71289062 7.00585938 C-3.34284151 4.33609221 -2.13406982 2.13406982 0 0 Z " fill="#CD173F" transform="translate(182,76)"/>
<path d="M0 0 C0.99 0 1.98 0 3 0 C3.90636294 4.93464265 4.24835939 9.1025901 3 14 C0.94921875 15.19921875 0.94921875 15.19921875 -1 16 C-1.09688221 10.55306686 -1.12862175 5.36095333 0 0 Z " fill="#1DFBF9" transform="translate(653,88)"/>
<path d="M0 0 C-3 2 -3 2 -5 3 C-5.68931344 5.34907875 -5.68931344 5.34907875 -6.125 8.0625 C-6.29257812 8.98160156 -6.46015625 9.90070312 -6.6328125 10.84765625 C-6.75398437 11.55792969 -6.87515625 12.26820312 -7 13 C-7.99 13.33 -8.98 13.66 -10 14 C-10 9.71 -10 5.42 -10 1 C-6.78548731 -0.60725635 -3.56387464 -0.05748185 0 0 Z " fill="#22F9F7" transform="translate(554,26)"/>
<path d="M0 0 C0.66 0.33 1.32 0.66 2 1 C1.67 3.31 1.34 5.62 1 8 C1.66 8 2.32 8 3 8 C2.67 10.97 2.34 13.94 2 17 C1.01 16.67 0.02 16.34 -1 16 C-0.95875 15.071875 -0.9175 14.14375 -0.875 13.1875 C-0.72863661 9.84190281 -0.72863661 9.84190281 -3 7 C-2.6758631 3.67759676 -2.39223697 2.39223697 0 0 Z " fill="#CE3053" transform="translate(399,44)"/>
<path d="M0 0 C0.33 0 0.66 0 1 0 C1 8.25 1 16.5 1 25 C0.34 25.33 -0.32 25.66 -1 26 C-2.31001219 17.55769919 -2.73056837 8.1917051 0 0 Z " fill="#CF1B3F" transform="translate(72,88)"/>
<path d="M0 0 C0.99 0 1.98 0 3 0 C2.34 5.94 1.68 11.88 1 18 C0.01 18 -0.98 18 -2 18 C-2.23268915 11.71739294 -1.40454548 6.11980533 0 0 Z " fill="#D0234A" transform="translate(268,18)"/>
<path d="M0 0 C10.23481648 -0.8722855 18.50111344 1.62476112 28 5 C24.17244494 6.41064683 21.32817163 5.57267197 17.4375 4.625 C11.28280437 3.21360907 5.29768528 2.37272015 -1 2 C-0.67 1.34 -0.34 0.68 0 0 Z " fill="#46FBF9" transform="translate(208,39)"/>
<path d="M0 0 C1.85772162 0.08984301 3.71247985 0.24611861 5.5625 0.4375 C7.08037109 0.59025391 7.08037109 0.59025391 8.62890625 0.74609375 C9.80259766 0.87177734 9.80259766 0.87177734 11 1 C11 1.33 11 1.66 11 2 C8.03 2 5.06 2 2 2 C2 6.29 2 10.58 2 15 C1.01 15 0.02 15 -1 15 C-1.02685412 12.68756208 -1.04632841 10.3750373 -1.0625 8.0625 C-1.07410156 6.77472656 -1.08570313 5.48695312 -1.09765625 4.16015625 C-1 1 -1 1 0 0 Z " fill="#CF2248" transform="translate(877,75)"/>
<path d="M0 0 C0.66 0 1.32 0 2 0 C2.22731216 6.93302093 1.42002108 13.2168636 0 20 C-2.75992564 15.14822595 -2.68988832 10.2591276 -1.546875 4.859375 C-1.08163776 3.2243984 -0.54780999 1.60919185 0 0 Z " fill="#CE143C" transform="translate(322,31)"/>
<path d="M0 0 C0.33 0 0.66 0 1 0 C1.05392397 2.77109307 1.09363455 5.54113818 1.125 8.3125 C1.15013672 9.49102539 1.15013672 9.49102539 1.17578125 10.69335938 C1.18222656 11.45068359 1.18867187 12.20800781 1.1953125 12.98828125 C1.21102295 14.03302612 1.21102295 14.03302612 1.22705078 15.09887695 C1 17 1 17 -1 20 C-2.4706777 17.0586446 -2.17048999 14.39772595 -2.1875 11.125 C-2.20167969 9.89007813 -2.21585938 8.65515625 -2.23046875 7.3828125 C-2.01765455 4.25913288 -1.65237226 2.59938404 0 0 Z " fill="#CC1A41" transform="translate(47,56)"/>
<path d="M0 0 C0.33 0.66 0.66 1.32 1 2 C-0.27875 2.2475 -1.5575 2.495 -2.875 2.75 C-6.19678669 3.47168685 -6.19678669 3.47168685 -8.3125 6 C-8.6528125 6.99 -8.6528125 6.99 -9 8 C-9.99 8.66 -10.98 9.32 -12 10 C-10.125 4.25 -10.125 4.25 -9 2 C-6.93359375 1.3671875 -6.93359375 1.3671875 -4.4375 0.875 C-3.61121094 0.70742188 -2.78492188 0.53984375 -1.93359375 0.3671875 C-0.97646484 0.18542969 -0.97646484 0.18542969 0 0 Z M-23 8 C-22.67 8.66 -22.34 9.32 -22 10 C-18.7 10 -15.4 10 -12 10 C-12.33 10.66 -12.66 11.32 -13 12 C-20.75 12.125 -20.75 12.125 -23 11 C-23 10.01 -23 9.02 -23 8 Z " fill="#E3BDC8" transform="translate(198,40)"/>
<path d="M0 0 C0.66 0 1.32 0 2 0 C2.02709444 2.08326131 2.04643873 4.16662441 2.0625 6.25 C2.07410156 7.41015625 2.08570313 8.5703125 2.09765625 9.765625 C2.01782092 12.40977128 1.78643778 14.49826091 1 17 C0.01 16.67 -0.98 16.34 -2 16 C-1.34 10.72 -0.68 5.44 0 0 Z " fill="#CC113A" transform="translate(353,69)"/>
<path d="M0 0 C0.99 0 1.98 0 3 0 C2.690625 0.928125 2.38125 1.85625 2.0625 2.8125 C0.6216844 7.77871546 0.35305964 12.86205306 0 18 C-0.66 17.67 -1.32 17.34 -2 17 C-3.84978534 10.64397067 -2.67073825 5.87562416 0 0 Z " fill="#CC1039" transform="translate(180,51)"/>
<path d="M0 0 C-2.35878975 2.35878975 -4.16665761 2.87753416 -7.3125 3.9375 C-11.22381089 5.25549971 -14.47389215 6.86976961 -18 9 C-18.66 9 -19.32 9 -20 9 C-20 8.01 -20 7.02 -20 6 C-18.23002526 5.18563132 -16.45898848 4.3735706 -14.6875 3.5625 C-13.70136719 3.11003906 -12.71523438 2.65757813 -11.69921875 2.19140625 C-7.54909533 0.35958622 -4.51490235 -0.10033116 0 0 Z " fill="#CB2143" transform="translate(794,53)"/>
<path d="M0 0 C-0.73605469 0.43570313 -1.47210938 0.87140625 -2.23046875 1.3203125 C-7.7885046 4.71240307 -12.22537428 7.66346019 -16 13 C-16.33 11.68 -16.66 10.36 -17 9 C-16.0409375 8.5978125 -16.0409375 8.5978125 -15.0625 8.1875 C-12.66868314 7.11332248 -12.66868314 7.11332248 -12 4 C-9.9375 3.3125 -9.9375 3.3125 -8 3 C-8 2.34 -8 1.68 -8 1 C-3.375 -1.125 -3.375 -1.125 0 0 Z " fill="#CF1F44" transform="translate(144,54)"/>
<path d="M0 0 C0.99 0.33 1.98 0.66 3 1 C3.09038099 6.15171623 2.84681133 10.91913204 2 16 C1.01 15.34 0.02 14.68 -1 14 C-0.67 9.38 -0.34 4.76 0 0 Z " fill="#1FE9EB" transform="translate(746,60)"/>
<path d="M0 0 C3.74887713 -0.10471724 5.26572909 -0.00904519 8.47265625 2.12890625 C-0.54548696 3.27406729 -9.45540855 3.22362483 -18.52734375 3.12890625 C-13.15573884 -0.45216369 -6.31540415 0.32211489 0 0 Z " fill="#D2485F" transform="translate(897.52734375,41.87109375)"/>
<path d="M0 0 C-0.31146472 1.89600369 -0.62421717 3.79179587 -0.9375 5.6875 C-1.11152344 6.74324219 -1.28554688 7.79898438 -1.46484375 8.88671875 C-1.93167121 11.60249604 -2.44422616 14.30124235 -3 17 C-3.66 16.67 -4.32 16.34 -5 16 C-5.08970351 10.88689982 -5.0283474 6.03890228 -4 1 C-2 0 -2 0 0 0 Z " fill="#C62249" transform="translate(613,26)"/>
<path d="M0 0 C0.33 0 0.66 0 1 0 C1 5.61 1 11.22 1 17 C0.01 16.67 -0.98 16.34 -2 16 C-2.05423638 14.08364783 -2.09289963 12.16685075 -2.125 10.25 C-2.14820313 9.18265625 -2.17140625 8.1153125 -2.1953125 7.015625 C-2.00487687 4.07529894 -1.52670104 2.47638122 0 0 Z " fill="#C92046" transform="translate(723,62)"/>
<path d="M0 0 C0.99 0.33 1.98 0.66 3 1 C2.34 4.63 1.68 8.26 1 12 C-0.32 12.33 -1.64 12.66 -3 13 C-2.343621 8.51474352 -1.29925791 4.33085971 0 0 Z " fill="#24FAF8" transform="translate(39,114)"/>
<path d="M0 0 C-0.33 0.66 -0.66 1.32 -1 2 C-3.64 2 -6.28 2 -9 2 C-9 2.99 -9 3.98 -9 5 C-15.625 8 -15.625 8 -19 8 C-19 7.34 -19 6.68 -19 6 C-17.865625 5.731875 -16.73125 5.46375 -15.5625 5.1875 C-14.386875 4.795625 -13.21125 4.40375 -12 4 C-11.67 3.01 -11.34 2.02 -11 1 C-9.00390625 0.234375 -9.00390625 0.234375 -6.5625 -0.25 C-5.75941406 -0.42015625 -4.95632813 -0.5903125 -4.12890625 -0.765625 C-2 -1 -2 -1 0 0 Z " fill="#CE2C4C" transform="translate(423,26)"/>
<path d="M0 0 C0.99 0.33 1.98 0.66 3 1 C-2.94 6.445 -2.94 6.445 -9 12 C-9.33 11.01 -9.66 10.02 -10 9 C-7.37573702 4.90614975 -4.23895546 2.34495408 0 0 Z " fill="#CC2347" transform="translate(677,57)"/>
<path d="M0 0 C7.84966639 -0.24919576 14.97120402 0.24077878 22 4 C18.88925167 4.9867097 16.83557243 4.96838493 13.671875 4.22265625 C12.87265625 4.03896484 12.0734375 3.85527344 11.25 3.66601562 C10.425 3.46685547 9.6 3.26769531 8.75 3.0625 C7.90953125 2.86720703 7.0690625 2.67191406 6.203125 2.47070312 C4.13351102 1.98857714 2.06648605 1.49536137 0 1 C0 0.67 0 0.34 0 0 Z " fill="#CC3C55" transform="translate(208,57)"/>
<path d="M0 0 C2.60444348 -0.05394705 5.20776998 -0.09364469 7.8125 -0.125 C8.55048828 -0.14175781 9.28847656 -0.15851562 10.04882812 -0.17578125 C13.91246426 -0.21074628 15.70903668 -0.19397555 19 2 C18.43152344 2.06058594 17.86304688 2.12117188 17.27734375 2.18359375 C13.54816435 2.58826263 9.83791491 3.02352848 6.125 3.5625 C3 4 3 4 0 4 C0 2.68 0 1.36 0 0 Z " fill="#D67184" transform="translate(814,55)"/>
<path d="M0 0 C1.43836751 0.11458693 2.87570966 0.24209116 4.3125 0.375 C5.51326172 0.47941406 5.51326172 0.47941406 6.73828125 0.5859375 C9 1 9 1 12 3 C13.61785127 5.63965207 14 6.84012675 14 10 C13.34 10 12.68 10 12 10 C11.938125 9.38125 11.87625 8.7625 11.8125 8.125 C11.19631581 5.78707755 11.19631581 5.78707755 8.8125 4.9375 C7.4203125 4.4734375 7.4203125 4.4734375 6 4 C3.99248185 3.01517978 1.99065541 2.01847486 0 1 C0 0.67 0 0.34 0 0 Z " fill="#2FFBF9" transform="translate(596,36)"/>
<path d="M0 0 C0.33 0 0.66 0 1 0 C1.05449838 1.72880982 1.09301688 3.45812712 1.125 5.1875 C1.14820313 6.15042969 1.17140625 7.11335938 1.1953125 8.10546875 C0.9913544 11.12812778 0.26874632 13.26769985 -1 16 C-1.99 16 -2.98 16 -4 16 C-2.84941444 10.60204011 -1.57578241 5.29012667 0 0 Z " fill="#D2143A" transform="translate(746,82)"/>
<path d="M0 0 C0.33 0 0.66 0 1 0 C1 5.61 1 11.22 1 17 C0.34 17.33 -0.32 17.66 -1 18 C-3.13821138 4.90345528 -3.13821138 4.90345528 0 0 Z " fill="#CB0C37" transform="translate(106,91)"/>
<path d="M0 0 C-1.26540052 3.79620155 -2.78218431 4.48678188 -6.0625 6.6875 C-6.98160156 7.31011719 -7.90070312 7.93273437 -8.84765625 8.57421875 C-9.91306641 9.27998047 -9.91306641 9.27998047 -11 10 C-12.32 9.34 -13.64 8.68 -15 8 C-12.8782637 6.66121428 -10.75294812 5.32884524 -8.625 4 C-8.02171875 3.6184375 -7.4184375 3.236875 -6.796875 2.84375 C-2.2265625 0 -2.2265625 0 0 0 Z " fill="#37F4F3" transform="translate(654,58)"/>
<path d="M0 0 C0.66 0 1.32 0 2 0 C1.34 8.25 0.68 16.5 0 25 C-0.33 25 -0.66 25 -1 25 C-2.37323944 8.96478873 -2.37323944 8.96478873 -1 1 C-0.67 0.67 -0.34 0.34 0 0 Z " fill="#D63D5E" transform="translate(425,46)"/>
<path d="M0 0 C0.66 0.33 1.32 0.66 2 1 C2.08074203 3.62561109 2.1403623 6.24875676 2.1875 8.875 C2.22520508 9.99455078 2.22520508 9.99455078 2.26367188 11.13671875 C2.29296875 13.3046875 2.29296875 13.3046875 2 17 C1.01 17.66 0.02 18.32 -1 19 C-1.02714735 16.77090129 -1.04646254 14.54170633 -1.0625 12.3125 C-1.07990234 10.45044922 -1.07990234 10.45044922 -1.09765625 8.55078125 C-1.01478673 5.53764546 -0.70839449 2.91724661 0 0 Z " fill="#CF0A32" transform="translate(319,52)"/>
<path d="M0 0 C-3.90057275 1.98450192 -7.77212778 3.94151158 -11.8125 5.625 C-15.07037644 6.91708792 -15.07037644 6.91708792 -18 9 C-17.8046875 7.16796875 -17.8046875 7.16796875 -17 5 C-14.8203125 3.55078125 -14.8203125 3.55078125 -12.125 2.3125 C-11.24070312 1.89613281 -10.35640625 1.47976562 -9.4453125 1.05078125 C-5.76297397 -0.5315655 -3.83223001 -1.18931276 0 0 Z " fill="#D02C4C" transform="translate(587,36)"/>
<path d="M0 0 C0.33 0 0.66 0 1 0 C0.67 8.91 0.34 17.82 0 27 C-0.33 27 -0.66 27 -1 27 C-1.02505615 26.40461426 -1.0501123 25.80922852 -1.07592773 25.19580078 C-1.19177494 22.50530864 -1.31455196 19.8151766 -1.4375 17.125 C-1.47681641 16.18785156 -1.51613281 15.25070313 -1.55664062 14.28515625 C-1.59853516 13.38925781 -1.64042969 12.49335937 -1.68359375 11.5703125 C-1.73858032 10.32918701 -1.73858032 10.32918701 -1.79467773 9.06298828 C-1.88238327 6.93820571 -1.88238327 6.93820571 -3 5 C-2.18789963 3.08576342 -1.47927983 1.47927983 0 0 Z " fill="#DD627D" transform="translate(322,46)"/>
<path d="M0 0 C-0.66 0 -1.32 0 -2 0 C-2 0.66 -2 1.32 -2 2 C-4.28779038 3.03040167 -6.57951136 4.04952018 -8.875 5.0625 C-9.85146484 5.50432617 -9.85146484 5.50432617 -10.84765625 5.95507812 C-12.54010541 6.69661513 -14.26868575 7.35439001 -16 8 C-16.66 7.67 -17.32 7.34 -18 7 C-17.01 6.67 -16.02 6.34 -15 6 C-15 5.34 -15 4.68 -15 4 C-13.06767179 3.13419713 -11.12892806 2.28270059 -9.1875 1.4375 C-8.10855469 0.96183594 -7.02960938 0.48617188 -5.91796875 -0.00390625 C-3 -1 -3 -1 0 0 Z " fill="#D23A57" transform="translate(450,2)"/>
<path d="M0 0 C1.78409802 3.06246747 2.22880021 5.22079273 2.125 8.75 C2.10695312 9.54921875 2.08890625 10.3484375 2.0703125 11.171875 C2.03550781 12.07679687 2.03550781 12.07679687 2 13 C2.66 13.33 3.32 13.66 4 14 C2.68 14 1.36 14 0 14 C-2.27571116 5.96498906 -2.27571116 5.96498906 -1.125 1.9375 C-0.75375 1.298125 -0.3825 0.65875 0 0 Z " fill="#D0274B" transform="translate(173,38)"/>
<path d="M0 0 C-2 3 -2 3 -4.2421875 3.66015625 C-5.54542969 3.85931641 -5.54542969 3.85931641 -6.875 4.0625 C-10.33646229 4.60496797 -12.88650806 5.4298914 -16 7 C-18.25 6.625 -18.25 6.625 -20 6 C-17.69 5.34 -15.38 4.68 -13 4 C-13 3.34 -13 2.68 -13 2 C-11.21089097 1.47044766 -9.41860852 0.9516063 -7.625 0.4375 C-6.62726562 0.14746094 -5.62953125 -0.14257812 -4.6015625 -0.44140625 C-2 -1 -2 -1 0 0 Z " fill="#D8506A" transform="translate(633,9)"/>
<path d="M0 0 C3.95904503 0.76795035 7.88440841 1.64991306 11.8125 2.5625 C13.55466797 2.96662109 13.55466797 2.96662109 15.33203125 3.37890625 C16.21246094 3.58386719 17.09289062 3.78882812 18 4 C18 4.33 18 4.66 18 5 C11.64012196 5.20190089 6.14778871 4.6277833 0 3 C0 2.01 0 1.02 0 0 Z " fill="#17FBF9" transform="translate(187,76)"/>
<path d="M0 0 C1 3 1 3 0.1796875 5.0078125 C-3.37624698 10.77822115 -3.37624698 10.77822115 -6.8125 12 C-7.534375 12 -8.25625 12 -9 12 C-8.401875 11.278125 -7.80375 10.55625 -7.1875 9.8125 C-5.2242398 7.28830832 -3.6304801 4.74217108 -2 2 C-1.34 1.34 -0.68 0.68 0 0 Z " fill="#C9274A" transform="translate(159,67)"/>
<path d="M0 0 C0.33 0.66 0.66 1.32 1 2 C0.27148496 3.68883032 -0.46171526 5.37597701 -1.23046875 7.046875 C-2.37832713 9.96022114 -2.6838822 12.90204561 -3 16 C-3.66 15.67 -4.32 15.34 -5 15 C-5.27338445 9.62343913 -5.38994303 6.43300242 -2 2 C-1.34 1.34 -0.68 0.68 0 0 Z " fill="#CA173F" transform="translate(651,61)"/>
<path d="M0 0 C0.99 0.66 1.98 1.32 3 2 C0.87717331 3.00460531 -1.24833021 4.00355602 -3.375 5 C-5.15003906 5.8353125 -5.15003906 5.8353125 -6.9609375 6.6875 C-10 8 -10 8 -12 8 C-11 5 -11 5 -8.6015625 3.54296875 C-7.61929688 3.09566406 -6.63703125 2.64835937 -5.625 2.1875 C-4.15933594 1.49720703 -4.15933594 1.49720703 -2.6640625 0.79296875 C-1.78492188 0.53128906 -0.90578125 0.26960938 0 0 Z " fill="#CF274A" transform="translate(671,43)"/>
<path d="M0 0 C-0.66 0.66 -1.32 1.32 -2 2 C-3.32 2 -4.64 2 -6 2 C-6 8.27 -6 14.54 -6 21 C-6.33 21 -6.66 21 -7 21 C-7 14.07 -7 7.14 -7 0 C-3.86650268 -1.04449911 -3.01031744 -0.93423645 0 0 Z " fill="#E17E90" transform="translate(879,45)"/>
<path d="M0 0 C0.99 0 1.98 0 3 0 C2.45015228 3.87511727 0.72444669 5.59576506 -2.0625 8.25 C-2.79597656 8.95640625 -3.52945313 9.6628125 -4.28515625 10.390625 C-4.85105469 10.92171875 -5.41695312 11.4528125 -6 12 C-6.33 11.01 -6.66 10.02 -7 9 C-6.21625 8.2575 -5.4325 7.515 -4.625 6.75 C-2.43495469 4.45566682 -1.17268614 2.87841142 0 0 Z " fill="#C51C42" transform="translate(554,26)"/>
<path d="M0 0 C0.66 0 1.32 0 2 0 C0.61166236 4.41743795 -1.39713352 7.0833938 -5 10 C-7.3125 9.8125 -7.3125 9.8125 -9 9 C-8.2575 8.443125 -7.515 7.88625 -6.75 7.3125 C-3.92455792 5.09173001 -3.92455792 5.09173001 -1.8125 2.25 C-1.214375 1.5075 -0.61625 0.765 0 0 Z " fill="#C6264B" transform="translate(596,53)"/>
<path d="M0 0 C0.81210937 0.33837891 0.81210937 0.33837891 1.640625 0.68359375 C-2.0184922 4.02452684 -6.58019042 5.61335164 -11.359375 6.68359375 C-12.019375 6.35359375 -12.679375 6.02359375 -13.359375 5.68359375 C-11.61814951 4.64786479 -9.86600905 3.63046855 -8.109375 2.62109375 C-6.64757812 1.76837891 -6.64757812 1.76837891 -5.15625 0.8984375 C-2.359375 -0.31640625 -2.359375 -0.31640625 0 0 Z " fill="#D02748" transform="translate(644.359375,47.31640625)"/>
<path d="M0 0 C0.66 0 1.32 0 2 0 C2.10251672 5.12583611 2.03590199 9.94997778 1 15 C-0.55078125 13.359375 -0.55078125 13.359375 -2 11 C-1.85546875 8.203125 -1.85546875 8.203125 -1.1875 5.25 C-0.86845703 3.77273437 -0.86845703 3.77273437 -0.54296875 2.265625 C-0.36378906 1.51796875 -0.18460937 0.7703125 0 0 Z " fill="#23E1E4" transform="translate(422,47)"/>
<path d="M0 0 C0.66 0 1.32 0 2 0 C2 1.98 2 3.96 2 6 C-2.50353262 7.75747614 -6.17639811 8.19294408 -11 8 C-8.68877243 6.71598468 -7.02763657 6.00329007 -4.375 5.6875 C-3.199375 5.3471875 -3.199375 5.3471875 -2 5 C-0.62533375 2.52363988 -0.62533375 2.52363988 0 0 Z " fill="#CF4764" transform="translate(71,31)"/>
<path d="M0 0 C6.27 0.33 12.54 0.66 19 1 C19.33 1.99 19.66 2.98 20 4 C18.35 4 16.7 4 15 4 C15 3.34 15 2.68 15 2 C14.43539062 2.17144531 13.87078125 2.34289062 13.2890625 2.51953125 C10.80927158 3.04003344 8.88664023 2.96890451 6.375 2.6875 C5.59898437 2.60886719 4.82296875 2.53023438 4.0234375 2.44921875 C2 2 2 2 0 0 Z " fill="#C53651" transform="translate(193,76)"/>
<path d="M0 0 C0.66 0.33 1.32 0.66 2 1 C-2.77899344 7.70459519 -2.77899344 7.70459519 -7.875 8.9375 C-8.90625 8.958125 -9.9375 8.97875 -11 9 C-6.25 5 -6.25 5 -4 5 C-4 4.34 -4 3.68 -4 3 C-2 1.375 -2 1.375 0 0 Z " fill="#CB1F44" transform="translate(804,71)"/>
<path d="M0 0 C0.99 0.33 1.98 0.66 3 1 C2.25556641 1.45439453 2.25556641 1.45439453 1.49609375 1.91796875 C-3.14079214 4.77752836 -7.59822083 7.79036935 -12 11 C-11.64996937 8.16905053 -11.23218382 7.19401662 -9.00390625 5.33203125 C-7.79541016 4.57986328 -7.79541016 4.57986328 -6.5625 3.8125 C-5.75941406 3.30332031 -4.95632813 2.79414062 -4.12890625 2.26953125 C-2 1 -2 1 0 0 Z " fill="#CB1338" transform="translate(390,35)"/>
<path d="M0 0 C0 3 0 3 -1.75 5.0625 C-5.53024694 8.31771264 -7.98794724 9.27844738 -13 9 C-10.84164588 6.62513387 -8.84310913 5.27896814 -5.9375 3.9375 C-3.42181031 2.77100702 -1.98948974 1.98948974 0 0 Z " fill="#33FBF9" transform="translate(157,95)"/>
<path d="M0 0 C0.99 0 1.98 0 3 0 C4.42258812 3.82320557 5.24042276 6.91281305 5 11 C0.05973451 6.28429204 0.05973451 6.28429204 -0.125 2.3125 C-0.08375 1.549375 -0.0425 0.78625 0 0 Z " fill="#27F6F5" transform="translate(42,70)"/>
<path d="M0 0 C0.66 0.33 1.32 0.66 2 1 C1.34 1.66 0.68 2.32 0 3 C-0.28602162 7.14509433 -0.28602162 7.14509433 1 11 C-0.65 10.67 -2.3 10.34 -4 10 C-3.38461538 3.47692308 -3.38461538 3.47692308 -1.4375 1.0625 C-0.7259375 0.5365625 -0.7259375 0.5365625 0 0 Z " fill="#C73155" transform="translate(150,61)"/>
<path d="M0 0 C4.34156921 0.50095029 6.89846077 3.10523005 10 6 C10.33 6.99 10.66 7.98 11 9 C6.39860359 7.51131293 3.49772906 5.25370145 0 2 C0 1.34 0 0.68 0 0 Z " fill="#CD163F" transform="translate(639,94)"/>
<path d="M0 0 C2.27141109 0.11402064 4.54214552 0.24158505 6.8125 0.375 C8.07707031 0.44460937 9.34164062 0.51421875 10.64453125 0.5859375 C14 1 14 1 17 3 C13.12813552 4.44715727 10.1767672 3.5441918 6.25 2.5625 C5.07953125 2.27503906 3.9090625 1.98757812 2.703125 1.69140625 C1.81109375 1.46324219 0.9190625 1.23507813 0 1 C0 0.67 0 0.34 0 0 Z " fill="#CD314F" transform="translate(180,95)"/>
<path d="M0 0 C-3.68911962 4.05803159 -7.84409764 5.35948561 -13 7 C-9.10548524 1.71458711 -6.6563694 -0.3697983 0 0 Z " fill="#40E7E9" transform="translate(800,62)"/>
<path d="M0 0 C6.44082605 1.45830024 6.44082605 1.45830024 9 3.9375 C10 6 10 6 9 9 C8.51789062 8.57847656 8.03578125 8.15695313 7.5390625 7.72265625 C6.90742187 7.17480469 6.27578125 6.62695312 5.625 6.0625 C4.99851562 5.51722656 4.37203125 4.97195312 3.7265625 4.41015625 C2.04367666 2.93041376 2.04367666 2.93041376 0 2 C0 1.34 0 0.68 0 0 Z " fill="#2AF8F7" transform="translate(806,54)"/>
<path d="M0 0 C1.60080151 4.00200378 0.29279692 7.04556236 -1 11 C-1.66 11 -2.32 11 -3 11 C-3.36923077 4.6 -3.36923077 4.6 -1.5 1.5625 C-1.005 1.046875 -0.51 0.53125 0 0 Z " fill="#C82047" transform="translate(805,94)"/>
<path d="M0 0 C0 3 0 3 -1.390625 4.640625 C-2.00421875 5.17171875 -2.6178125 5.7028125 -3.25 6.25 C-4.15492188 7.06210938 -4.15492188 7.06210938 -5.078125 7.890625 C-7 9 -7 9 -9.234375 8.671875 C-9.81703125 8.45015625 -10.3996875 8.2284375 -11 8 C-9.72992786 7.0406581 -8.45891081 6.08256706 -7.1875 5.125 C-6.47980469 4.59132813 -5.77210938 4.05765625 -5.04296875 3.5078125 C-3.39543703 2.29185219 -1.70375789 1.13583859 0 0 Z " fill="#CA3355" transform="translate(688,67)"/>
<path d="M0 0 C0.85178626 2.38500154 1.09806909 3.6665651 0.375 6.125 C-1.41247034 8.56245955 -3.1632534 9.10418528 -6 10 C-4.6302836 6.00499382 -2.74277578 3.19990508 0 0 Z " fill="#32F5F4" transform="translate(723,58)"/>
<path d="M0 0 C0 0.66 0 1.32 0 2 C-3.15506142 2.93619813 -5.96586502 3.1057123 -9.25 3.0625 C-10.14203125 3.05347656 -11.0340625 3.04445313 -11.953125 3.03515625 C-12.62859375 3.02355469 -13.3040625 3.01195312 -14 3 C-10.38893446 -0.61106554 -4.90054735 -0.14850143 0 0 Z " fill="#D98393" transform="translate(344,3)"/>
<path d="M0 0 C2.20914 3.31371 2.22481553 4.3446021 2.125 8.1875 C2.10695313 9.08855469 2.08890625 9.98960938 2.0703125 10.91796875 C2.03550781 11.94857422 2.03550781 11.94857422 2 13 C1.01 13 0.02 13 -1 13 C-1.07427838 9.65747276 -1.06546953 7.1964086 0 4 C0 2.68 0 1.36 0 0 Z " fill="#D33255" transform="translate(105,78)"/>
<path d="M0 0 C-1 3 -1 3 -3 4.1875 C-7.03804554 5.28113733 -10.84315708 5.16301345 -15 5 C-15 4.67 -15 4.34 -15 4 C-14.31292969 3.87882812 -13.62585938 3.75765625 -12.91796875 3.6328125 C-11.56638672 3.38144531 -11.56638672 3.38144531 -10.1875 3.125 C-9.29417969 2.96257812 -8.40085937 2.80015625 -7.48046875 2.6328125 C-4.62254823 1.90370522 -2.93854986 0 0 0 Z " fill="#C91336" transform="translate(896,71)"/>
<path d="M0 0 C0.66 0.33 1.32 0.66 2 1 C-3 6 -3 6 -4.6875 7.625 C-6.23918941 9.17108027 -6.23918941 9.17108027 -8 12 C-7.49572053 7.58755464 -5.98672249 5.25025683 -3 2 C-2.01 1.34 -1.02 0.68 0 0 Z " fill="#3CF6F5" transform="translate(148,61)"/>
<path d="M0 0 C0.99 0 1.98 0 3 0 C3 3.63 3 7.26 3 11 C2.67 9.68 2.34 8.36 2 7 C1.34 7 0.68 7 0 7 C0 4.69 0 2.38 0 0 Z " fill="#D1294F" transform="translate(292,34)"/>
<path d="M0 0 C0.99 0 1.98 0 3 0 C5.27678571 8.03571429 5.27678571 8.03571429 4 12 C3.525625 11.030625 3.05125 10.06125 2.5625 9.0625 C1.29806053 6.19522563 1.29806053 6.19522563 0 5 C-0.04063832 3.33382885 -0.042721 1.66611905 0 0 Z " fill="#D22E53" transform="translate(168,24)"/>
<path d="M0 0 C2.58926331 2.58926331 2.37398043 4.02705279 2.625 7.625 C2.69976562 8.62789062 2.77453125 9.63078125 2.8515625 10.6640625 C2.90054687 11.43492188 2.94953125 12.20578125 3 13 C0.40088226 10.77118667 -0.41925908 9.34031527 -0.75 5.9375 C-1 2 -1 2 0 0 Z " fill="#CC0F39" transform="translate(10,79)"/>
<path d="M0 0 C0.66 0.33 1.32 0.66 2 1 C1.67 3.31 1.34 5.62 1 8 C0.01 8.33 -0.98 8.66 -2 9 C-3 8 -3 8 -3.25 5.625 C-3 3 -3 3 -1.5 1.1875 C-1.005 0.795625 -0.51 0.40375 0 0 Z " fill="#CC2045" transform="translate(795,64)"/>
<path d="M0 0 C2 2 2 2 2.1953125 4.6015625 C2.17210937 5.59929688 2.14890625 6.59703125 2.125 7.625 C2.10695313 8.62789062 2.08890625 9.63078125 2.0703125 10.6640625 C2.03550781 11.82035156 2.03550781 11.82035156 2 13 C1.34 12.67 0.68 12.34 0 12 C-1.46125461 3.89667897 -1.46125461 3.89667897 0 0 Z " fill="#CC113A" transform="translate(529,53)"/>
<path d="M0 0 C0 0.33 0 0.66 0 1 C-1.21236328 1.19916016 -1.21236328 1.19916016 -2.44921875 1.40234375 C-3.51785156 1.57894531 -4.58648437 1.75554687 -5.6875 1.9375 C-6.74324219 2.11152344 -7.79898438 2.28554687 -8.88671875 2.46484375 C-11.60249604 2.93167121 -14.30124235 3.44422616 -17 4 C-15.22208888 1.72822468 -14.14569764 1.03727149 -11.3125 0.3125 C-7.50634145 -0.04657156 -3.82202339 -0.06589696 0 0 Z " fill="#74F5F4" transform="translate(65,118)"/>
<path d="M0 0 C0.66 0.33 1.32 0.66 2 1 C1.67 1.33 1.34 1.66 1 2 C0.95907063 4.33297433 0.95758277 6.66705225 1 9 C-0.32 8.67 -1.64 8.34 -3 8 C-3.36923077 3.44615385 -3.36923077 3.44615385 -1.5 1.1875 C-1.005 0.795625 -0.51 0.40375 0 0 Z " fill="#CC254B" transform="translate(588,46)"/>
<path d="M0 0 C5.445 1.485 5.445 1.485 11 3 C10.34 3.66 9.68 4.32 9 5 C2.91304348 4.45652174 2.91304348 4.45652174 0 3 C0 2.01 0 1.02 0 0 Z " fill="#D43456" transform="translate(376,81)"/>
<path d="M0 0 C0.66 0.33 1.32 0.66 2 1 C-1.3 4.3 -4.6 7.6 -8 11 C-8 6.67750434 -5.85084926 5.11604454 -3 2 C-2.01 1.34 -1.02 0.68 0 0 Z " fill="#F8E6EA" transform="translate(136,58)"/>
<path d="M0 0 C0 0.99 0 1.98 0 3 C-4.3164922 3.76173392 -7.74433453 4.16063604 -12 3 C-12 2.67 -12 2.34 -12 2 C-10.37548581 1.66430703 -8.75037083 1.3315204 -7.125 1 C-6.22007812 0.814375 -5.31515625 0.62875 -4.3828125 0.4375 C-2 0 -2 0 0 0 Z " fill="#3CF8F7" transform="translate(586,83)"/>
<path d="M0 0 C0.66 0 1.32 0 2 0 C2 2.97 2 5.94 2 9 C1.34 9 0.68 9 0 9 C-1.125 3.375 -1.125 3.375 0 0 Z " fill="#CB0E38" transform="translate(842,74)"/>
<path d="M0 0 C0.3125 2.3125 0.3125 2.3125 0 5 C-2.3125 6.875 -2.3125 6.875 -5 8 C-5.99 7.67 -6.98 7.34 -8 7 C-7 6 -6 5 -5 4 C-3.948125 2.9171875 -3.948125 2.9171875 -2.875 1.8125 C-1 0 -1 0 0 0 Z " fill="#3CEFF0" transform="translate(807,66)"/>
<path d="M0 0 C1.25541557 3.76624671 0.37061958 5.37188934 -1 9 C-1.99 9 -2.98 9 -4 9 C-2.25 2.25 -2.25 2.25 0 0 Z " fill="#BE2B4F" transform="translate(695,60)"/>
<path d="M0 0 C0.99 0.33 1.98 0.66 3 1 C2.34 4.3 1.68 7.6 1 11 C0.34 10.34 -0.32 9.68 -1 9 C-0.9765625 6.8359375 -0.9765625 6.8359375 -0.625 4.375 C-0.51414063 3.55773438 -0.40328125 2.74046875 -0.2890625 1.8984375 C-0.19367187 1.27195313 -0.09828125 0.64546875 0 0 Z " fill="#CB0D37" transform="translate(48,41)"/>
<path d="M0 0 C0.33 0 0.66 0 1 0 C1.309375 1.11375 1.61875 2.2275 1.9375 3.375 C2.82326483 6.7945155 2.82326483 6.7945155 4 9 C2.68 9 1.36 9 0 9 C-1.125 7.3125 -1.125 7.3125 -2 5 C-1.125 2.25 -1.125 2.25 0 0 Z " fill="#D12A4E" transform="translate(872,106)"/>
<path d="M0 0 C5.445 1.485 5.445 1.485 11 3 C11 3.33 11 3.66 11 4 C9.54176788 4.0270043 8.08339325 4.04639787 6.625 4.0625 C5.81289062 4.07410156 5.00078125 4.08570312 4.1640625 4.09765625 C2 4 2 4 0 3 C0 2.01 0 1.02 0 0 Z " fill="#C94060" transform="translate(128,101)"/>
<path d="M0 0 C0.33 0 0.66 0 1 0 C1.33 1.98 1.66 3.96 2 6 C0.35 6.33 -1.3 6.66 -3 7 C-1.125 1.125 -1.125 1.125 0 0 Z " fill="#31FCFA" transform="translate(765,93)"/>
<path d="M0 0 C4.29 0.33 8.58 0.66 13 1 C13 1.33 13 1.66 13 2 C8.23692563 2.95261487 3.8333472 3.08333357 -1 3 C-0.67 2.01 -0.34 1.02 0 0 Z " fill="#6FF9F8" transform="translate(693,91)"/>
<path d="M0 0 C0 0.66 0 1.32 0 2 C-2.75078884 2.91692961 -4.35948913 3.10886083 -7.1875 3.0625 C-9.0746875 3.0315625 -9.0746875 3.0315625 -11 3 C-6.9903514 0.32690093 -4.82843714 0 0 0 Z " fill="#90E9EB" transform="translate(398,82)"/>
<path d="M0 0 C0.66 0 1.32 0 2 0 C2.33 2.31 2.66 4.62 3 7 C1.68 7 0.36 7 -1 7 C-0.67 4.69 -0.34 2.38 0 0 Z " fill="#21F9F7" transform="translate(373,78)"/>
<path d="M0 0 C0.33 0.99 0.66 1.98 1 3 C-0.25 4.5625 -0.25 4.5625 -2 6 C-4.1875 5.6875 -4.1875 5.6875 -6 5 C-2.25 1.125 -2.25 1.125 0 0 Z " fill="#D0284B" transform="translate(452,62)"/>
<path d="M0 0 C3.3 0.33 6.6 0.66 10 1 C10 1.66 10 2.32 10 3 C5.06071112 3.3367697 4.21507278 3.16130459 0 0 Z " fill="#54F5F4" transform="translate(649,48)"/>
<path d="M0 0 C-3.63423209 2.32590854 -6.77088331 2.16265833 -11 2 C-10 0 -10 0 -8.3125 -0.6875 C-5.37519398 -1.08443325 -2.88840266 -0.59080963 0 0 Z " fill="#CB4C64" transform="translate(751,46)"/>
<path d="M0 0 C1.98362069 2.91708924 1.9876191 4.12380904 1.625 7.75 C1.41875 8.8225 1.2125 9.895 1 11 C0.34 11 -0.32 11 -1 11 C-1.125 3.375 -1.125 3.375 0 0 Z " fill="#CB0E38" transform="translate(267,25)"/>
<path d="M0 0 C2 1 4 2 6 3 C6 3.66 6 4.32 6 5 C6.99 5.33 7.98 5.66 9 6 C3.50847458 5.38983051 3.50847458 5.38983051 1.125 3.5625 C0 2 0 2 0 0 Z " fill="#C53554" transform="translate(766,96)"/>
<path d="M0 0 C1.98 1.65 3.96 3.3 6 5 C5.01 5.66 4.02 6.32 3 7 C1.5 5.75 1.5 5.75 0 4 C0 2.68 0 1.36 0 0 Z " fill="#CF2047" transform="translate(635,88)"/>
<path d="M0 0 C0.66 0.33 1.32 0.66 2 1 C2 3.64 2 6.28 2 9 C1.34 8.67 0.68 8.34 0 8 C-0.6875 4.5 -0.6875 4.5 -1 1 C-0.67 0.67 -0.34 0.34 0 0 Z " fill="#CA0C34" transform="translate(870,58)"/>
<path d="M0 0 C0 0.33 0 0.66 0 1 C-0.928125 1.268125 -1.85625 1.53625 -2.8125 1.8125 C-5.8311641 2.93710035 -6.9155143 3.70706573 -9 6 C-9.66 6 -10.32 6 -11 6 C-8.60159776 0.46522561 -5.82500047 -0.25888891 0 0 Z " fill="#3FFBFA" transform="translate(677,56)"/>
<path d="M0 0 C0.66 0 1.32 0 2 0 C1.6189482 2.76262553 1.16402868 3.84143894 -0.875 5.8125 C-1.57625 6.204375 -2.2775 6.59625 -3 7 C-3.99 6.67 -4.98 6.34 -6 6 C-5.195625 5.38125 -4.39125 4.7625 -3.5625 4.125 C-0.96125481 2.25835959 -0.96125481 2.25835959 0 0 Z " fill="#41F8F8" transform="translate(598,48)"/>
<path d="M0 0 C0.66 0 1.32 0 2 0 C1.67 3.3 1.34 6.6 1 10 C0.67 10 0.34 10 0 10 C-0.19412181 8.52168779 -0.38012131 7.04230684 -0.5625 5.5625 C-0.66691406 4.73878906 -0.77132813 3.91507813 -0.87890625 3.06640625 C-0.91886719 2.38449219 -0.95882813 1.70257813 -1 1 C-0.67 0.67 -0.34 0.34 0 0 Z " fill="#D1516F" transform="translate(425,46)"/>
<path d="M0 0 C0.33 0.66 0.66 1.32 1 2 C-2.31114834 3.12880057 -5.58978257 4.21302675 -9 5 C-9 4.01 -9 3.02 -9 2 C-6.03 1.34 -3.06 0.68 0 0 Z " fill="#D75169" transform="translate(198,40)"/>
<path d="M0 0 C0.33 0.99 0.66 1.98 1 3 C-0.32 4.32 -1.64 5.64 -3 7 C-3.99 6.67 -4.98 6.34 -6 6 C-4.02 4.02 -2.04 2.04 0 0 Z " fill="#36F6F6" transform="translate(159,64)"/>
<path d="M0 0 C2.31 0.33 4.62 0.66 7 1 C5.60804085 3.7839183 3.84424221 3.97898997 1 5 C0.67 3.35 0.34 1.7 0 0 Z " fill="#D8627E" transform="translate(814,55)"/>
<path d="M0 0 C0.66 0 1.32 0 2 0 C4 3 4 3 4 6 C3.01 6 2.02 6 1 6 C0.67 4.02 0.34 2.04 0 0 Z " fill="#C82148" transform="translate(41,117)"/>
<path d="M0 0 C0.66 0.33 1.32 0.66 2 1 C1.67 2.98 1.34 4.96 1 7 C0.67 6.34 0.34 5.68 0 5 C-0.66 5 -1.32 5 -2 5 C-1.125 1.125 -1.125 1.125 0 0 Z " fill="#D1284E" transform="translate(840,96)"/>
<path d="M0 0 C0 2.64 0 5.28 0 8 C-0.99 7.34 -1.98 6.68 -3 6 C-3.1875 3.375 -3.1875 3.375 -3 1 C-1 0 -1 0 0 0 Z " fill="#1AECED" transform="translate(71,95)"/>
<path d="M0 0 C0.99 0.33 1.98 0.66 3 1 C2.67 3.64 2.34 6.28 2 9 C1.67 9 1.34 9 1 9 C0.67 6.03 0.34 3.06 0 0 Z " fill="#CC153B" transform="translate(4,57)"/>
</svg>
