<?xml version="1.0" encoding="UTF-8"?>
<svg version="1.1" xmlns="http://www.w3.org/2000/svg" width="958" height="162">
<path d="M0 0 C6.34380081 3.81515294 6.34380081 3.81515294 7.98828125 6.1328125 C8.37726656 8.94775962 8.59372606 11.55764351 8.67578125 14.3828125 C8.70921631 15.17606934 8.74265137 15.96932617 8.77709961 16.78662109 C9.063091 24.23428266 9.0871986 31.68103868 8.98828125 39.1328125 C20.48191106 40.85088874 20.48191106 40.85088874 31.06591797 37.23120117 C37.02183188 33.82814597 44.19478354 33.88777933 50.86328125 34.0703125 C58.44226423 34.18584347 65.93374165 33.95515573 73.49365234 33.40014648 C78.48586635 33.07204289 83.03886985 33.37610747 87.98828125 34.1328125 C87.98828125 34.7928125 87.98828125 35.4528125 87.98828125 36.1328125 C88.97828125 35.8028125 89.96828125 35.4728125 90.98828125 35.1328125 C95.14983758 34.87802334 98.77063106 35.25747881 102.80078125 36.1953125 C107.3051721 37.17808869 111.00745962 36.95752279 115.546875 36.375 C122.68046296 35.66734807 129.05112519 37.0565561 134.98828125 41.1328125 C136.01417039 42.21296781 137.01513502 43.31740717 137.98828125 44.4453125 C139.36347628 46.02366152 139.36347628 46.02366152 140.98828125 47.1328125 C145.24990849 47.1328125 148.11567846 46.42949745 152.11328125 45.0703125 C158.72010495 43.47188741 166.44818911 42.91853287 172.94921875 45.1484375 C176.64726621 46.34626264 179.67212272 46.25606679 183.55078125 46.1328125 C189.8865403 46.00413796 195.7640943 46.58431778 202.01953125 47.69140625 C205.63705047 48.22927424 209.10653955 48.22611499 212.75390625 48.13671875 C215.91309532 48.13119569 218.87984385 48.59221469 221.98828125 49.1328125 C221.88515625 48.2665625 221.78203125 47.4003125 221.67578125 46.5078125 C222.00921011 42.9067808 222.851823 41.02836796 225.33203125 38.3828125 C228.54171685 35.96040827 232.08483573 35.65969266 235.98828125 35.1328125 C237.01050781 34.96136719 238.03273438 34.78992187 239.0859375 34.61328125 C256.69353094 31.80334383 276.53793723 29.16582724 291.98828125 40.1328125 C292.87515625 40.7309375 293.76203125 41.3290625 294.67578125 41.9453125 C300.09722212 47.07370251 303.79320251 52.03381067 304.9375 59.546875 C305.07334473 66.46450638 302.3349184 72.84636191 297.98828125 78.1328125 C293.87822631 82.06154149 289.4611004 85.62708938 284.98828125 89.1328125 C283.81265625 90.1228125 283.81265625 90.1228125 282.61328125 91.1328125 C279.53673755 93.4768458 276.37724411 95.27220544 272.98828125 97.1328125 C272.66404802 100.1216523 272.66404802 100.1216523 274.42578125 101.8203125 C277.47154096 106.32803687 277.30380861 111.44528353 276.42578125 116.6328125 C274.88128517 122.51612324 271.91781401 126.96901899 267.015625 130.58984375 C261.54303838 133.55954139 256.87772257 133.37768238 250.875 132.1171875 C246.53179506 130.63614874 243.31529736 128.2445511 239.98828125 125.1328125 C239.27671875 125.8753125 239.27671875 125.8753125 238.55078125 126.6328125 C232.52144108 130.16218236 224.20449471 127.92988864 217.61328125 126.8203125 C216.42412109 126.64338867 216.42412109 126.64338867 215.2109375 126.46289062 C214.44910156 126.33720703 213.68726563 126.21152344 212.90234375 126.08203125 C212.22123535 125.97205811 211.54012695 125.86208496 210.83837891 125.7487793 C208.5913842 125.00067061 207.62857451 123.80134811 205.98828125 122.1328125 C203.06472368 121.80482928 203.06472368 121.80482928 199.73828125 122.0078125 C194.46683414 122.10624201 189.25381017 122.12215472 183.98828125 121.8828125 C182.79203125 121.83640625 181.59578125 121.79 180.36328125 121.7421875 C176.98828125 121.1328125 176.98828125 121.1328125 174.06640625 119.02734375 C170.01668187 116.53481034 167.174687 117.20809075 162.73828125 118.0703125 C156.63860006 119.02976182 152.42259641 119.19909158 146.57421875 116.93359375 C140.94395612 115.19008342 134.84043864 115.42165289 128.98828125 115.1328125 C127.07030937 114.98190608 125.15328642 114.8175937 123.23828125 114.6328125 C122.4803125 114.560625 121.72234375 114.4884375 120.94140625 114.4140625 C118.98828125 114.1328125 118.98828125 114.1328125 115.98828125 113.1328125 C113.61626343 112.92803398 111.24032218 112.76727138 108.86328125 112.6328125 C92.74700218 111.63862645 92.74700218 111.63862645 88.98828125 109.1328125 C87.0252133 108.87458563 87.0252133 108.87458563 84.890625 108.97265625 C84.09342041 108.98441895 83.29621582 108.99618164 82.47485352 109.00830078 C81.63365967 109.02876465 80.79246582 109.04922852 79.92578125 109.0703125 C62.09607799 109.2817518 62.09607799 109.2817518 58.0390625 107.0703125 C55.45400209 105.8885706 53.90806572 106.11602028 51.11328125 106.5078125 C47.36884331 106.9786368 43.77011813 107.23233452 39.98828125 107.1328125 C40.01921875 108.5559375 40.01921875 108.5559375 40.05078125 110.0078125 C39.98828125 113.1328125 39.98828125 113.1328125 38.98828125 115.1328125 C38.32828125 115.1328125 37.66828125 115.1328125 36.98828125 115.1328125 C36.65828125 116.1228125 36.32828125 117.1128125 35.98828125 118.1328125 C32.41193812 119.32492688 29.74763442 119.39207824 25.98828125 119.1328125 C21.97967214 117.05893704 18.63706525 114.32276547 15.17578125 111.4453125 C14.19996094 110.63707031 13.22414063 109.82882813 12.21875 108.99609375 C11.48269531 108.38121094 10.74664063 107.76632813 9.98828125 107.1328125 C8.84359375 108.3084375 8.84359375 108.3084375 7.67578125 109.5078125 C3.06111639 114.01515958 3.06111639 114.01515958 -0.11328125 114.36328125 C-3.08162981 114.31273662 -6.04481075 114.2433181 -9.01171875 114.1328125 C-9.71393555 114.10815918 -10.41615234 114.08350586 -11.13964844 114.05810547 C-13.4311753 113.97186521 -15.72122461 113.86798386 -18.01171875 113.7578125 C-18.75373535 113.7271167 -19.49575195 113.6964209 -20.26025391 113.66479492 C-23.97403321 113.45885286 -25.8515064 113.23962074 -29.01171875 111.1328125 C-29.01171875 110.4728125 -29.01171875 109.8128125 -29.01171875 109.1328125 C-29.60984375 108.9059375 -30.20796875 108.6790625 -30.82421875 108.4453125 C-33.62355286 106.76571204 -34.59271936 105.04176125 -36.01171875 102.1328125 C-36.01171875 101.1428125 -36.01171875 100.1528125 -36.01171875 99.1328125 C-36.70910156 99.45636719 -37.40648437 99.77992187 -38.125 100.11328125 C-46.32669658 103.00995622 -56.16727407 101.59241374 -64.01171875 98.1328125 C-66.16344406 96.81268986 -68.21256949 95.45259183 -70.22265625 93.92578125 C-72.02617014 92.88214854 -72.02617014 92.88214854 -74.0078125 93.83203125 C-75.94632606 95.09036461 -77.82121537 96.41131951 -79.69921875 97.7578125 C-84.2493572 100.58582063 -87.77740963 101.18826139 -93.01171875 100.1328125 C-96.97995924 98.60713494 -99.92933529 96.22595002 -101.90588379 92.40365601 C-104.12103973 87.19710733 -105.7332893 81.78722592 -107.38671875 76.3828125 C-107.90907555 74.75964792 -108.43379744 73.13724247 -108.9609375 71.515625 C-111.26188493 64.34669765 -113.46786462 57.28232325 -114.54003906 49.80688477 C-114.77352051 48.97821899 -114.77352051 48.97821899 -115.01171875 48.1328125 C-117.34505208 46.71614583 -117.34505208 46.71614583 -120.01171875 46.1328125 C-124.05696795 42.00567567 -125.81063029 37.26684348 -127.76171875 31.9453125 C-128.07753906 31.14544922 -128.39335938 30.34558594 -128.71875 29.52148438 C-131.21644724 22.79067687 -132.73865036 16.0289387 -129.73046875 9.2421875 C-125.45725947 5.92676651 -120.67580516 4.80277707 -115.51171875 3.3828125 C-113.94357422 2.92841797 -113.94357422 2.92841797 -112.34375 2.46484375 C-109.5715968 1.66620806 -106.79651555 0.88607721 -104.01171875 0.1328125 C-103.3760498 -0.05361816 -102.74038086 -0.24004883 -102.08544922 -0.43212891 C-91.19871197 -2.71611357 -73.02142627 -3.64081251 -63.20556641 1.99975586 C-60.58379679 3.85026116 -58.27931679 5.86521446 -56.01171875 8.1328125 C-55.3259375 8.79796875 -54.64015625 9.463125 -53.93359375 10.1484375 C-49.27162055 15.15896944 -47.78420129 19.43796384 -47.01171875 26.1328125 C-45.36171875 26.1328125 -43.71171875 26.1328125 -42.01171875 26.1328125 C-41.02171875 21.5128125 -40.03171875 16.8928125 -39.01171875 12.1328125 C-38.35171875 12.1328125 -37.69171875 12.1328125 -37.01171875 12.1328125 C-36.8003125 11.52308594 -36.58890625 10.91335937 -36.37109375 10.28515625 C-34.47615333 7.28483392 -32.58265079 6.86573855 -29.26171875 5.6953125 C-28.10027344 5.28152344 -26.93882812 4.86773437 -25.7421875 4.44140625 C-24.51113281 4.00957031 -23.28007813 3.57773438 -22.01171875 3.1328125 C-20.7560902 2.6489774 -19.50216668 2.1606939 -18.25 1.66796875 C-17.03699219 1.20261719 -15.82398438 0.73726562 -14.57421875 0.2578125 C-12.90552734 -0.38800781 -12.90552734 -0.38800781 -11.203125 -1.046875 C-6.9999311 -2.12725532 -3.96424068 -1.70885715 0 0 Z " fill="#3D6DB7" transform="translate(648.01171875,9.8671875)"/>
<path d="M0 0 C1.44632812 -0.02416992 1.44632812 -0.02416992 2.921875 -0.04882812 C11.30859429 -0.05452562 17.92665859 1.37239141 24.25 7.3125 C25.7283226 10.26914519 25.31032783 13.05479737 25.25 16.3125 C26.26578125 16.28929687 27.2815625 16.26609375 28.328125 16.2421875 C36.87103995 16.1045163 44.86573607 16.48894806 53.25 18.3125 C53.93304199 18.4573584 54.61608398 18.6022168 55.31982422 18.75146484 C57.59142209 19.23749265 59.85863378 19.74015864 62.125 20.25 C62.83906006 20.40758789 63.55312012 20.56517578 64.28881836 20.72753906 C70.06262406 22.08129405 74.69529682 23.92319077 79.1875 27.9375 C81.39445894 31.54888736 81.68226677 33.40639935 80.9921875 37.546875 C79.8621616 41.75770834 78.37375804 45.8754141 76.71533203 49.90795898 C75.40509115 53.37922869 75.06446929 54.88144662 76.5546875 58.34375 C77.11414063 59.3234375 77.67359375 60.303125 78.25 61.3125 C79.79105313 69.63223619 79.59783279 76.54552792 76.25 84.3125 C75.59 84.3125 74.93 84.3125 74.25 84.3125 C73.86328125 85.19035156 73.86328125 85.19035156 73.46875 86.0859375 C70.87511098 90.82431648 66.69814069 94.53754899 61.53515625 96.171875 C59.78314375 96.50367651 58.0218867 96.79130572 56.25390625 97.0234375 C54.25531935 97.10754464 54.25531935 97.10754464 53.25 98.3125 C37.86653378 99.56632483 20.63920203 96.69321232 6.12890625 91.5625 C4.20237237 91.09678091 4.20237237 91.09678091 2.6796875 92.3515625 C2.16664063 92.87492187 1.65359375 93.39828125 1.125 93.9375 C-5.36944903 99.96805981 -13.10599783 103.492385 -21.9375 103.1875 C-30.15164025 103.11097074 -37.73344145 104.67646764 -45.75 106.3125 C-50.455356 107.16067576 -53.71967782 107.64583953 -58.3359375 106.15234375 C-63.74914082 104.72006381 -68.18436755 106.3814429 -73.375 108.0625 C-74.29023437 108.3409375 -75.20546875 108.619375 -76.1484375 108.90625 C-80.70609346 110.3025261 -85.23541036 111.78263906 -89.75 113.3125 C-89.75 113.9725 -89.75 114.6325 -89.75 115.3125 C-92.76826782 115.99114775 -95.7899527 116.65319713 -98.8125 117.3125 C-99.66005859 117.50328125 -100.50761719 117.6940625 -101.38085938 117.890625 C-106.28829014 118.95169111 -110.73008123 119.53046119 -115.75 119.3125 C-116.245 120.7975 -116.245 120.7975 -116.75 122.3125 C-117.41 122.3125 -118.07 122.3125 -118.75 122.3125 C-118.75 122.9725 -118.75 123.6325 -118.75 124.3125 C-138.4846265 128.68063867 -138.4846265 128.68063867 -146.0625 126.25 C-152.11943793 121.88337033 -153.93939117 114.45710705 -156.46484375 107.71484375 C-159.13178833 100.6543309 -162.0787843 93.72284391 -165.25 86.875 C-172.75 70.49404762 -172.75 70.49404762 -172.75 64.3125 C-173.41 64.3125 -174.07 64.3125 -174.75 64.3125 C-175.76475351 61.79675692 -176.76179332 59.27615897 -177.75 56.75 C-178.03617188 56.04552734 -178.32234375 55.34105469 -178.6171875 54.61523438 C-180.73943765 49.13275483 -181.71348674 44.34060117 -179.875 38.5625 C-173.41817335 31.72586002 -161.44822049 32.5862511 -152.75 32.3125 C-143.64572441 32.09817212 -143.64572441 32.09817212 -139.75 32.3125 C-139.42 32.6425 -139.09 32.9725 -138.75 33.3125 C-138.71132812 32.42498047 -138.71132812 32.42498047 -138.671875 31.51953125 C-138.3982643 27.70763671 -138.03406751 24.85696273 -136.25 21.4375 C-131.78950856 17.64608227 -126.66943272 16.53276277 -120.9375 15.875 C-117.21869476 15.21874025 -116.17466214 14.09637135 -113.75 11.3125 C-113.09 11.3125 -112.43 11.3125 -111.75 11.3125 C-111.75 10.6525 -111.75 9.9925 -111.75 9.3125 C-108.42419497 8.2659716 -105.08852924 7.25512462 -101.75 6.25 C-100.81542969 5.95544922 -99.88085938 5.66089844 -98.91796875 5.35742188 C-92.04149051 3.31371331 -86.62557135 2.41777623 -79.9375 5.6875 C-76.06219279 8.56629964 -74.43692866 10.41133164 -73.36328125 15.19921875 C-73.14736328 16.13701172 -72.93144531 17.07480469 -72.70898438 18.04101562 C-72.49564453 19.01748047 -72.28230469 19.99394531 -72.0625 21 C-71.72508789 22.48209961 -71.72508789 22.48209961 -71.38085938 23.99414062 C-70.82743486 26.43156349 -70.2842474 28.87081498 -69.75 31.3125 C-68.95142578 31.32788818 -68.15285156 31.34327637 -67.33007812 31.35913086 C-58.95212772 31.59112897 -52.9378607 34.14507013 -45.75 38.3125 C-45.193125 37.84199219 -44.63625 37.37148438 -44.0625 36.88671875 C-36.11612813 30.40344575 -29.1130958 27.38012216 -18.75 27.3125 C-17.07518845 27.60214663 -15.40479891 27.92451873 -13.75 28.3125 C-14.1109375 27.37148438 -14.471875 26.43046875 -14.84375 25.4609375 C-15.31301181 24.20331585 -15.78173319 22.94549246 -16.25 21.6875 C-16.7140625 20.45773438 -17.178125 19.22796875 -17.65625 17.9609375 C-19.18548754 12.859838 -19.54605783 9.79089312 -17 5.0625 C-12.25154494 -0.7411673 -7.01421738 -0.02307308 0 0 Z " fill="#3D6DB6" transform="translate(185.75,23.6875)"/>
<path d="M0 0 C3.64605137 2.02084984 7.10080645 4.20161289 9 8 C9.08342159 9.44848582 9.10732861 10.90070869 9.09765625 12.3515625 C9.09443359 13.20234375 9.09121094 14.053125 9.08789062 14.9296875 C9.07951172 15.81914062 9.07113281 16.70859375 9.0625 17.625 C9.05798828 18.5221875 9.05347656 19.419375 9.04882812 20.34375 C9.03702591 22.56256648 9.02056155 24.78125018 9 27 C10.38445312 27.43699219 10.38445312 27.43699219 11.796875 27.8828125 C15.86207329 29.30067434 19.62033232 31.04624241 22.1640625 34.6484375 C23.35469857 37.99779692 23.21111321 41.24585477 23.125 44.75 C23.11597656 45.44738281 23.10695313 46.14476562 23.09765625 46.86328125 C23.07419888 48.57566958 23.03833104 50.28788004 23 52 C23.93457031 52.27714844 24.86914062 52.55429687 25.83203125 52.83984375 C30.55818809 54.57063115 32.63187372 57.53190019 34.9765625 61.76171875 C38.48292183 70.10161081 38.64839114 81.69483312 35.98046875 90.28125 C34.15088645 94.0399085 32.20183678 97.26169991 29 100 C28.34 100 27.68 100 27 100 C27 100.66 27 101.32 27 102 C25.25197854 102.81674796 23.50149811 103.62823451 21.75 104.4375 C20.77546875 104.88996094 19.8009375 105.34242187 18.796875 105.80859375 C10.28833791 109.43304041 0.44933534 109.28414502 -8.125 105.9375 C-8.97320312 105.55464844 -9.82140625 105.17179687 -10.6953125 104.77734375 C-13.3671134 103.87617701 -14.39999594 104.00280969 -17 105 C-17.85295654 105.51312744 -17.85295654 105.51312744 -18.72314453 106.03662109 C-21.72134286 107.30521327 -24.1244346 107.20873807 -27.375 107.16015625 C-29.22351563 107.1437207 -29.22351563 107.1437207 -31.109375 107.12695312 C-32.39328125 107.10568359 -33.6771875 107.08441406 -35 107.0625 C-37.54160964 107.02805047 -40.0832824 106.9979139 -42.625 106.97265625 C-43.75164062 106.95468994 -44.87828125 106.93672363 -46.0390625 106.91821289 C-48.58690018 106.98858934 -50.57085739 107.31865512 -53 108 C-54.62957268 107.88644093 -56.2552231 107.71148422 -57.875 107.5 C-64.98950675 106.77976598 -71.97304318 107.27393405 -79.08154297 107.85742188 C-83.53635607 108.15203351 -86.9059211 108.28171092 -91.01171875 106.41015625 C-96.03613103 104.21476474 -100.40079669 105.57825974 -105.5625 106.8125 C-111.5206657 108.15488701 -116.85207471 109.15033537 -123 109 C-124.485 109.495 -124.485 109.495 -126 110 C-129.86963223 110.31086124 -133.74436881 110.32400007 -137.625 110.375 C-138.68074219 110.41238281 -139.73648438 110.44976562 -140.82421875 110.48828125 C-148.05197143 110.56888816 -153.24815293 109.54361648 -159 105 C-162.84298241 100.75973113 -162.92368977 95.17237615 -163.5625 89.6875 C-163.68471924 88.71361328 -163.80693848 87.73972656 -163.93286133 86.73632812 C-164.17971576 84.76149269 -164.42186304 82.78606287 -164.65917969 80.81005859 C-164.96687493 78.27311572 -165.29394033 75.73996626 -165.6328125 73.20703125 C-166.39359852 67.44512932 -167.11545804 61.82619039 -167 56 C-167.99 56.495 -167.99 56.495 -169 57 C-185.33704897 58.38777083 -185.33704897 58.38777083 -191 54.125 C-195.96268197 49.53895014 -195.59369095 44.44728136 -196 38 C-196.07863281 36.80246094 -196.15726562 35.60492188 -196.23828125 34.37109375 C-196.28339844 33.15550781 -196.32851563 31.93992187 -196.375 30.6875 C-196.44847656 28.99173828 -196.44847656 28.99173828 -196.5234375 27.26171875 C-195.81318299 22.83587909 -194.28618425 21.01051234 -191 18 C-187.63671875 16.86328125 -187.63671875 16.86328125 -183.6875 16.3125 C-182.96618896 16.20494385 -182.24487793 16.0973877 -181.50170898 15.98657227 C-179.00443944 15.62534842 -176.5042254 15.30926499 -174 15 C-172.52611816 14.8129248 -172.52611816 14.8129248 -171.02246094 14.62207031 C-166.86713454 14.09599742 -162.71228188 13.57053647 -158.55151367 13.08911133 C-146.01844277 12.31307919 -146.01844277 12.31307919 -136 6 C-127.97225765 2.12948137 -115.8382096 0.48487835 -107 2 C-102.66107708 3.84075518 -100.46733779 6.18994783 -98.125 10.25 C-95.96058047 17.46473177 -95.88114788 24.51231619 -96 32 C-95.236875 31.7525 -94.47375 31.505 -93.6875 31.25 C-85.34650639 30.68450891 -77.65977731 35.34388062 -71 40 C-70.51273437 39.60167969 -70.02546875 39.20335937 -69.5234375 38.79296875 C-63.66493829 34.41507206 -58.43179695 32.9395422 -51.234375 31.8359375 C-47.59242369 30.89466023 -45.86687525 29.36317139 -43 27 C-40.54296875 26.390625 -40.54296875 26.390625 -38.1875 26.25 C-37.39730469 26.19328125 -36.60710937 26.1365625 -35.79296875 26.078125 C-35.20128906 26.05234375 -34.60960937 26.0265625 -34 26 C-34.20625 24.80375 -34.4125 23.6075 -34.625 22.375 C-35.1038371 18.38938533 -34.83200696 15.66401391 -33 12 C-25.71310543 5.20075612 -10.10630381 -3.20126014 0 0 Z " fill="#FCCC02" transform="translate(464,2)"/>
<path d="M0 0 C0 15.51 0 31.02 0 47 C2.97 45.35 5.94 43.7 9 42 C14.76819733 39.42809758 19.63326864 40.1493037 25.72265625 40.8984375 C31.12333783 41.40082648 33.61043492 40.4729206 38 37 C46.53726797 33.44280501 57.40882628 33.72717191 66 37 C66.33 36.34 66.66 35.68 67 35 C70.85303214 33.46655144 75.10565255 33.85323015 79.1875 33.875 C79.92419922 33.87113281 80.66089844 33.86726563 81.41992188 33.86328125 C86.87331509 33.87331509 86.87331509 33.87331509 88 35 C91.1989639 35.28831863 94.39830814 35.44882341 97.60546875 35.62109375 C101 36 101 36 104.16015625 37.05859375 C106.98244849 37.99418169 108.37956261 38.11801406 111.25 37.625 C119.58647375 36.4901187 126.9307956 35.7347627 134 41 C138.01128009 44.85823928 141.38215809 49.07229759 144 54 C144.49628906 53.60167969 144.99257813 53.20335937 145.50390625 52.79296875 C154.12311815 46.07096478 161.02789879 43.97353288 172 45 C176.89358078 46.2080754 180.93258996 49.12305144 185 52 C185 50.68 185 49.36 185 48 C188.14581423 47.97111486 191.29159469 47.95324077 194.4375 47.9375 C195.78424805 47.92493164 195.78424805 47.92493164 197.15820312 47.91210938 C198.01220703 47.90888672 198.86621094 47.90566406 199.74609375 47.90234375 C200.53685303 47.89710693 201.3276123 47.89187012 202.14233398 47.88647461 C204 48 204 48 205 49 C206.79064572 48.97679964 208.58148802 48.94736156 210.37109375 48.88208008 C224.03641039 48.44818801 224.03641039 48.44818801 229 53 C236.29375871 61.37867264 239.39295367 68.36094959 239.375 79.375 C239.37556396 80.24680908 239.37612793 81.11861816 239.37670898 82.0168457 C239.04461166 101.95538834 239.04461166 101.95538834 234 107 C231.93473825 106.93499891 229.87159874 106.79717323 227.8125 106.625 C226.68457031 106.53476563 225.55664062 106.44453125 224.39453125 106.3515625 C221.2301536 106.02383639 218.13422582 105.53742133 215 105 C215.00523682 104.06728271 215.01047363 103.13456543 215.01586914 102.17358398 C215.03299302 98.68659843 215.04548993 95.1996581 215.05493164 91.71264648 C215.05993555 90.2084075 215.06674073 88.70417332 215.07543945 87.19995117 C215.08767884 85.02781991 215.09326786 82.85575341 215.09765625 80.68359375 C215.10289307 79.37962646 215.10812988 78.07565918 215.11352539 76.73217773 C215.00145975 73.04798967 214.59374786 69.63028534 214 66 C209.6402931 68.98295735 208.31314714 70.92249772 207 76 C206.3445587 80.11247209 205.85247091 84.23854281 205.375 88.375 C205.2409375 89.49261719 205.106875 90.61023438 204.96875 91.76171875 C204.64023702 94.50714864 204.31936157 97.25349053 204 100 C196.41 100 188.82 100 181 100 C180.67 96.04 180.34 92.08 180 88 C178.63875 89.11375 177.2775 90.2275 175.875 91.375 C168.51932483 97.02005304 162.15794678 97.81022049 153 97 C148.98606723 95.97186985 145.64929337 94.27265652 143 91 C142.53980469 92.01126953 142.53980469 92.01126953 142.0703125 93.04296875 C140 95 140 95 138.08105469 95.15869141 C135.6558011 94.97713553 133.28007656 94.6734485 130.875 94.3125 C129.62009766 94.15491211 129.62009766 94.15491211 128.33984375 93.99414062 C122.18055556 93.18055556 122.18055556 93.18055556 121 92 C120.93658739 89.86290033 120.94083605 87.72374096 120.97265625 85.5859375 C120.98490234 84.26722656 120.99714844 82.94851562 121.00976562 81.58984375 C121.03444404 79.48997979 121.06225503 77.39026673 121.09594727 75.29052734 C121.12644862 73.26398848 121.14402723 71.23763503 121.16015625 69.2109375 C121.17699463 67.99712402 121.19383301 66.78331055 121.21118164 65.53271484 C120.98072224 61.67751546 120.18753396 58.65778032 119 55 C119.02094727 55.55236328 119.04189453 56.10472656 119.06347656 56.67382812 C119.47119614 69.13249966 118.77305605 80.09129183 115 92 C112.2079699 91.8595017 109.41650204 91.71284617 106.625 91.5625 C105.8309375 91.52318359 105.036875 91.48386719 104.21875 91.44335938 C98.2265625 91.11328125 98.2265625 91.11328125 96 90 C96.00523682 89.26475098 96.01047363 88.52950195 96.01586914 87.77197266 C96.03685916 84.38965739 96.04972951 81.0073559 96.0625 77.625 C96.07087891 76.46871094 96.07925781 75.31242187 96.08789062 74.12109375 C96.10702932 67.34599441 95.85222001 60.72360274 95 54 C94.34 54 93.68 54 93 54 C90.25643156 62.48953253 89.56436703 70.53721232 89.29125977 79.40722656 C89.26475342 80.24608398 89.23824707 81.08494141 89.2109375 81.94921875 C89.19337402 82.70549561 89.17581055 83.46177246 89.15771484 84.2409668 C89 86 89 86 88 87 C86.36527118 87.08700342 84.72685945 87.10701063 83.08984375 87.09765625 C82.10048828 87.09443359 81.11113281 87.09121094 80.09179688 87.08789062 C79.05087891 87.07951172 78.00996094 87.07113281 76.9375 87.0625 C75.89271484 87.05798828 74.84792969 87.05347656 73.77148438 87.04882812 C71.1809334 87.03699913 68.59049441 87.02051689 66 87 C66 85.35 66 83.7 66 82 C64.9275 82.474375 63.855 82.94875 62.75 83.4375 C53.39274125 86.91965449 41.48904507 87.16301502 32 84 C32 88.62 32 93.24 32 98 C27.37830526 96.84457632 24.99782347 94.65305642 21.5625 91.5625 C14.92322671 85.71937461 8.05691298 80.3318898 1 75 C1 80.94 1 86.88 1 93 C-1.866875 93.020625 -4.73375 93.04125 -7.6875 93.0625 C-8.58170654 93.071604 -9.47591309 93.08070801 -10.3972168 93.09008789 C-11.47483276 93.09383423 -11.47483276 93.09383423 -12.57421875 93.09765625 C-13.30213623 93.10289307 -14.03005371 93.10812988 -14.7800293 93.11352539 C-17 93 -17 93 -22 92 C-22.495 79.625 -22.495 79.625 -23 67 C-25.64 69.64 -28.28 72.28 -31 75 C-38.36191644 79.62528782 -46.39923105 81.3674328 -55 80 C-61.12071593 77.10657065 -66.01842756 71.6030773 -68.49609375 65.24609375 C-70.63481691 55.71302542 -69.48270646 46.7116386 -64.4375 38.4375 C-58.48649247 32.48649247 -51.0290321 26.73072247 -42.3125 26.6875 C-34.08934859 26.8716004 -28.42576845 28.85938524 -22 34 C-22 29.38 -22 24.76 -22 20 C-23.98 20 -25.96 20 -28 20 C-28.35216425 15.18708861 -27.79666839 11.00751147 -25 7 C-22.53240962 5.3553013 -19.943343 4.50351052 -17.125 3.625 C-16.41730469 3.37878906 -15.70960938 3.13257813 -14.98046875 2.87890625 C-9.93567024 1.15972911 -5.36757409 0 0 0 Z " fill="#FBCC02" transform="translate(644,19)"/>
<path d="M0 0 C0.85710792 3.95044687 1.71153808 7.90146232 2.56347656 11.85302734 C2.85375361 13.19758805 3.14476556 14.54199031 3.43652344 15.88623047 C3.85544309 17.81696561 4.27151281 19.74831842 4.6875 21.6796875 C4.93886719 22.84226074 5.19023438 24.00483398 5.44921875 25.20263672 C6 28 6 28 6 30 C6.61746094 29.7834375 7.23492187 29.566875 7.87109375 29.34375 C14.42815513 27.18800379 20.69731826 25.26320322 27.3515625 27.94921875 C32.02024374 30.42408823 36.1692894 33.36573609 40 37 C40 37.66 40 38.32 40 39 C40.639375 38.34 41.27875 37.68 41.9375 37 C42.95654531 35.99817799 43.9776848 34.99848501 45 34 C45.99966797 32.98873047 45.99966797 32.98873047 47.01953125 31.95703125 C52.11256759 27.06022398 55.92254722 24.54531194 63 24 C63.88945312 23.90847656 64.77890625 23.81695312 65.6953125 23.72265625 C72.59271682 23.32879333 77.55723043 24.66846255 83 29 C89.08313705 36.4869379 90.23920443 44.53840154 89.38037109 53.96826172 C87.96163261 61.54640144 81.61630556 68.32921773 75.6328125 72.890625 C69.68784992 76.92978618 64.16422396 78.21219845 57 78 C54.07787965 77.27979137 51.74077006 76.29281607 49 75 C48.76410156 75.64453125 48.52820313 76.2890625 48.28515625 76.953125 C47 79 47 79 44.93359375 79.609375 C44.10988281 79.65578125 43.28617187 79.7021875 42.4375 79.75 C41.55191406 79.80542969 40.66632813 79.86085938 39.75390625 79.91796875 C35.82975417 80.03485839 31.92580377 80.06331942 28 80 C27.90203125 79.21238281 27.8040625 78.42476563 27.703125 77.61328125 C26.70672682 70.3550359 25.13183626 63.6271608 22.8046875 56.6796875 C22 54 22 54 22 51 C21.34 51 20.68 51 20 51 C19.34 48.69 18.68 46.38 18 44 C14.92403204 46.90593535 14.92403204 46.90593535 13.83203125 50.890625 C13.77932636 57.25737542 14.52907746 63.32599152 15.5625 69.60546875 C16.01390596 73.10789536 16.07171209 76.47266135 16 80 C13.64995631 80.84686259 11.2960687 81.67750196 8.9375 82.5 C7.95233398 82.85771484 7.95233398 82.85771484 6.94726562 83.22265625 C6.29306641 83.44824219 5.63886719 83.67382812 4.96484375 83.90625 C4.3730835 84.11572266 3.78132324 84.32519531 3.17163086 84.54101562 C1 85 1 85 -6 85 C-7.98 76.09 -9.96 67.18 -12 58 C-11.67 68.56 -11.34 79.12 -11 90 C-14.774375 90.99 -14.774375 90.99 -18.625 92 C-19.40568848 92.20882812 -20.18637695 92.41765625 -20.99072266 92.6328125 C-30.94958338 95.18130999 -30.94958338 95.18130999 -34.8984375 92.90625 C-36.265625 91.60416667 -37.6328125 90.30208333 -39 89 C-39.09087891 89.93972656 -39.09087891 89.93972656 -39.18359375 90.8984375 C-39.26738281 91.71570313 -39.35117187 92.53296875 -39.4375 93.375 C-39.51871094 94.18710938 -39.59992187 94.99921875 -39.68359375 95.8359375 C-40 98 -40 98 -41 100 C-43.109375 100.6328125 -43.109375 100.6328125 -45.75 101.125 C-46.61109375 101.29257813 -47.4721875 101.46015625 -48.359375 101.6328125 C-50.94533821 101.9923991 -53.39313809 102.06564041 -56 102 C-56.25652344 101.31679687 -56.51304688 100.63359375 -56.77734375 99.9296875 C-59.97274147 91.51621606 -63.35439664 83.18705662 -66.78881836 74.86865234 C-68.95471318 69.61016612 -71.02594833 64.33340276 -73 59 C-73.57618448 57.51803399 -74.15851381 56.03842544 -74.75 54.5625 C-75.07871094 53.7375 -75.40742187 52.9125 -75.74609375 52.0625 C-76.75726572 49.59284635 -77.79439868 47.13925842 -78.84765625 44.6875 C-79.17088867 43.92622803 -79.49412109 43.16495605 -79.82714844 42.38061523 C-80.4774602 40.85070686 -81.13552009 39.32406588 -81.80175781 37.80102539 C-84.11229158 32.33687474 -84.11229158 32.33687474 -83 29 C-73.98175113 27.93003827 -65.06335876 27.89765341 -56 28 C-55.57847656 29.21558594 -55.15695313 30.43117188 -54.72265625 31.68359375 C-54.16942192 33.26828192 -53.61602828 34.85291448 -53.0625 36.4375 C-52.78470703 37.23994141 -52.50691406 38.04238281 -52.22070312 38.86914062 C-51.95322266 39.63291016 -51.68574219 40.39667969 -51.41015625 41.18359375 C-51.04096069 42.24404907 -51.04096069 42.24404907 -50.66430664 43.32592773 C-50.12532025 45.00682632 -50.12532025 45.00682632 -49 46 C-48.34 44.68 -47.68 43.36 -47 42 C-46.01 42 -45.02 42 -44 42 C-43.34 43.65 -42.68 45.3 -42 47 C-41.34 47 -40.68 47 -40 47 C-40.10828125 45.20369141 -40.10828125 45.20369141 -40.21875 43.37109375 C-40.80527975 33.23071575 -41.13665178 23.1577825 -41 13 C-38.06333774 12.32944715 -35.12577641 11.66340947 -32.1875 11 C-31.35412109 10.80921875 -30.52074219 10.6184375 -29.66210938 10.421875 C-28.85966797 10.24140625 -28.05722656 10.0609375 -27.23046875 9.875 C-26.12288208 9.62363281 -26.12288208 9.62363281 -24.99291992 9.3671875 C-23 9 -23 9 -20 9 C-20.495 6.525 -20.495 6.525 -21 4 C-14.0898791 0.87930024 -7.52718187 -0.05163882 0 0 Z " fill="#FCCC02" transform="translate(99,38)"/>
<path d="M0 0 C3.64605137 2.02084984 7.10080645 4.20161289 9 8 C9.08342159 9.44848582 9.10732861 10.90070869 9.09765625 12.3515625 C9.09443359 13.20234375 9.09121094 14.053125 9.08789062 14.9296875 C9.07951172 15.81914062 9.07113281 16.70859375 9.0625 17.625 C9.05798828 18.5221875 9.05347656 19.419375 9.04882812 20.34375 C9.03702591 22.56256648 9.02056155 24.78125018 9 27 C10.38445312 27.43699219 10.38445312 27.43699219 11.796875 27.8828125 C15.86207329 29.30067434 19.62033232 31.04624241 22.1640625 34.6484375 C23.35469857 37.99779692 23.21111321 41.24585477 23.125 44.75 C23.11597656 45.44738281 23.10695313 46.14476562 23.09765625 46.86328125 C23.07419888 48.57566958 23.03833104 50.28788004 23 52 C23.93457031 52.27714844 24.86914062 52.55429687 25.83203125 52.83984375 C30.55818809 54.57063115 32.63187372 57.53190019 34.9765625 61.76171875 C38.48292183 70.10161081 38.64839114 81.69483312 35.98046875 90.28125 C34.15088645 94.0399085 32.20183678 97.26169991 29 100 C28.34 100 27.68 100 27 100 C27 100.66 27 101.32 27 102 C25.25197854 102.81674796 23.50149811 103.62823451 21.75 104.4375 C20.77546875 104.88996094 19.8009375 105.34242187 18.796875 105.80859375 C10.28833791 109.43304041 0.44933534 109.28414502 -8.125 105.9375 C-8.97320312 105.55464844 -9.82140625 105.17179687 -10.6953125 104.77734375 C-13.3671134 103.87617701 -14.39999594 104.00280969 -17 105 C-17.85295654 105.51312744 -17.85295654 105.51312744 -18.72314453 106.03662109 C-21.72134286 107.30521327 -24.1244346 107.20873807 -27.375 107.16015625 C-29.22351563 107.1437207 -29.22351563 107.1437207 -31.109375 107.12695312 C-32.39328125 107.10568359 -33.6771875 107.08441406 -35 107.0625 C-37.54160964 107.02805047 -40.0832824 106.9979139 -42.625 106.97265625 C-43.75164062 106.95468994 -44.87828125 106.93672363 -46.0390625 106.91821289 C-48.58690018 106.98858934 -50.57085739 107.31865512 -53 108 C-54.62957268 107.88644093 -56.2552231 107.71148422 -57.875 107.5 C-64.98950675 106.77976598 -71.97304318 107.27393405 -79.08154297 107.85742188 C-83.53635607 108.15203351 -86.9059211 108.28171092 -91.01171875 106.41015625 C-96.03613103 104.21476474 -100.40079669 105.57825974 -105.5625 106.8125 C-111.5206657 108.15488701 -116.85207471 109.15033537 -123 109 C-124.485 109.495 -124.485 109.495 -126 110 C-129.86963223 110.31086124 -133.74436881 110.32400007 -137.625 110.375 C-138.68074219 110.41238281 -139.73648438 110.44976562 -140.82421875 110.48828125 C-148.05197143 110.56888816 -153.24815293 109.54361648 -159 105 C-162.84298241 100.75973113 -162.92368977 95.17237615 -163.5625 89.6875 C-163.68471924 88.71361328 -163.80693848 87.73972656 -163.93286133 86.73632812 C-164.17971576 84.76149269 -164.42186304 82.78606287 -164.65917969 80.81005859 C-164.96687493 78.27311572 -165.29394033 75.73996626 -165.6328125 73.20703125 C-166.39359852 67.44512932 -167.11545804 61.82619039 -167 56 C-167.99 56.495 -167.99 56.495 -169 57 C-185.33704897 58.38777083 -185.33704897 58.38777083 -191 54.125 C-195.96268197 49.53895014 -195.59369095 44.44728136 -196 38 C-196.07863281 36.80246094 -196.15726562 35.60492188 -196.23828125 34.37109375 C-196.28339844 33.15550781 -196.32851563 31.93992187 -196.375 30.6875 C-196.44847656 28.99173828 -196.44847656 28.99173828 -196.5234375 27.26171875 C-195.81318299 22.83587909 -194.28618425 21.01051234 -191 18 C-187.63671875 16.86328125 -187.63671875 16.86328125 -183.6875 16.3125 C-182.96618896 16.20494385 -182.24487793 16.0973877 -181.50170898 15.98657227 C-179.00443944 15.62534842 -176.5042254 15.30926499 -174 15 C-172.52611816 14.8129248 -172.52611816 14.8129248 -171.02246094 14.62207031 C-166.86713454 14.09599742 -162.71228188 13.57053647 -158.55151367 13.08911133 C-146.01844277 12.31307919 -146.01844277 12.31307919 -136 6 C-127.97225765 2.12948137 -115.8382096 0.48487835 -107 2 C-102.66107708 3.84075518 -100.46733779 6.18994783 -98.125 10.25 C-95.96058047 17.46473177 -95.88114788 24.51231619 -96 32 C-95.236875 31.7525 -94.47375 31.505 -93.6875 31.25 C-85.34650639 30.68450891 -77.65977731 35.34388062 -71 40 C-70.51273437 39.60167969 -70.02546875 39.20335937 -69.5234375 38.79296875 C-63.66493829 34.41507206 -58.43179695 32.9395422 -51.234375 31.8359375 C-47.59242369 30.89466023 -45.86687525 29.36317139 -43 27 C-40.54296875 26.390625 -40.54296875 26.390625 -38.1875 26.25 C-37.39730469 26.19328125 -36.60710937 26.1365625 -35.79296875 26.078125 C-35.20128906 26.05234375 -34.60960937 26.0265625 -34 26 C-34.20625 24.80375 -34.4125 23.6075 -34.625 22.375 C-35.1038371 18.38938533 -34.83200696 15.66401391 -33 12 C-25.71310543 5.20075612 -10.10630381 -3.20126014 0 0 Z M-11.109375 10.75 C-12.1298291 11.23726562 -12.1298291 11.23726562 -13.17089844 11.734375 C-14.02200195 12.15203125 -14.87310547 12.5696875 -15.75 13 C-18.4725 14.32 -21.195 15.64 -24 17 C-24 23.27 -24 29.54 -24 36 C-24.99 36 -25.98 36 -27 36 C-27 35.34 -27 34.68 -27 34 C-28.91924787 34.22934409 -30.8354406 34.48434343 -32.75 34.75 C-33.81734375 34.88921875 -34.8846875 35.0284375 -35.984375 35.171875 C-39.07627863 35.74746497 -39.07627863 35.74746497 -40.91015625 37.9609375 C-43.78409675 40.76504393 -46.87947176 41.13886079 -50.6875 41.875 C-60.03893582 43.94453681 -66.53697435 47.91152026 -73 55 C-73.474375 54.13375 -73.94875 53.2675 -74.4375 52.375 C-77.6315397 47.52052088 -82.88404756 44.55797622 -88 42 C-90.47005337 41.90166064 -92.90557661 41.86096919 -95.375 41.875 C-96.38433594 41.86919922 -96.38433594 41.86919922 -97.4140625 41.86328125 C-100.75280945 41.86985359 -103.80853085 41.96890997 -107 43 C-107.04898438 42.07960937 -107.09796875 41.15921875 -107.1484375 40.2109375 C-107.37110634 25.66900844 -107.37110634 25.66900844 -111 12 C-118.21471629 11.64517789 -124.12418702 12.8408662 -131 15 C-131 16.65 -131 18.3 -131 20 C-131.71728271 20.04318359 -132.43456543 20.08636719 -133.17358398 20.13085938 C-142.36487162 20.75501659 -151.44611914 21.89945465 -160.5690918 23.15673828 C-163.0890724 23.50365816 -165.60987935 23.84402025 -168.13085938 24.18359375 C-169.74484343 24.40326583 -171.35877768 24.62330427 -172.97265625 24.84375 C-173.72055923 24.94482056 -174.46846222 25.04589111 -175.23902893 25.15002441 C-178.56606319 25.61109252 -181.73533181 26.18383295 -185 27 C-185 33.27 -185 39.54 -185 46 C-176.09 45.67 -167.18 45.34 -158 45 C-158 47.64 -158 50.28 -158 53 C-157.88690641 54.53906811 -157.74504091 56.07669413 -157.55688477 57.60839844 C-157.4600087 58.41573425 -157.36313263 59.22307007 -157.26332092 60.05487061 C-157.15708908 60.89785706 -157.05085724 61.74084351 -156.94140625 62.609375 C-156.77849342 63.94322235 -156.77849342 63.94322235 -156.61228943 65.30401611 C-156.38338168 67.1699192 -156.15215142 69.0355387 -155.91870117 70.90087891 C-155.56189156 73.75486669 -155.21299331 76.60974044 -154.86523438 79.46484375 C-154.64108791 81.28391127 -154.41649418 83.10292374 -154.19140625 84.921875 C-154.08719864 85.77295837 -153.98299103 86.62404175 -153.87562561 87.50091553 C-153.72558327 88.69300629 -153.72558327 88.69300629 -153.57250977 89.90917969 C-153.48590591 90.6045282 -153.39930206 91.29987671 -153.31007385 92.01629639 C-152.9882138 94.07540242 -152.64681984 96.01654199 -152 98 C-145.77204542 101.11397729 -135.74331816 99.0577754 -129 98 C-128.84585402 91.16853036 -129.43768479 84.69824228 -130.375 77.9375 C-132.0021219 65.65441958 -133.07809834 53.35381327 -134 41 C-132.35 41 -130.7 41 -129 41 C-128.970271 42.04172363 -128.970271 42.04172363 -128.93994141 43.10449219 C-128.84335952 46.31997525 -128.73423252 49.53492277 -128.625 52.75 C-128.5940625 53.84183594 -128.563125 54.93367188 -128.53125 56.05859375 C-128.2998084 62.57753203 -127.62284079 68.80272701 -126.45898438 75.21875 C-125.80505226 79.18130032 -125.58855203 83.11659498 -125.4375 87.125 C-125.42529892 92.21829134 -125.42529892 92.21829134 -124 97 C-118.64189031 97.16898112 -113.80650828 96.56511422 -108.5625 95.5 C-107.83095703 95.35691406 -107.09941406 95.21382813 -106.34570312 95.06640625 C-104.56264514 94.71678704 -102.78114797 94.35922312 -101 94 C-101.01047363 93.08186523 -101.02094727 92.16373047 -101.03173828 91.21777344 C-101.06587215 87.80352254 -101.0909241 84.38945362 -101.10986328 80.97509766 C-101.11990591 79.49883153 -101.13354265 78.02258521 -101.15087891 76.54638672 C-101.17520421 74.42149966 -101.1865004 72.29687615 -101.1953125 70.171875 C-101.20578613 68.8940918 -101.21625977 67.61630859 -101.22705078 66.29980469 C-101.01550278 63.22530701 -100.63126908 61.56261648 -99 59 C-98.34 59 -97.68 59 -97 59 C-96.37303505 60.85350317 -95.74853034 62.70783859 -95.125 64.5625 C-94.77695312 65.59503906 -94.42890625 66.62757812 -94.0703125 67.69140625 C-93.71710938 68.78324219 -93.36390625 69.87507813 -93 71 C-92.6390625 72.1034375 -92.278125 73.206875 -91.90625 74.34375 C-90.85517222 78.58430519 -90.55445683 82.58928644 -90.375 86.9375 C-90.25125 89.598125 -90.1275 92.25875 -90 95 C-83.4 95 -76.8 95 -70 95 C-70 93.68 -70 92.36 -70 91 C-69.2575 91.474375 -68.515 91.94875 -67.75 92.4375 C-62.87732486 95.20606542 -58.46989725 95.13587912 -52.953125 95.09765625 C-52.18192322 95.0962413 -51.41072144 95.09482635 -50.6161499 95.09336853 C-48.16072662 95.08778534 -45.70539558 95.07523595 -43.25 95.0625 C-41.58203257 95.05748283 -39.91406371 95.0529203 -38.24609375 95.04882812 C-34.16402713 95.03782141 -30.08202919 95.02056836 -26 95 C-25.97528545 90.0703976 -25.95713309 85.14083126 -25.94506836 80.21118164 C-25.94003887 78.53409192 -25.93321452 76.85700658 -25.92456055 75.17993164 C-25.91243441 72.769683 -25.90675785 70.35949232 -25.90234375 67.94921875 C-25.89718246 67.19912033 -25.89202118 66.44902191 -25.88670349 65.67619324 C-25.88636215 62.51048768 -25.99112657 60.02662028 -27 57 C-25.68 57 -24.36 57 -23 57 C-23.01571045 57.59949463 -23.0314209 58.19898926 -23.04760742 58.81665039 C-23.1104413 61.56516877 -23.14914235 64.31353542 -23.1875 67.0625 C-23.21263672 68.00544922 -23.23777344 68.94839844 -23.26367188 69.91992188 C-23.35021525 78.19923785 -21.74381472 83.7493781 -16 90 C-10.96300076 94.8970826 -5.91440925 95.764967 0.875 96.3125 C8.12485289 96.09842954 15.4808837 93.73067112 21 89 C25.45340008 83.25745779 25.86624662 78.13906701 25 71 C24.21648275 67.8972717 23.22561718 64.95461285 22 62 C16.11345809 61.38882898 12.92685922 64.34522108 8.40625 67.75390625 C5.17358054 70.77141426 4.45086498 72.67169618 4 77 C1.69 77 -0.62 77 -3 77 C-4.10789535 72.94691667 -4.33731267 68.92888626 -4.5625 64.75 C-4.60568359 64.00492188 -4.64886719 63.25984375 -4.69335938 62.4921875 C-4.79896725 60.661651 -4.89994201 58.83084824 -5 57 C-0.05 57 4.9 57 10 57 C10 50.4 10 43.8 10 37 C5.71 37 1.42 37 -3 37 C-3 27.76 -3 18.52 -3 9 C-6.74593662 9 -7.92642261 9.20675035 -11.109375 10.75 Z " fill="#3D6CB7" transform="translate(464,2)"/>
<path d="M0 0 C3.31248187 -0.02888146 6.62493167 -0.04675799 9.9375 -0.0625 C10.88302734 -0.07087891 11.82855469 -0.07925781 12.80273438 -0.08789062 C14.15141602 -0.09272461 14.15141602 -0.09272461 15.52734375 -0.09765625 C16.77632446 -0.10551147 16.77632446 -0.10551147 18.05053711 -0.11352539 C20 0 20 0 21 1 C21.08685603 2.56172745 21.10702219 4.12729344 21.09765625 5.69140625 C21.09443359 6.63564453 21.09121094 7.57988281 21.08789062 8.55273438 C21.07951172 9.54595703 21.07113281 10.53917969 21.0625 11.5625 C21.05798828 12.55958984 21.05347656 13.55667969 21.04882812 14.58398438 C21.03700007 17.05604849 21.02051849 19.52799518 21 22 C21.51949219 21.65066406 22.03898437 21.30132812 22.57421875 20.94140625 C34.35343362 13.25552298 48.54362412 15.09338817 61.83862305 17.79052734 C66.570804 18.81212439 71.29178422 19.87300157 76 21 C75.41286201 27.41826701 74.20925681 32.94855742 72 39 C65.93042551 38.37315219 59.94751511 37.54747459 53.9375 36.5 C48.30188193 35.52283704 42.68100555 34.67062949 37 34 C37 34.99 37 35.98 37 37 C41.33619138 38.47824706 45.23236671 39.15382723 49.8125 39.4375 C58.54847314 40.08258437 65.75680116 41.60452801 72 48 C74.85444547 51.52048275 75.48213938 54.40147784 75.28515625 58.94921875 C74.44444847 64.99540485 71.64480011 69.199709 67 73 C61.69588052 75.72444847 57.54818943 76.48564083 51.625 76.375 C50.46230591 76.36412354 50.46230591 76.36412354 49.27612305 76.35302734 C38.59660717 76.1044906 28.21634376 74.04767713 18 71 C18.44602291 64.30965634 21.07345542 58.97187878 24 53 C25.11117187 53.2165625 26.22234375 53.433125 27.3671875 53.65625 C35.34506821 55.1653849 42.842877 56.38843443 51 56 C49.7934375 55.89042969 48.586875 55.78085938 47.34375 55.66796875 C45.72911025 55.50838226 44.11452992 55.34819381 42.5 55.1875 C41.70851562 55.11724609 40.91703125 55.04699219 40.1015625 54.97460938 C31.70427284 54.11423134 25.18858582 51.89389126 19 46 C16.57869669 42.36804504 16.78977215 40.61650652 16.875 36.3125 C16.89304688 35.13300781 16.91109375 33.95351562 16.9296875 32.73828125 C16.95289063 31.83464844 16.97609375 30.93101563 17 30 C15.9275 29.896875 14.855 29.79375 13.75 29.6875 C11.8046875 29.12890625 11.8046875 29.12890625 10 28 C8.60851223 25.4520108 7.81661002 22.93289444 6.97265625 20.15625 C5.65125705 15.86833614 3.83978928 11.83629612 2.05078125 7.7265625 C1.05531023 5.14351874 0.45091258 2.7252958 0 0 Z " fill="#FBCC03" transform="translate(177,34)"/>
<path d="M0 0 C0 0.66 0 1.32 0 2 C1.3303125 2.12375 1.3303125 2.12375 2.6875 2.25 C6.51604913 3.11684131 8.2388027 4.2388027 11 7 C13.38638819 10.79652667 13.27848017 14.35666252 12.6640625 18.671875 C11.46520209 22.87493854 8.84630251 25.76906202 6 29 C5.44828125 29.6703125 4.8965625 30.340625 4.328125 31.03125 C0.75702601 35.29035888 -3.04847145 38.89955644 -7.3984375 42.359375 C-9.28496533 44.29191571 -9.75385029 45.32249398 -10 48 C-9.54359048 50.2463235 -9.54359048 50.2463235 -8.6875 52.5625 C-3.7922492 67.81222138 -3.7922492 67.81222138 -6 74 C-8.1796875 75.8359375 -8.1796875 75.8359375 -10.875 77.375 C-11.75929688 77.89835937 -12.64359375 78.42171875 -13.5546875 78.9609375 C-16 80 -16 80 -19 79 C-20.0625 76.91796875 -20.0625 76.91796875 -21 74.1875 C-21.309375 73.31480469 -21.61875 72.44210938 -21.9375 71.54296875 C-22.84300434 68.52351127 -23.60135498 65.52531722 -24.33203125 62.4609375 C-26.01379421 55.62328513 -28.31071819 49.05988888 -30.6875 42.4375 C-31.5081484 40.14604608 -32.32476084 37.85314146 -33.13671875 35.55859375 C-33.49467529 34.56142334 -33.85263184 33.56425293 -34.22143555 32.53686523 C-35 30 -35 30 -35 27 C-35.99 27.66 -36.98 28.32 -38 29 C-38.99 29 -39.98 29 -41 29 C-42.00990692 26.08666921 -43.00615952 23.16884681 -44 20.25 C-44.28617188 19.425 -44.57234375 18.6 -44.8671875 17.75 C-45.27324219 16.55117188 -45.27324219 16.55117188 -45.6875 15.328125 C-45.93886719 14.5949707 -46.19023438 13.86181641 -46.44921875 13.10644531 C-47 11 -47 11 -47 7 C-45.47632813 6.61908203 -45.47632813 6.61908203 -43.921875 6.23046875 C-43.2621167 6.06514648 -42.6023584 5.89982422 -41.92260742 5.72949219 C-40.45734553 5.36395883 -38.9913405 5.00139329 -37.5246582 4.64160156 C-34.30121379 3.8474247 -31.11044892 3.03362712 -27.93359375 2.06640625 C-18.69865753 -0.67911533 -9.53819613 -0.2693842 0 0 Z " fill="#FBCC03" transform="translate(574,18)"/>
<path d="M0 0 C3.99498226 3.23403326 7.20132794 6.58296763 8.0625 11.75 C6.92702349 20.50939018 -1.89215469 26.88920838 -8.375 32.125 C-27.08432358 46.125 -27.08432358 46.125 -37.375 46.125 C-38.76029821 40.67038831 -39.6146943 35.75781599 -39.375 30.125 C-38.71113281 30.00382812 -38.04726563 29.88265625 -37.36328125 29.7578125 C-27.40095484 27.86715201 -19.38382729 24.74636089 -13.375 16.125 C-22.46046681 16.43717836 -31.06328288 16.89308082 -39.859375 19.40625 C-42.34962553 20.11775015 -44.83034541 20.64902144 -47.375 21.125 C-48.02381448 18.58406145 -48.66912899 16.04231727 -49.3125 13.5 C-49.49490234 12.78714844 -49.67730469 12.07429688 -49.86523438 11.33984375 C-50.88816799 7.28530687 -51.75457367 3.26552941 -52.375 -0.875 C-49.87556796 -1.35729332 -47.37551757 -1.83589426 -44.875 -2.3125 C-44.17890625 -2.44720703 -43.4828125 -2.58191406 -42.765625 -2.72070312 C-28.32948377 -5.4608966 -13.31020316 -7.39455731 0 0 Z " fill="#FACC04" transform="translate(932.375,56.875)"/>
<path d="M0 0 C4.6312534 1.54375113 6.60193992 4.8647089 9 9 C11.7997434 16.17434245 11.01465323 22.03845137 8 29 C4.16020124 36.25295322 -2.64576713 41.01965532 -9 46 C-10.175625 46.99 -10.175625 46.99 -11.375 48 C-14.4515437 50.3440333 -17.61103714 52.13939294 -21 54 C-21.32423323 56.9888398 -21.32423323 56.9888398 -19.5625 58.6875 C-16.51674029 63.19522437 -16.68447264 68.31247103 -17.5625 73.5 C-19.10699608 79.38331074 -22.07046724 83.83620649 -26.97265625 87.45703125 C-32.48899957 90.45047345 -37.13693618 90.19297382 -43.1796875 88.91796875 C-47.2023034 87.60866856 -49.81048263 85.75458318 -53 83 C-52.01 82.505 -52.01 82.505 -51 82 C-50.195625 82.474375 -49.39125 82.94875 -48.5625 83.4375 C-43.64348994 85.59496055 -39.29773902 85.71057602 -34 85 C-28.76130166 82.42827536 -25.56289018 78.81320233 -22.75 73.75 C-20.86007655 66.8202807 -21.78628527 61.30382504 -25 55 C-25.66761347 53.66714049 -26.33449099 52.33391153 -27 51 C-26.38253906 50.64808594 -25.76507812 50.29617187 -25.12890625 49.93359375 C-19.02285339 46.37405304 -13.45397862 42.4891954 -8 38 C-7.28585937 37.4328125 -6.57171875 36.865625 -5.8359375 36.28125 C-0.31523271 31.73235467 3.71722686 26.84831941 6 20 C6.27690465 14.46190705 5.74960184 10.24880553 4 5 C3.34 5 2.68 5 2 5 C1.34 3.35 0.68 1.7 0 0 Z " fill="#BCBDBF" transform="translate(942,53)"/>
<path d="M0 0 C3.84772066 1.51160454 5.93802845 3.41064212 8 7 C8.10765907 13.67486244 5.98109036 19.48011584 3.46508789 25.59521484 C2.15539723 29.06669507 1.81443012 30.5688556 3.3046875 34.03125 C3.86414063 35.0109375 4.42359375 35.990625 5 37 C6.54105313 45.31973619 6.34783279 52.23302792 3 60 C2.34 60 1.68 60 1 60 C0.61328125 60.87785156 0.61328125 60.87785156 0.21875 61.7734375 C-2.37488902 66.51181648 -6.55185931 70.22504899 -11.71484375 71.859375 C-13.46685625 72.19117651 -15.2281133 72.47880572 -16.99609375 72.7109375 C-18.99468065 72.79504464 -18.99468065 72.79504464 -20 74 C-34.37317397 75.17148126 -51.43764717 72.92473268 -65 68 C-65.33 67.34 -65.66 66.68 -66 66 C-60.832811 66.52383904 -55.77173778 67.18425657 -50.67163086 68.15576172 C-36.45780496 70.81795778 -21.30456606 72.82918344 -8.75 64.3125 C-3.96641296 60.49326883 -0.92652308 55.77956924 1 50 C1.52206124 44.22309282 1.92819763 38.91144284 -1.125 33.8125 C-2.95582198 30.69428024 -3.1848766 28.98903359 -2.4375 25.4375 C-1.63256175 22.61298613 -0.64017627 20.23883442 0.625 17.5625 C2.38702295 12.99725872 2.62500257 8.84579915 2 4 C1.05762508 1.76357275 1.05762508 1.76357275 0 0 Z " fill="#BDBEBF" transform="translate(259,48)"/>
<path d="M0 0 C4.37071514 0.12784542 6.91297895 1.64840776 10.0234375 4.65234375 C12.4075642 8.06959201 11.9586128 10.42948939 11.3125 14.5 C9.67562815 18.08552881 8.62277417 19.29315055 5.3125 21.5 C0.29845595 22.0753821 -1.72000787 22.06290451 -6.125 19.5 C-8.86582877 16.29122485 -9.6924587 14.61094665 -9.93359375 10.49609375 C-9.24561526 4.91582379 -5.33793498 0.72378779 0 0 Z " fill="#F8CB06" transform="translate(900.6875,108.5)"/>
<path d="M0 0 C3.82266617 1.22871412 5.16869883 3.52707723 7.0703125 6.953125 C11.10189632 15.82938517 11.877561 26.91236953 8.984375 36.29296875 C7.14581684 40.04207681 5.19857754 43.26448731 2 46 C1.34 46 0.68 46 0 46 C0 46.66 0 47.32 0 48 C-1.74802146 48.81674796 -3.49850189 49.62823451 -5.25 50.4375 C-6.22453125 50.88996094 -7.1990625 51.34242187 -8.203125 51.80859375 C-16.79720181 55.46947842 -26.66853207 55.1957593 -35.375 52 C-36.92635849 51.35620858 -38.47241299 50.69832549 -40 50 C-40 49.67 -40 49.34 -40 49 C-39.38253906 49.0721875 -38.76507813 49.144375 -38.12890625 49.21875 C-35.42153285 49.51544845 -32.71356765 49.7668625 -30 50 C-29.27039063 50.06832031 -28.54078125 50.13664062 -27.7890625 50.20703125 C-18.90261765 50.65300525 -8.80660169 47.78561144 -2 42 C5.03477371 34.63802752 6.61526934 28.70803306 6.43359375 18.7265625 C5.65066662 11.99762122 3.00863343 6.01726686 0 0 Z " fill="#BABCBF" transform="translate(491,56)"/>
<path d="M0 0 C-0.33 0.99 -0.66 1.98 -1 3 C-2.94604492 3.85961914 -2.94604492 3.85961914 -5.48046875 4.53515625 C-6.39763672 4.78716797 -7.31480469 5.03917969 -8.25976562 5.29882812 C-9.22591797 5.55083984 -10.19207031 5.80285156 -11.1875 6.0625 C-13.07710672 6.57316975 -14.96643728 7.08486264 -16.85546875 7.59765625 C-17.74540527 7.83629395 -18.6353418 8.07493164 -19.55224609 8.32080078 C-22.40508082 9.11240124 -25.20689618 10.01889294 -28 11 C-28 11.66 -28 12.32 -28 13 C-31.01826782 13.67864775 -34.0399527 14.34069713 -37.0625 15 C-38.33383789 15.28617188 -38.33383789 15.28617188 -39.63085938 15.578125 C-44.53829014 16.63919111 -48.98008123 17.21796119 -54 17 C-54.33 17.99 -54.66 18.98 -55 20 C-55.66 20 -56.32 20 -57 20 C-57 20.66 -57 21.32 -57 22 C-73.4458306 25.64018385 -73.4458306 25.64018385 -81 25 C-81.66 24.34 -82.32 23.68 -83 23 C-79.22735419 21.11367709 -74.56282388 21.24541963 -70.38476562 20.83789062 C-64.47816366 20.20877696 -64.47816366 20.20877696 -59 18 C-58.67 17.01 -58.34 16.02 -58 15 C-55.26171875 14.15625 -55.26171875 14.15625 -51.6875 13.5 C-50.42679688 13.2525 -49.16609375 13.005 -47.8671875 12.75 C-46.59101562 12.5025 -45.31484375 12.255 -44 12 C-41.76637783 11.52029591 -39.53660839 11.02204011 -37.3125 10.5 C-36.35988281 10.2834375 -35.40726563 10.066875 -34.42578125 9.84375 C-31.97850097 9.2089709 -31.97850097 9.2089709 -30.67675781 7.54541016 C-28.48791021 5.52802441 -26.62737932 5.13616969 -23.74609375 4.4296875 C-22.72708984 4.17316406 -21.70808594 3.91664063 -20.65820312 3.65234375 C-19.59537109 3.39582031 -18.53253906 3.13929688 -17.4375 2.875 C-15.33160083 2.35329688 -13.22611002 1.82994172 -11.12109375 1.3046875 C-10.1870874 1.07765137 -9.25308105 0.85061523 -8.29077148 0.61669922 C-2.83772398 -0.85131719 -2.83772398 -0.85131719 0 0 Z " fill="#B6BABF" transform="translate(124,126)"/>
<path d="M0 0 C0.99 0 1.98 0 3 0 C4.6875 2 4.6875 2 6 4 C-1.33117399 8.68789895 -7.71871456 8.44695662 -16.25 8.1875 C-18.75512573 8.13520359 -21.26033776 8.08685117 -23.765625 8.04296875 C-24.86680664 8.01227295 -25.96798828 7.98157715 -27.10253906 7.94995117 C-29.63827237 7.99375176 -31.58368701 8.31959053 -34 9 C-35.62957268 8.88644093 -37.2552231 8.71148422 -38.875 8.5 C-46.07225424 7.77759902 -53.14869264 8.25713403 -60.34521484 8.76953125 C-69.1761141 9.31631692 -69.1761141 9.31631692 -73 7 C-73.33 6.34 -73.66 5.68 -74 5 C-49.99311273 4.04298244 -26.0238192 3.87951017 -2 4 C-2 3.34 -2 2.68 -2 2 C-1.34 2 -0.68 2 0 2 C0 1.34 0 0.68 0 0 Z " fill="#BCBDBF" transform="translate(445,101)"/>
<path d="M0 0 C3.27274159 1.08629895 5.84855127 1.30224441 9.28442383 1.34301758 C10.9946875 1.38072266 10.9946875 1.38072266 12.73950195 1.41918945 C15.12746593 1.45451824 17.51549418 1.48572867 19.90356445 1.51293945 C21.60802734 1.55257812 21.60802734 1.55257812 23.34692383 1.59301758 C24.38228271 1.60647217 25.4176416 1.61992676 26.484375 1.63378906 C29.42950971 2.08207457 30.32355631 2.71752379 32.11645508 5.03442383 C6.26931577 6.75933559 6.26931577 6.75933559 1.16723633 3.96801758 C-1.4172496 2.79146113 -2.96618341 3.01797128 -5.75854492 3.40942383 C-9.50298286 3.88024813 -13.10170804 4.13394585 -16.88354492 4.03442383 C-16.86291992 4.98317383 -16.84229492 5.93192383 -16.82104492 6.90942383 C-16.88354492 10.03442383 -16.88354492 10.03442383 -17.88354492 12.03442383 C-18.54354492 12.03442383 -19.20354492 12.03442383 -19.88354492 12.03442383 C-20.21354492 13.02442383 -20.54354492 14.01442383 -20.88354492 15.03442383 C-24.45988806 16.22653821 -27.12419175 16.29368956 -30.88354492 16.03442383 C-33.82104492 14.53442383 -33.82104492 14.53442383 -35.88354492 13.03442383 C-32.88354492 12.03442383 -32.88354492 12.03442383 -30.00854492 12.28442383 C-26.71960729 12.30771297 -26.71960729 12.30771297 -24.13354492 9.90942383 C-21.81682809 6.94917455 -20.96707517 4.59037311 -19.88354492 1.03442383 C-17.17670447 0.64256497 -14.46950677 0.27058815 -11.75854492 -0.09057617 C-10.99799805 -0.20272461 -10.23745117 -0.31487305 -9.45385742 -0.43041992 C-8.70620117 -0.52709961 -7.95854492 -0.6237793 -7.18823242 -0.72338867 C-6.50744629 -0.81765137 -5.82666016 -0.91191406 -5.12524414 -1.0090332 C-2.88354492 -0.96557617 -2.88354492 -0.96557617 0 0 Z " fill="#BCBDBF" transform="translate(704.883544921875,112.965576171875)"/>
<path d="M0 0 C0.66 0 1.32 0 2 0 C2.495 2.475 2.495 2.475 3 5 C-3.01472016 10.6224558 -11.16519928 17.01632112 -19.79296875 16.9921875 C-20.91316406 16.95351562 -22.03335938 16.91484375 -23.1875 16.875 C-30.1644196 16.80999764 -36.54087924 17.86747237 -43.35546875 19.2578125 C-55.66004899 21.76356839 -55.66004899 21.76356839 -62 19 C-62 18.67 -62 18.34 -62 18 C-58.21105278 17.33750971 -54.41902677 16.69524655 -50.625 16.0625 C-48.92017456 15.77802002 -48.92017456 15.77802002 -47.1809082 15.48779297 C-40.478917 14.41619192 -33.96767015 13.75233763 -27.1875 13.625 C-18.15600475 13.37943064 -10.44613158 10.61282482 -3.875 4.25 C-3.25625 3.5075 -2.6375 2.765 -2 2 C-1.34 1.34 -0.68 0.68 0 0 Z " fill="#B9BBBF" transform="translate(187,110)"/>
<path d="M0 0 C4.14612814 0.13813025 8.29181162 0.28678859 12.4375 0.4375 C13.62150391 0.47681641 14.80550781 0.51613281 16.02539062 0.55664062 C17.71245117 0.61948242 17.71245117 0.61948242 19.43359375 0.68359375 C20.47572021 0.72025146 21.51784668 0.75690918 22.59155273 0.79467773 C25 1 25 1 26 2 C27.80625018 2.20471212 29.61955053 2.34782256 31.43359375 2.46484375 C32.55830078 2.54283203 33.68300781 2.62082031 34.84179688 2.70117188 C37.20367216 2.85640648 39.56564929 3.01010054 41.92773438 3.16210938 C48.05552834 3.58962988 53.92698169 4.26570688 59.92895508 5.57446289 C66.84932442 6.99638954 73.31808223 5.97982749 80 4 C80.495 5.98 80.495 5.98 81 8 C75.56686723 11.12855749 68.60691608 11.83498687 62.51953125 10.42578125 C60.93087104 9.88026141 59.34501108 9.32653371 57.76171875 8.765625 C52.00809812 7.17056186 45.93555346 7.2929565 40 7 C38.08202812 6.84909358 36.16500517 6.6847812 34.25 6.5 C33.49203125 6.4278125 32.7340625 6.355625 31.953125 6.28125 C30 6 30 6 27 5 C24.62798218 4.79522148 22.25204093 4.63445888 19.875 4.5 C18.52336833 4.41515732 17.17180475 4.32922282 15.8203125 4.2421875 C13.58600183 4.10054408 11.35164704 3.95958776 9.1171875 3.8203125 C4.93634128 3.47535819 2.7581395 3.18377831 0 0 Z " fill="#BBBDBF" transform="translate(737,118)"/>
<path d="M0 0 C1.65 0 3.3 0 5 0 C5.08564209 0.94319092 5.17128418 1.88638184 5.25952148 2.8581543 C5.57980979 6.37137752 5.90250245 9.88436289 6.22680664 13.3972168 C6.36643728 14.91503255 6.5051207 16.43293576 6.64282227 17.95092773 C6.8413952 20.13809748 7.0434195 22.32492571 7.24609375 24.51171875 C7.42676392 26.48338013 7.42676392 26.48338013 7.61108398 28.49487305 C7.93234335 31.39024077 8.38855525 34.15631698 9 37 C9.66920152 44.02661597 9.66920152 44.02661597 7.625 47 C6 48 6 48 4 48 C-0.31272831 15.08045392 -0.31272831 15.08045392 0 0 Z " fill="#4771AC" transform="translate(330,43)"/>
<path d="M0 0 C0.495 1.485 0.495 1.485 1 3 C-3.36610897 4.98459499 -7.68438163 5.82136259 -12.375 6.625 C-13.10460937 6.7590625 -13.83421875 6.893125 -14.5859375 7.03125 C-19.11948976 7.82462164 -23.38482208 8.03435616 -28 8 C-28.99 8.33 -29.98 8.66 -31 9 C-34.93311853 9.2588352 -38.87177186 9.23140069 -42.8125 9.25 C-44.43381836 9.2809375 -44.43381836 9.2809375 -46.08789062 9.3125 C-51.89261148 9.34100692 -56.10105333 9.24886515 -61 6 C-61 5.67 -61 5.34 -61 5 C-60.26177002 5.01571045 -59.52354004 5.0314209 -58.76293945 5.04760742 C-40.36418933 5.38560477 -22.86636553 4.65921822 -4.93432617 0.38037109 C-3 0 -3 0 0 0 Z " fill="#B5B9BF" transform="translate(369,103)"/>
<path d="M0 0 C1.34882775 2.69765551 1 5.01578022 1 8 C2.1043392 9.32420249 2.1043392 9.32420249 4.875 9.1875 C8.16570758 9.25343513 8.16570758 9.25343513 11 7 C10.70473074 10.44480805 9.95938703 12.05494696 7.875 14.875 C5 17 5 17 1.4375 17 C-3.98 15.424 -3.98 15.424 -6 13 C-6.5625 9.625 -6.5625 9.625 -6 6 C-3.5625 3.125 -3.5625 3.125 -1 1 C-0.67 0.67 -0.34 0.34 0 0 Z " fill="#4671AD" transform="translate(602,57)"/>
<path d="M0 0 C0.66 0.33 1.32 0.66 2 1 C1.814375 2.134375 1.62875 3.26875 1.4375 4.4375 C1.2209375 6.2009375 1.2209375 6.2009375 1 8 C2.1043392 9.32420249 2.1043392 9.32420249 4.875 9.1875 C8.16570758 9.25343513 8.16570758 9.25343513 11 7 C10.66916395 9.97752446 10.12584648 11.81374721 8.4375 14.3125 C5.42945771 16.39499082 3.50314187 16.58693544 -0.09375 16.37890625 C-2 16 -2 16 -4.5 14.4375 C-6.62780647 10.97981448 -6.69955049 8.98743781 -6 5 C-4.16837359 2.88251282 -2.33874136 1.60788468 0 0 Z " fill="#4771AC" transform="translate(809,75)"/>
<path d="M0 0 C2.46800047 1.15173355 4.04783565 2.04783565 6 4 C6.31734626 6.73636304 6.51614602 9.37892381 6.625 12.125 C6.66294678 12.92019043 6.70089355 13.71538086 6.73999023 14.53466797 C7.0815862 22.35651836 7.09597444 30.17275142 7 38 C5.68 38.66 4.36 39.32 3 40 C2.98018066 39.00145996 2.96036133 38.00291992 2.93994141 36.97412109 C2.86355736 33.25024268 2.774892 29.52673839 2.68261719 25.80322266 C2.64446241 24.19522518 2.60958652 22.58714627 2.578125 20.97900391 C2.5321794 18.66018684 2.47423619 16.3419238 2.4140625 14.0234375 C2.39673569 12.95432632 2.39673569 12.95432632 2.37905884 11.86361694 C2.25352521 7.56588751 1.56115961 4.00423744 0 0 Z " fill="#BFBFBF" transform="translate(650,12)"/>
<path d="M0 0 C0.33 0 0.66 0 1 0 C1.33 2.64 1.66 5.28 2 8 C4.34533951 8.76956136 4.34533951 8.76956136 7 9 C8.7087646 7.62485459 8.7087646 7.62485459 10 6 C10.66 6 11.32 6 12 6 C11.7082593 9.40364149 10.95421125 11.06382675 8.9375 13.875 C5.86688975 16.09629252 5.40615668 16.32515255 1.875 16 C-0.43810479 15.524286 -1.95893385 15.02438302 -4 13.8125 C-5.57069977 10.96560666 -5.50288386 9.20588463 -5 6 C-3.52985737 3.67622617 -1.94311176 1.99050473 0 0 Z " fill="#4872AB" transform="translate(162,73)"/>
<path d="M0 0 C1.32 1.32 2.64 2.64 4 4 C2.6396147 8.45217009 1.11130825 10.73458525 -3 13 C-6.68852999 13.47679382 -10.29569397 13.21764932 -14 13 C-15.46347672 12.94233767 -16.92702446 12.88646007 -18.390625 12.83203125 C-19.92716379 12.76483615 -21.46362433 12.69582698 -23 12.625 C-23.74217773 12.59446533 -24.48435547 12.56393066 -25.24902344 12.5324707 C-28.96249171 12.3256457 -30.83993531 12.10670979 -34 10 C-33.67 9.34 -33.34 8.68 -33 8 C-31.88625 8.165 -30.7725 8.33 -29.625 8.5 C-24.67308773 9.0220866 -19.72551078 9.25068742 -14.75 9.375 C-13.96963379 9.41302734 -13.18926758 9.45105469 -12.38525391 9.49023438 C-8.07732111 9.55308343 -6.50287017 9.39928023 -3.00390625 6.62109375 C-1.194439 4.25432469 -0.32415272 2.91737445 0 0 Z " fill="#BDBEBF" transform="translate(653,111)"/>
<path d="M0 0 C4.06254338 1.86657399 5.87496031 3.76684218 7.44140625 7.98828125 C9.34031777 14.82701854 9.13225459 21.9611167 9 29 C7.0625 28.625 7.0625 28.625 5 28 C3.83610672 25.67221345 3.73891164 23.97917563 3.53515625 21.38671875 C3.45716797 20.46826172 3.37917969 19.54980469 3.29882812 18.60351562 C3.1422449 16.67145977 2.98856213 14.73916649 2.83789062 12.80664062 C2.28510274 6.19584947 2.28510274 6.19584947 0 0 Z " fill="#B2B7BF" transform="translate(359,6)"/>
<path d="M0 0 C3.08991606 0.4681691 5.3552496 1.17414196 8.1875 2.5625 C17.08868088 6.44005305 27.02989808 3.17143678 36 1 C35.28125 4.78125 35.28125 4.78125 32.75 6.75 C23.98064801 9.67311733 14.429772 8.61492925 6 5 C3.78552774 3.80178855 1.98739065 2.56899262 0 1 C0 0.67 0 0.34 0 0 Z " fill="#B5B9BF" transform="translate(578,103)"/>
<path d="M0 0 C2.5216376 0.11503269 5.0418119 0.24174777 7.5625 0.375 C8.61920898 0.42140625 8.61920898 0.42140625 9.69726562 0.46875 C14.41295741 0.72952558 18.50385496 1.54658123 23 3 C22.01 3.495 22.01 3.495 21 4 C21 4.66 21 5.32 21 6 C22.32 6.66 23.64 7.32 25 8 C22.16488812 7.74253792 19.33269821 7.46943783 16.5 7.1875 C15.70851562 7.11724609 14.91703125 7.04699219 14.1015625 6.97460938 C8.61810156 6.41277936 4.08749473 5.12951328 -1 3 C-0.67 2.01 -0.34 1.02 0 0 Z " fill="#4671AC" transform="translate(214,68)"/>
<path d="M0 0 C1.03898438 0.2165625 2.07796875 0.433125 3.1484375 0.65625 C14.50840683 3.29820944 14.50840683 3.29820944 26 3 C27.34864352 2.02074598 28.6839702 1.02266482 30 0 C32.25 0.3125 32.25 0.3125 34 1 C32.25 5.875 32.25 5.875 30 7 C23.79778473 7.48617312 17.73054458 6.71531781 11.625 5.6875 C10.83222656 5.56955078 10.03945313 5.45160156 9.22265625 5.33007812 C8.46082031 5.20439453 7.69898438 5.07871094 6.9140625 4.94921875 C6.2329541 4.83924561 5.5518457 4.72927246 4.85009766 4.6159668 C2.58862173 3.86303677 1.51502429 2.81408101 0 1 C0 0.67 0 0.34 0 0 Z " fill="#BCBEBF" transform="translate(854,131)"/>
<path d="M0 0 C10.23 0 20.46 0 31 0 C31.66 1.32 32.32 2.64 33 4 C27.27600998 5.27845462 21.7513475 5.00327652 15.9375 4.75 C14.95716797 4.72292969 13.97683594 4.69585937 12.96679688 4.66796875 C3.94057075 4.28804613 3.94057075 4.28804613 0 1 C0 0.67 0 0.34 0 0 Z " fill="#BDBEBF" transform="translate(820,127)"/>
<path d="M0 0 C3.39639787 1.19332898 5.71645292 2.19144536 8 5 C8.79956055 7.36010742 8.79956055 7.36010742 9.38671875 10.10546875 C9.60263672 11.08837891 9.81855469 12.07128906 10.04101562 13.08398438 C10.25435547 14.10814453 10.46769531 15.13230469 10.6875 16.1875 C10.91244141 17.22326172 11.13738281 18.25902344 11.36914062 19.32617188 C11.92273871 21.88214599 12.46591729 24.43988957 13 27 C11.68 27.33 10.36 27.66 9 28 C7.92673955 24.34614441 6.90748955 20.69937895 6.03515625 16.9921875 C5.87466797 16.31542969 5.71417969 15.63867188 5.54882812 14.94140625 C5.22306969 13.55725999 4.90280363 12.17181022 4.58789062 10.78515625 C3.61101709 6.7142012 2.36337268 3.46089332 0 0 Z " fill="#BDBEBF" transform="translate(103,29)"/>
<path d="M0 0 C5 5 5 5 5.56762695 7.49536133 C5.54144287 8.3489624 5.51525879 9.20256348 5.48828125 10.08203125 C5.47216797 11.01337891 5.45605469 11.94472656 5.43945312 12.90429688 C5.39755859 13.86400391 5.35566406 14.82371094 5.3125 15.8125 C5.28994141 16.79154297 5.26738281 17.77058594 5.24414062 18.77929688 C5.18539727 21.18777455 5.10332129 23.59309078 5 26 C3.68 26 2.36 26 1 26 C0.67 17.42 0.34 8.84 0 0 Z " fill="#B3B8BF" transform="translate(468,5)"/>
<path d="M0 0 C2 1 2 1 3.1171875 3.75390625 C4.58453519 9.37203884 4.21014054 15.17741506 4.125 20.9375 C4.11597656 22.09830078 4.10695313 23.25910156 4.09765625 24.45507812 C4.07421162 27.30360108 4.04139522 30.15169078 4 33 C3.67 31.68 3.34 30.36 3 29 C1.68 29.99 0.36 30.98 -1 32 C-0.9285376 31.41299316 -0.8570752 30.82598633 -0.78344727 30.22119141 C-0.03950962 23.58227889 0.12043422 17.05080469 0.0625 10.375 C0.05798828 9.37082031 0.05347656 8.36664063 0.04882812 7.33203125 C0.03718967 4.88795529 0.0208424 2.4440118 0 0 Z " fill="#597A9B" transform="translate(762,73)"/>
<path d="M0 0 C0.99 0.66 1.98 1.32 3 2 C3 2.66 3 3.32 3 4 C-1.95223421 8.17294862 -7.37224775 12.5218997 -14.0625 12.6875 C-18.00751656 11.99868758 -18.58322333 11.80827944 -21 9 C-19.7625 9 -18.525 9 -17.25 9 C-10.41081903 8.31280957 -5.36825957 3.98759044 0 0 Z " fill="#BABCBF" transform="translate(573,98)"/>
<path d="M0 0 C0.66 0 1.32 0 2 0 C2.33 2.31 2.66 4.62 3 7 C3.99 7 4.98 7 6 7 C6 9.31 6 11.62 6 14 C-0.31995277 13.40377804 -0.31995277 13.40377804 -3 11.8125 C-4.575879 8.95621931 -3.87415751 7.05955129 -3 4 C-1.5625 1.625 -1.5625 1.625 0 0 Z " fill="#4973AA" transform="translate(411,57)"/>
<path d="M0 0 C-0.33 4.95 -0.66 9.9 -1 15 C-1.66 15 -2.32 15 -3 15 C-3 14.34 -3 13.68 -3 13 C-3.5775 12.731875 -4.155 12.46375 -4.75 12.1875 C-7.0325868 10.98280141 -8.9737942 9.59201885 -11 8 C-9.83630874 4.50892621 -9.11026462 4.14777237 -6.0625 2.3125 C-5.35222656 1.87550781 -4.64195312 1.43851562 -3.91015625 0.98828125 C-2 0 -2 0 0 0 Z " fill="#4E75A5" transform="translate(667,74)"/>
<path d="M0 0 C0.33 0 0.66 0 1 0 C3.56768559 13.75545852 3.56768559 13.75545852 3 20 C1.625 22 1.625 22 0 23 C-0.66 23 -1.32 23 -2 23 C-3.72601642 14.36991789 -3.15093118 8.10239446 0 0 Z " fill="#4E75A6" transform="translate(336,68)"/>
<path d="M0 0 C2.26075285 0.90430114 3.70443103 1.58127729 5.125 3.59375 C6.35144544 6.96647496 6.2118885 10.21430637 6.125 13.75 C6.11597656 14.44738281 6.10695313 15.14476562 6.09765625 15.86328125 C6.07419888 17.57566958 6.03833104 19.28788004 6 21 C4.68 21.33 3.36 21.66 2 22 C1.93941406 20.74703125 1.87882812 19.4940625 1.81640625 18.203125 C1.73197744 16.55207276 1.64733061 14.90103165 1.5625 13.25 C1.52318359 12.425 1.48386719 11.6 1.44335938 10.75 C1.40146484 9.95078125 1.35957031 9.1515625 1.31640625 8.328125 C1.27974854 7.5949707 1.24309082 6.86181641 1.20532227 6.10644531 C0.99885215 3.98822395 0.56867914 2.0480544 0 0 Z " fill="#BCBDBF" transform="translate(481,33)"/>
<path d="M0 0 C1.22589844 0.01353516 1.22589844 0.01353516 2.4765625 0.02734375 C3.41628906 0.04474609 3.41628906 0.04474609 4.375 0.0625 C3.02263423 3.00129484 1.47557341 5.35482911 -0.625 7.8125 C-1.140625 8.42609375 -1.65625 9.0396875 -2.1875 9.671875 C-3.625 11.0625 -3.625 11.0625 -5.625 11.0625 C-5.955 7.7625 -6.285 4.4625 -6.625 1.0625 C-4.21954362 -0.14022819 -2.67503047 -0.03821472 0 0 Z " fill="#4A73A9" transform="translate(563.625,37.9375)"/>
<path d="M0 0 C4.50344023 3.37758017 8.07683316 6.58418532 10 12 C10.30085272 14.76590401 10.19611918 17.20530171 10 20 C8.68 20.33 7.36 20.66 6 21 C5.85304688 19.69675781 5.85304688 19.69675781 5.703125 18.3671875 C4.85443452 11.82641779 4.17586631 7.15023511 0 2 C0 1.34 0 0.68 0 0 Z " fill="#BABDBF" transform="translate(590,17)"/>
<path d="M0 0 C-3.50897269 4.18423892 -7.08060535 8.19588166 -11 12 C-11.33 11.67 -11.66 11.34 -12 11 C-11.78847825 7.2631157 -11.46935216 4.70402823 -9.375 1.5625 C-6.16093309 -0.5520177 -3.76478675 -0.28959898 0 0 Z " fill="#416EB1" transform="translate(694,69)"/>
<path d="M0 0 C1.32 0 2.64 0 4 0 C4 3.96 4 7.92 4 12 C3.67 12 3.34 12 3 12 C2.67 20.58 2.34 29.16 2 38 C1.67 38 1.34 38 1 38 C0.67 25.46 0.34 12.92 0 0 Z " fill="#708685" transform="translate(437,59)"/>
<path d="M0 0 C4.43353442 1.35469107 6.58269455 3.02871248 9 7 C9.60163258 9.70233303 9.81167701 12.22223595 10 15 C8.35 15.33 6.7 15.66 5 16 C4.97421875 15.34773438 4.9484375 14.69546875 4.921875 14.0234375 C4.53871259 8.11925307 3.75534928 4.60333137 0 0 Z " fill="#BCBEBF" transform="translate(202,26)"/>
<path d="M0 0 C0 2.64 0 5.28 0 8 C-0.57234375 7.76410156 -1.1446875 7.52820313 -1.734375 7.28515625 C-4.10980702 6.7346044 -4.10980702 6.7346044 -6.140625 8.43359375 C-7.18476562 9.42552734 -7.18476562 9.42552734 -8.25 10.4375 C-8.95640625 11.09621094 -9.6628125 11.75492188 -10.390625 12.43359375 C-11.18726563 13.20896484 -11.18726563 13.20896484 -12 14 C-12.66 13.67 -13.32 13.34 -14 13 C-12.04808712 10.82722848 -10.08902463 8.66177539 -8.125 6.5 C-7.56941406 5.87996094 -7.01382813 5.25992188 -6.44140625 4.62109375 C-5.90644531 4.03457031 -5.37148438 3.44804688 -4.8203125 2.84375 C-4.32805176 2.29912109 -3.83579102 1.75449219 -3.32861328 1.19335938 C-2 0 -2 0 0 0 Z " fill="#5478A0" transform="translate(710,73)"/>
<path d="M0 0 C1.07636719 0.13857422 2.15273437 0.27714844 3.26171875 0.41992188 C4.38964844 0.57138672 5.51757812 0.72285156 6.6796875 0.87890625 C8.38318359 1.10030273 8.38318359 1.10030273 10.12109375 1.32617188 C12.93305689 1.69243598 15.74414599 2.06441322 18.5546875 2.44140625 C18.2246875 3.10140625 17.8946875 3.76140625 17.5546875 4.44140625 C9.795896 4.75666189 2.13108256 4.22538299 -5.4453125 2.44140625 C-6.1053125 1.78140625 -6.7653125 1.12140625 -7.4453125 0.44140625 C-4.71803559 -0.9222322 -3.0145543 -0.39665188 0 0 Z " fill="#68828D" transform="translate(210.4453125,86.55859375)"/>
<path d="M0 0 C0 0.66 0 1.32 0 2 C-2.70716242 2.90238747 -4.23776768 3.11851302 -7.01171875 3.09765625 C-8.14770508 3.09282227 -8.14770508 3.09282227 -9.30664062 3.08789062 C-10.09232422 3.07951172 -10.87800781 3.07113281 -11.6875 3.0625 C-12.48478516 3.05798828 -13.28207031 3.05347656 -14.10351562 3.04882812 C-16.06904257 3.0370585 -18.03453085 3.01912348 -20 3 C-20.33 2.34 -20.66 1.68 -21 1 C-13.97252688 0.33411422 -7.05985273 -0.11766421 0 0 Z " fill="#BEBFBF" transform="translate(298,56)"/>
<path d="M0 0 C6.23505228 0.64285324 12.3861106 1.50005935 18.5625 2.5625 C19.38041016 2.70107422 20.19832031 2.83964844 21.04101562 2.98242188 C23.02772915 3.3193499 25.01392199 3.65934584 27 4 C27 4.33 27 4.66 27 5 C8.17722218 4.17879959 8.17722218 4.17879959 1 2 C0.67 1.34 0.34 0.68 0 0 Z " fill="#ACB4BF" transform="translate(193,114)"/>
<path d="M0 0 C1.91595968 -0.08133791 3.83291932 -0.13934367 5.75 -0.1875 C7.35101562 -0.23970703 7.35101562 -0.23970703 8.984375 -0.29296875 C12.30027855 0.02917214 13.59016673 0.77148914 16 3 C13.23749964 4.38125018 11.05268901 4.19079306 8 4 C7.34 3.34 6.68 2.68 6 2 C4.01178687 1.60235737 2.01055661 1.26224651 0 1 C0 0.67 0 0.34 0 0 Z " fill="#AFB5BF" transform="translate(750,119)"/>
<path d="M0 0 C1.32 0 2.64 0 4 0 C4 3.96 4 7.92 4 12 C0.49718958 7.32958611 0.4655008 5.58600962 0 0 Z " fill="#69828C" transform="translate(437,59)"/>
<path d="M0 0 C1.32 0.33 2.64 0.66 4 1 C3.34 1 2.68 1 2 1 C2 1.66 2 2.32 2 3 C3.32 3.66 4.64 4.32 6 5 C0.06 4.34 -5.88 3.68 -12 3 C-12 2.67 -12 2.34 -12 2 C-8.04 2 -4.08 2 0 2 C0 1.34 0 0.68 0 0 Z " fill="#6B848A" transform="translate(233,71)"/>
<path d="M0 0 C-1.49097658 3.7952131 -3.75700849 5.61042731 -7 8 C-7.66 7.67 -8.32 7.34 -9 7 C-7.88121617 5.82737096 -6.75476949 4.66204862 -5.625 3.5 C-4.68527344 2.52546875 -4.68527344 2.52546875 -3.7265625 1.53125 C-2 0 -2 0 0 0 Z " fill="#4771AC" transform="translate(705,79)"/>
<path d="M0 0 C0.66 0.33 1.32 0.66 2 1 C1.66226563 1.47050781 1.32453125 1.94101563 0.9765625 2.42578125 C0.30753906 3.35970703 0.30753906 3.35970703 -0.375 4.3125 C-0.81585937 4.92738281 -1.25671875 5.54226562 -1.7109375 6.17578125 C-2.83410907 7.7652392 -3.92041447 9.38062171 -5 11 C-4.50769231 4.6 -4.50769231 4.6 -1.9375 1.5625 C-0.9784375 0.7890625 -0.9784375 0.7890625 0 0 Z " fill="#6B848A" transform="translate(687,69)"/>
<path d="M0 0 C3.53233755 1.17744585 3.86308075 1.95605641 5.6875 5.0625 C6.12449219 5.79597656 6.56148437 6.52945313 7.01171875 7.28515625 C7.33785156 7.85105469 7.66398438 8.41695312 8 9 C7.01 9.33 6.02 9.66 5 10 C4.67 8.35 4.34 6.7 4 5 C3.34 5 2.68 5 2 5 C1.34 3.35 0.68 1.7 0 0 Z " fill="#ACB4BF" transform="translate(942,53)"/>
<path d="M0 0 C1.43088528 2.86177057 0.59991697 4.93375773 0 8 C-0.66 7.01 -1.32 6.02 -2 5 C-3.32 5.99 -4.64 6.98 -6 8 C-4.73058503 4.08597051 -3.48832306 2.20927127 0 0 Z " fill="#617E94" transform="translate(602,57)"/>
</svg>
