<?xml version="1.0" encoding="UTF-8"?>
<svg version="1.1" xmlns="http://www.w3.org/2000/svg" width="30" height="30">
<path d="M0 0 C2.69990662 1.79993774 4.5418865 3.083773 6 6 C6.43023798 9.87214182 6.31669086 11.52496371 4.125 14.8125 C1.61855093 17.39266816 0.74538327 17.91717964 -2.8125 18.3125 C-6.7307645 17.92835642 -8.21293267 16.70743683 -11 14 C-12.42662219 11.14675563 -12.31033868 9.16545451 -12 6 C-8.54235344 0.81353016 -6.24330406 -0.61208863 0 0 Z " fill="#E9984C" transform="translate(18,6)"/>
<path d="M0 0 C2.87398748 2.33511483 3.92491816 3.37431801 4.375 7.125 C4 10 4 10 2 12 C-0.6015625 12.4140625 -0.6015625 12.4140625 -3.625 12.625 C-4.62789062 12.69976562 -5.63078125 12.77453125 -6.6640625 12.8515625 C-7.82035156 12.92503906 -7.82035156 12.92503906 -9 13 C-4 8 -4 8 -2.25 6.5 C-0.55604291 4.4672515 -0.34892641 2.58205543 0 0 Z " fill="#C45338" transform="translate(20,8)"/>
<path d="M0 0 C0.825 0.185625 1.65 0.37125 2.5 0.5625 C6.61926719 1.0774084 9.90823355 0.63492928 14 0 C12.25 3.875 12.25 3.875 10 5 C6.58915179 5.2965955 4.62012782 5.35902137 1.625 3.625 C1.08875 3.08875 0.5525 2.5525 0 2 C0 1.34 0 0.68 0 0 Z " fill="#6A6A79" transform="translate(8,19)"/>
<path d="M0 0 C0.33 0 0.66 0 1 0 C1.125 2.875 1.125 2.875 1 6 C-1.58926331 8.58926331 -3.02705279 8.37398043 -6.625 8.625 C-7.62789062 8.69976562 -8.63078125 8.77453125 -9.6640625 8.8515625 C-10.82035156 8.92503906 -10.82035156 8.92503906 -12 9 C-9.48169253 5.87729874 -8.2738451 5.05476902 -4.25 4.25 C-2.64125 4.12625 -2.64125 4.12625 -1 4 C-0.67 2.68 -0.34 1.36 0 0 Z " fill="#4E5255" transform="translate(23,12)"/>
<path d="M0 0 C0.66 0.33 1.32 0.66 2 1 C1.319375 1.763125 0.63875 2.52625 -0.0625 3.3125 C-0.701875 4.199375 -1.34125 5.08625 -2 6 C-1.67 6.99 -1.34 7.98 -1 9 C-0.34 9.33 0.32 9.66 1 10 C0.67 10.99 0.34 11.98 0 13 C-0.99 13 -1.98 13 -3 13 C-4.42662219 10.14675563 -4.31033868 8.16545451 -4 5 C-2 2.125 -2 2.125 0 0 Z " fill="#654F40" transform="translate(10,7)"/>
<path d="M0 0 C1.299375 0.2475 1.299375 0.2475 2.625 0.5 C5.81225199 0.97218548 8.78485027 1.07655118 12 1 C10 3 10 3 7.8359375 3.1953125 C6.61777344 3.16050781 6.61777344 3.16050781 5.375 3.125 C4.55773437 3.10695313 3.74046875 3.08890625 2.8984375 3.0703125 C2.27195312 3.04710937 1.64546875 3.02390625 1 3 C0.67 2.01 0.34 1.02 0 0 Z " fill="#CDC1E1" transform="translate(8,19)"/>
</svg>
