<?xml version="1.0" encoding="UTF-8"?>
<svg version="1.1" xmlns="http://www.w3.org/2000/svg" width="512" height="512">
<path d="M0 0 C1.01790619 0.00215515 2.03581238 0.0043103 3.08456421 0.00653076 C17.69363523 0.05620146 32.02575853 0.30709809 46.375 3.3125 C47.34985352 3.51117676 48.32470703 3.70985352 49.32910156 3.91455078 C92.59881524 12.96579926 132.80019334 31.35020671 166.375 60.3125 C167.12007813 60.94671875 167.86515625 61.5809375 168.6328125 62.234375 C182.13779833 74.04551515 194.80918743 86.79610228 205.375 101.3125 C206.23149066 102.46244831 207.08826433 103.61218589 207.9453125 104.76171875 C213.9859414 112.95339526 219.34505071 121.46895078 224.375 130.3125 C224.73948242 130.94430176 225.10396484 131.57610352 225.47949219 132.22705078 C247.08534998 169.97532572 256.85198095 212.74189997 256.6875 255.9375 C256.68534485 256.95540619 256.6831897 257.97331238 256.68096924 259.02206421 C256.63129854 273.63113523 256.38040191 287.96325853 253.375 302.3125 C253.07698486 303.77478027 253.07698486 303.77478027 252.77294922 305.26660156 C243.72170074 348.53631524 225.33729329 388.73769334 196.375 422.3125 C195.74078125 423.05757813 195.1065625 423.80265625 194.453125 424.5703125 C182.64198485 438.07529833 169.89139772 450.74668743 155.375 461.3125 C154.22505169 462.16899066 153.07531411 463.02576433 151.92578125 463.8828125 C143.73410474 469.9234414 135.21854922 475.28255071 126.375 480.3125 C125.74319824 480.67698242 125.11139648 481.04146484 124.46044922 481.41699219 C86.71217428 503.02284998 43.94560003 512.78948095 0.75 512.625 C-0.77685928 512.62176727 -0.77685928 512.62176727 -2.33456421 512.61846924 C-16.94363523 512.56879854 -31.27575853 512.31790191 -45.625 509.3125 C-47.08728027 509.01448486 -47.08728027 509.01448486 -48.57910156 508.71044922 C-91.84881524 499.65920074 -132.05019334 481.27479329 -165.625 452.3125 C-166.37007813 451.67828125 -167.11515625 451.0440625 -167.8828125 450.390625 C-181.38779833 438.57948485 -194.05918743 425.82889772 -204.625 411.3125 C-205.48149066 410.16255169 -206.33826433 409.01281411 -207.1953125 407.86328125 C-213.2359414 399.67160474 -218.59505071 391.15604922 -223.625 382.3125 C-223.98948242 381.68069824 -224.35396484 381.04889648 -224.72949219 380.39794922 C-246.33534998 342.64967428 -256.10198095 299.88310003 -255.9375 256.6875 C-255.93534485 255.66959381 -255.9331897 254.65168762 -255.93096924 253.60293579 C-255.88129854 238.99386477 -255.63040191 224.66174147 -252.625 210.3125 C-252.42632324 209.33764648 -252.22764648 208.36279297 -252.02294922 207.35839844 C-242.97170074 164.08868476 -224.58729329 123.88730666 -195.625 90.3125 C-194.99078125 89.56742187 -194.3565625 88.82234375 -193.703125 88.0546875 C-181.89198485 74.54970167 -169.14139772 61.87831257 -154.625 51.3125 C-153.47505169 50.45600934 -152.32531411 49.59923567 -151.17578125 48.7421875 C-142.98410474 42.7015586 -134.46854922 37.34244929 -125.625 32.3125 C-124.99319824 31.94801758 -124.36139648 31.58353516 -123.71044922 31.20800781 C-85.96217428 9.60215002 -43.19560003 -0.16448095 0 0 Z " fill="#010101" transform="translate(255.625,-0.3125)"/>
<path d="M0 0 C1.00660172 -0.00974854 2.01320343 -0.01949707 3.05030823 -0.02954102 C44.99526848 -0.35236994 44.99526848 -0.35236994 64.4140625 4.23828125 C65.21005859 4.4202002 66.00605469 4.60211914 66.82617188 4.78955078 C72.10597402 6.03179187 77.2568979 7.56397479 82.4140625 9.23828125 C83.72938965 9.6556958 83.72938965 9.6556958 85.07128906 10.08154297 C119.60918833 21.14156648 150.76208717 39.02721725 176.68066406 64.53564453 C178.38696546 66.21166508 180.11309419 67.86480747 181.84375 69.515625 C188.94483556 76.36106734 195.23753845 83.59019058 201.12304688 91.50292969 C201.96413363 92.63349789 202.81150764 93.75942421 203.66601562 94.87988281 C223.82197971 121.31262493 236.90884199 151.99625898 244.4765625 184.23828125 C244.78243286 185.51674927 244.78243286 185.51674927 245.09448242 186.82104492 C246.44644164 193.00377784 246.62341387 198.92322353 246.4140625 205.23828125 C212.17647867 211.79198114 177.51515415 215.76618092 142.7890625 218.61328125 C141.75930298 218.69877228 140.72954346 218.78426331 139.6685791 218.87234497 C128.56245477 219.78238864 117.56475435 220.51818491 106.4140625 220.23828125 C106.07713379 218.97250244 106.07713379 218.97250244 105.73339844 217.68115234 C102.04255666 204.14293354 95.58409559 192.83390772 86.4140625 182.23828125 C85.78113281 181.41328125 85.14820313 180.58828125 84.49609375 179.73828125 C71.25315344 163.83681446 48.08595035 152.83355079 27.68505859 150.43457031 C0.59714215 148.09327975 -25.05570127 153.46337018 -46.26953125 171.24609375 C-47.03394531 171.90351563 -47.79835937 172.5609375 -48.5859375 173.23828125 C-50.04580078 174.3984375 -50.04580078 174.3984375 -51.53515625 175.58203125 C-65.1364937 186.93480396 -72.76903368 203.64811789 -77.5859375 220.23828125 C-114.1070237 220.02928491 -150.5081914 215.70278056 -186.5859375 210.23828125 C-186.1420634 201.82236088 -185.13670207 193.89652948 -183.0234375 185.73828125 C-182.75950195 184.70928711 -182.49556641 183.68029297 -182.22363281 182.62011719 C-175.99334213 159.17549733 -165.86627968 136.87585098 -151.5859375 117.23828125 C-151.17875488 116.67560547 -150.77157227 116.11292969 -150.35205078 115.53320312 C-144.30515102 107.253196 -137.6608569 99.65010158 -130.5859375 92.23828125 C-129.38517578 90.95824219 -129.38517578 90.95824219 -128.16015625 89.65234375 C-121.52540185 82.76783591 -114.24628973 76.92451327 -106.5859375 71.23828125 C-106.04565918 70.83722168 -105.50538086 70.43616211 -104.94873047 70.02294922 C-72.70521231 46.35916611 -33.46094078 32.42978809 6.55078125 31.0078125 C7.32615234 30.97969482 8.10152344 30.95157715 8.90039062 30.92260742 C10.94996216 30.8673672 13.00050154 30.85201158 15.05078125 30.83984375 C19.31865438 30.07648433 20.76805895 28.60592214 23.4140625 25.23828125 C24.5488766 21.26643191 24.85130074 19.22206728 23.1640625 15.42578125 C21.23815776 13.01840032 19.63645246 11.42365707 16.49829102 10.94775391 C-29.0158623 10.01056443 -75.50476783 23.48084632 -112.5859375 50.23828125 C-113.5553125 50.934375 -114.5246875 51.63046875 -115.5234375 52.34765625 C-133.47765478 65.53278456 -150.10000696 80.54003302 -163.33447266 98.53808594 C-164.58326191 100.23464629 -165.85480853 101.912241 -167.12890625 103.58984375 C-177.62370598 117.61600177 -185.5274942 133.25298318 -192.5859375 149.23828125 C-193.03453125 150.24117187 -193.483125 151.2440625 -193.9453125 152.27734375 C-201.02569193 169.33462147 -205.1098209 187.98576457 -207.5859375 206.23828125 C-209.06562074 206.09778607 -210.54468266 205.95073299 -212.0234375 205.80078125 C-213.25900391 205.67896484 -213.25900391 205.67896484 -214.51953125 205.5546875 C-216.5859375 205.23828125 -216.5859375 205.23828125 -217.5859375 204.23828125 C-219.65023939 160.22912185 -190.63489215 110.83130378 -162.11767578 79.14550781 C-159.65027617 76.46736653 -157.12256704 73.85065463 -154.5859375 71.23828125 C-154.03824707 70.66480957 -153.49055664 70.09133789 -152.92626953 69.50048828 C-145.22678488 61.44952929 -137.25876032 54.14796178 -128.30517578 47.51318359 C-126.63622428 46.27557145 -124.98416197 45.01774306 -123.33203125 43.7578125 C-88.8372683 17.87903368 -43.35652058 0.34633451 0 0 Z " fill="#EC5463" transform="translate(241.5859375,21.76171875)"/>
<path d="M0 0 C3.60479204 0.45349583 7.20869731 0.91371326 10.8125 1.375 C12.31973633 1.56449219 12.31973633 1.56449219 13.85742188 1.7578125 C18.71048629 2.38200085 23.52481251 3.06901081 28.33203125 3.984375 C35.14 5.25915695 41.99926585 6.06313787 48.875 6.875 C49.58185944 6.95926239 50.28871887 7.04352478 51.01699829 7.13034058 C56.34336469 7.76491579 61.6713407 8.38500899 67 9 C67.75073792 9.08699158 68.50147583 9.17398315 69.27496338 9.26361084 C93.4786245 12.06351014 117.70030777 14.22501617 142 16 C142.46615723 17.08756592 142.93231445 18.17513184 143.41259766 19.2956543 C144.03789648 20.74275766 144.66339539 22.18977458 145.2890625 23.63671875 C145.59465088 24.35114136 145.90023926 25.06556396 146.21508789 25.80163574 C155.90601503 48.14709589 173.89102772 65.43551474 196.22265625 74.9453125 C222.37351852 84.87601969 248.39470518 84.14958408 274 73 C298.84433982 61.47724512 313.94043557 40.82157403 324 16 C325.22291748 15.88930176 326.44583496 15.77860352 327.70581055 15.66455078 C332.35233931 15.24381582 336.99880916 14.82243299 341.64526367 14.40087891 C343.63580817 14.2203705 345.62636749 14.04002541 347.61694336 13.85986328 C368.70547384 11.95096469 389.77588031 9.97586018 410.81738281 7.59912109 C413.19820506 7.33093323 415.57951579 7.06749135 417.9609375 6.8046875 C418.66826019 6.72346649 419.37558289 6.64224548 420.1043396 6.55856323 C424.44003533 6.08384633 428.64778731 5.92697868 433 6 C431.01039725 36.83884264 417.13569194 68.24390013 399 93 C398.24332031 94.04027344 397.48664063 95.08054687 396.70703125 96.15234375 C391.08074216 103.74013298 384.91070237 110.73587677 378.38134766 117.55566406 C377.15491961 118.83801618 375.94170513 120.13297661 374.73046875 121.4296875 C368.91773418 127.49046084 362.47317087 132.60511895 355.78222656 137.64892578 C354.12934184 138.90194825 352.49728202 140.18231302 350.8671875 141.46484375 C318.81644545 165.75883373 278.16094069 177.45793707 238.40234375 178.94726562 C231.51715299 179.09697924 231.51715299 179.09697924 225.75 182.35546875 C223.52734478 185.714258 223 187.97661663 223 192 C224.58838934 195.57387602 225.71634358 196.81089572 229 199 C232.27282125 199.44349842 235.57542142 199.33195074 238.875 199.3125 C240.34851929 199.30512817 240.34851929 199.30512817 241.85180664 199.29760742 C252.07275354 199.13809685 261.96037716 197.85550188 272 196 C273.40233887 195.74259033 273.40233887 195.74259033 274.83300781 195.47998047 C312.91620004 188.28877357 348.65332281 171.40321744 378 146 C378.804375 145.30648437 379.60875 144.61296875 380.4375 143.8984375 C421.06098523 108.09248097 447.14100015 59.18785042 454.45703125 5.48046875 C455 2 455 2 456 1 C457.68183948 0.76712992 459.3712416 0.58735834 461.0625 0.4375 C461.98160156 0.35371094 462.90070313 0.26992188 463.84765625 0.18359375 C464.55792969 0.12300781 465.26820313 0.06242187 466 0 C466.15247498 6.35947719 465.70988928 12.19798035 464.5 18.4375 C464.32839355 19.32711426 464.15678711 20.21672852 463.97998047 21.13330078 C460.49089843 38.1685754 455.04041143 55.10114685 448 71 C447.71721191 71.65162109 447.43442383 72.30324219 447.14306641 72.97460938 C439.35946439 90.80170433 429.07543351 106.78920511 417 122 C416.5678418 122.54930176 416.13568359 123.09860352 415.69042969 123.66455078 C404.11687601 138.25475885 390.71200276 151.80895978 375.65478516 162.78955078 C374.00755869 163.99447093 372.38428859 165.22699182 370.76171875 166.46484375 C335.33908937 193.07647499 289.39657006 209.73460947 245 211 C244.09282227 211.02723145 243.18564453 211.05446289 242.25097656 211.08251953 C222.82420051 211.57610492 204.01468486 210.03169077 185 206 C184.20916016 205.8354834 183.41832031 205.6709668 182.60351562 205.50146484 C147.21861693 197.99405041 115.27573097 182.44732848 87 160 C86.45069824 159.5678418 85.90139648 159.13568359 85.33544922 158.69042969 C70.74524115 147.11687601 57.19104022 133.71200276 46.21044922 118.65478516 C45.00552907 117.00755869 43.77300818 115.38428859 42.53515625 113.76171875 C21.58776334 85.87873296 7.28443313 51.70545713 1.3125 17.375 C1.18294922 16.68921875 1.05339844 16.0034375 0.91992188 15.296875 C0.00789068 10.14317493 -0.10793895 5.2324692 0 0 Z " fill="#F3F5F8" transform="translate(23,280)"/>
<path d="M0 0 C0.83176758 0.00821777 1.66353516 0.01643555 2.52050781 0.02490234 C23.55373823 0.40472573 40.34957954 8.09603917 55.5625 22.625 C68.9506067 36.59689043 76.28045438 53.92589334 76 73.1875 C76.00322266 74.29029297 76.00644531 75.39308594 76.00976562 76.52929688 C75.87851306 96.75412468 68.74117049 113.23647444 54.93359375 128.09375 C38.71039198 143.66802369 19.59950574 149.78932887 -2.39453125 149.453125 C-22.1494058 148.82683476 -40.54071497 139.82286122 -54.0625 125.4375 C-67.90046544 109.18220726 -74.70358836 89.68919493 -73.49902344 68.33056641 C-72.09025455 52.61652398 -64.88390501 36.88761968 -54.3125 25.25 C-53.67054688 24.51652344 -53.02859375 23.78304687 -52.3671875 23.02734375 C-38.91782064 8.56058936 -19.80105928 -0.24008683 0 0 Z " fill="#010101" transform="translate(254.3125,191.75)"/>
<path d="M0 0 C0.83176758 0.00821777 1.66353516 0.01643555 2.52050781 0.02490234 C23.55373823 0.40472573 40.34957954 8.09603917 55.5625 22.625 C68.9506067 36.59689043 76.28045438 53.92589334 76 73.1875 C76.00322266 74.29029297 76.00644531 75.39308594 76.00976562 76.52929688 C75.87851306 96.75412468 68.74117049 113.23647444 54.93359375 128.09375 C38.71039198 143.66802369 19.59950574 149.78932887 -2.39453125 149.453125 C-22.1494058 148.82683476 -40.54071497 139.82286122 -54.0625 125.4375 C-67.90046544 109.18220726 -74.70358836 89.68919493 -73.49902344 68.33056641 C-72.09025455 52.61652398 -64.88390501 36.88761968 -54.3125 25.25 C-53.67054688 24.51652344 -53.02859375 23.78304687 -52.3671875 23.02734375 C-38.91782064 8.56058936 -19.80105928 -0.24008683 0 0 Z M-40.3125 41.25 C-50.09966254 55.28356485 -52.83901476 68.24084554 -51.00390625 85.08203125 C-50.57060882 87.21017349 -50.01468344 89.19561188 -49.3125 91.25 C-49.05597656 92.054375 -48.79945313 92.85875 -48.53515625 93.6875 C-43.47740959 107.92733609 -31.45367378 118.81293255 -18.01171875 125.21484375 C-6.64676096 129.57332973 9.20467743 130.35128945 20.53564453 125.45068359 C35.83846066 118.15043169 46.36916659 108.17793421 52.8125 92.13671875 C56.52970553 79.87325943 56.43836376 64.75172752 50.6875 53.25 C50.336875 52.486875 49.98625 51.72375 49.625 50.9375 C43.45832036 38.60414072 32.94671353 29.63244497 20.375 24.3125 C-1.3693446 17.14351302 -25.69914059 23.45703052 -40.3125 41.25 Z " fill="#424852" transform="translate(254.3125,191.75)"/>
<path d="M0 0 C9.08684714 5.51757099 13.94763671 12.39369137 17.27734375 22.3828125 C18.30933922 32.62905326 16.81470092 41.47167128 10.4453125 49.76953125 C3.66043823 57.00940696 -4.62281942 60.88282587 -14.53515625 61.6953125 C-25.06922577 61.3489311 -32.89118716 56.63916974 -39.97265625 49.1328125 C-45.66021428 42.01559507 -47.43660842 34.57928891 -47.09765625 25.5546875 C-46.0125518 16.37651235 -41.68291887 9.3830389 -34.72265625 3.3828125 C-24.44082104 -3.93978673 -11.57008134 -5.50589561 0 0 Z " fill="#F2F4F7" transform="translate(270.72265625,237.6171875)"/>
<path d="M0 0 C0 3.3 0 6.6 0 10 C-3.12446753 10.6070218 -6.24954312 11.21060879 -9.375 11.8125 C-10.22578125 11.97814453 -11.0765625 12.14378906 -11.953125 12.31445312 C-28.91638078 15.57188992 -45.90987312 17.99198672 -63.0625 20 C-64.16163727 20.12973206 -65.26077454 20.25946411 -66.39321899 20.39312744 C-81.96894061 22.22020394 -97.54444324 23.75960742 -113.1875 24.875 C-114.04522003 24.9363916 -114.90294006 24.9977832 -115.78665161 25.06103516 C-118.20509063 25.23112215 -120.62382121 25.39501742 -123.04296875 25.5546875 C-123.73657501 25.60124481 -124.43018127 25.64780212 -125.14480591 25.69577026 C-129.77399976 25.98396496 -134.36470148 26.03683167 -139 26 C-139 22.37 -139 18.74 -139 15 C-137.62602051 14.91024902 -136.25204102 14.82049805 -134.83642578 14.72802734 C-92.18300217 11.90660463 -49.58449574 8.25886428 -7.52807617 0.36376953 C-5 0 -5 0 0 0 Z " fill="#414751" transform="translate(491,248)"/>
<path d="M0 0 C8.43415137 0.90408393 16.82833749 1.95224828 25.20898438 3.2668457 C57.49692256 8.29342135 90.09847194 11.85136652 122.69067383 14.15063477 C123.42708099 14.20302307 124.16348816 14.25541138 124.92221069 14.30938721 C126.87093457 14.44606145 128.82009624 14.57645451 130.76928711 14.70629883 C133.58461539 14.96223776 136.24571086 15.37812679 139 16 C139 19.3 139 22.6 139 26 C122.92099324 25.67070602 107.10182589 24.7572221 91.14453125 22.75 C85.54219558 22.04567649 79.93897867 21.52714364 74.3125 21.0625 C55.65742293 19.46522956 36.95381107 17.11504212 18.55078125 13.65625 C13.86481984 12.79019773 9.15844991 12.1027075 4.44140625 11.4296875 C2 11 2 11 0 10 C0 6.7 0 3.4 0 0 Z " fill="#414751" transform="translate(21,248)"/>
</svg>
