<?xml version="1.0" encoding="UTF-8"?>
<svg version="1.1" xmlns="http://www.w3.org/2000/svg" width="512" height="512">
<path d="M0 0 C4.26552771 1.18913093 7.17492859 4.4809927 10.171875 7.60546875 C10.65398437 7.18394531 11.13609375 6.76242188 11.6328125 6.328125 C12.26445312 5.78027344 12.89609375 5.23242188 13.546875 4.66796875 C14.17335937 4.12269531 14.79984375 3.57742187 15.4453125 3.015625 C18.57942385 0.45586438 21.15737229 0.2551787 25.1953125 0.3359375 C27.171875 0.60546875 27.171875 0.60546875 29.671875 2.10546875 C31.3511407 4.90424492 31.90663119 7.158312 31.77734375 10.43359375 C30.58821282 14.69912146 27.29635105 17.60852234 24.171875 20.60546875 C24.59339844 21.064375 25.01492187 21.52328125 25.44921875 21.99609375 C25.99707031 22.6096875 26.54492188 23.22328125 27.109375 23.85546875 C27.65464844 24.45875 28.19992188 25.06203125 28.76171875 25.68359375 C30.23400299 27.6901418 30.74716689 29.17549324 31.171875 31.60546875 C31.90148437 31.41210938 32.63109375 31.21875 33.3828125 31.01953125 C61.00177664 24.13183896 91.40261735 24.35470102 118.859375 31.85546875 C127.91095052 34.30100537 136.65429629 33.50762447 145.91308594 32.77685547 C169.4351403 30.99210815 200.2314549 33.91565182 221.171875 45.60546875 C223.20945461 48.35620122 223.17574106 49.57002987 222.796875 53.04296875 C222.77226521 56.58495555 222.77226521 56.58495555 224.875 58.16796875 C228.74321238 60.74554485 228.74321238 60.74554485 233.171875 61.60546875 C234.2546875 60.36796875 234.2546875 60.36796875 235.359375 59.10546875 C238.171875 56.60546875 238.171875 56.60546875 241.296875 55.85546875 C247.69838694 57.09447106 253.64170737 60.74741763 257.98046875 65.6484375 C259.66381 68.41353247 259.50961013 70.4307585 259.171875 73.60546875 C258.511875 74.59546875 257.851875 75.58546875 257.171875 76.60546875 C260.141875 78.58546875 263.111875 80.56546875 266.171875 82.60546875 C267.491875 81.94546875 268.811875 81.28546875 270.171875 80.60546875 C274.11817113 80.01352433 276.62065473 79.67600548 280.08203125 81.75 C282.25915357 83.58736607 284.20670615 85.54204146 286.171875 87.60546875 C287.0175 88.4665625 287.863125 89.32765625 288.734375 90.21484375 C313.50798837 116.25528962 329.88245845 149.27221419 336.171875 184.60546875 C336.35065186 185.6094873 336.52942871 186.61350586 336.71362305 187.64794922 C338.25411925 197.21206329 338.53063195 206.57163827 338.484375 216.23046875 C338.48164078 217.41768021 338.48164078 217.41768021 338.47885132 218.62887573 C338.43156916 230.84045521 337.87842213 242.65510417 335.171875 254.60546875 C335.00558594 255.36956055 334.83929688 256.13365234 334.66796875 256.92089844 C323.95151077 304.96635171 294.72097137 347.02345022 253.57421875 373.98828125 C232.57069632 387.328085 209.56750339 396.06357843 185.171875 400.60546875 C183.98464844 400.83234375 182.79742187 401.05921875 181.57421875 401.29296875 C158.31051116 404.93820694 132.98974131 403.7691388 110.234375 397.85546875 C105.83966882 396.76417859 102.23242438 396.5792657 97.73046875 397.01171875 C46.14674061 401.30331164 -4.09547845 388.95661162 -44.328125 355.41796875 C-78.64810337 325.95636367 -100.46472464 288.05224563 -108.828125 243.60546875 C-109.07433594 242.33574219 -109.32054688 241.06601562 -109.57421875 239.7578125 C-113.62425479 214.08896341 -111.45976972 186.58047633 -104.59765625 161.625 C-103.70464623 158.64029672 -103.70464623 158.64029672 -103.828125 155.60546875 C-105.024375 155.08984375 -106.220625 154.57421875 -107.453125 154.04296875 C-113.37877728 151.06441079 -117.99837461 146.10266255 -120.3515625 139.80859375 C-122.18614593 131.3274048 -121.70526953 123.20158329 -117.31640625 115.66015625 C-113.35422433 110.19005733 -107.89352818 106.75212093 -101.390625 104.91796875 C-94.41504663 104.06728846 -89.29537295 105.18651748 -82.828125 107.60546875 C-81.838125 107.93546875 -80.848125 108.26546875 -79.828125 108.60546875 C-79.26867187 107.76886719 -78.70921875 106.93226563 -78.1328125 106.0703125 C-71.52923258 96.40835055 -64.0116913 87.95204962 -55.828125 79.60546875 C-55.2491748 79.00822998 -54.67022461 78.41099121 -54.07373047 77.7956543 C-50.3565571 74.00598834 -46.52359057 70.54350412 -42.328125 67.29296875 C-41.72919434 66.82785889 -41.13026367 66.36274902 -40.51318359 65.88354492 C-28.94132371 57.00858046 -17.00977697 49.83058922 -3.828125 43.60546875 C-3.168125 43.27546875 -2.508125 42.94546875 -1.828125 42.60546875 C-2.59125 42.33734375 -3.354375 42.06921875 -4.140625 41.79296875 C-8.35557387 39.93054948 -8.35557387 39.93054948 -9.828125 37.60546875 C-10.56952 33.23123828 -10.78660923 31.00981504 -8.2578125 27.3046875 C-6.51564213 25.31917754 -4.73398443 23.433538 -2.828125 21.60546875 C-3.46041016 20.88230469 -3.46041016 20.88230469 -4.10546875 20.14453125 C-4.65332031 19.51289062 -5.20117188 18.88125 -5.765625 18.23046875 C-6.31089844 17.60398437 -6.85617188 16.9775 -7.41796875 16.33203125 C-9.97772937 13.1979199 -10.17841505 10.61997146 -10.09765625 6.58203125 C-9.828125 4.60546875 -9.828125 4.60546875 -8.328125 2.10546875 C-5.52934883 0.42620305 -3.27528175 -0.12928744 0 0 Z M10.171875 33.60546875 C8.48099278 35.58503817 6.81357028 37.58492071 5.171875 39.60546875 C7.811875 38.94546875 10.451875 38.28546875 13.171875 37.60546875 C12.511875 36.28546875 11.851875 34.96546875 11.171875 33.60546875 C10.841875 33.60546875 10.511875 33.60546875 10.171875 33.60546875 Z M-101.203125 124.16796875 C-103.3980729 127.46039059 -103.89756897 129.6471623 -103.828125 133.60546875 C-101.80604141 136.71160962 -101.80604141 136.71160962 -98.828125 138.60546875 C-96.76227159 138.69793967 -96.76227159 138.69793967 -94.828125 137.60546875 C-93.17010175 135.22258277 -93.17010175 135.22258277 -91.953125 132.29296875 C-91.50195312 131.32746094 -91.05078125 130.36195313 -90.5859375 129.3671875 C-89.55252329 126.64995259 -89.55252329 126.64995259 -90.6953125 124.25 C-91.06914063 123.70730469 -91.44296875 123.16460937 -91.828125 122.60546875 C-96.79098492 122.18466041 -96.79098492 122.18466041 -101.203125 124.16796875 Z " fill="#4D251E" transform="translate(120.828125,103.39453125)"/>
<path d="M0 0 C3.12453325 1.01981294 5.54588919 1.20101315 8.8125 0.91796875 C9.4725 0.38171875 10.1325 -0.15453125 10.8125 -0.70703125 C11.4725 -1.16078125 12.1325 -1.61453125 12.8125 -2.08203125 C16.89430072 -1.2316561 19.57694132 0.37574407 22.8125 2.91796875 C23.4725 2.91796875 24.1325 2.91796875 24.8125 2.91796875 C25.534375 2.09296875 26.25625 1.26796875 27 0.41796875 C29.8125 -2.08203125 29.8125 -2.08203125 32.9375 -2.83203125 C39.33901194 -1.59302894 45.28233237 2.05991763 49.62109375 6.9609375 C51.304435 9.72603247 51.15023513 11.7432585 50.8125 14.91796875 C50.1525 15.90796875 49.4925 16.89796875 48.8125 17.91796875 C49.534375 18.31886719 50.25625 18.71976563 51 19.1328125 C53.87563671 20.89413999 56.38642158 22.56987142 58.8125 24.91796875 C59.125 27.03515625 59.125 27.03515625 58.8125 29.23046875 C58.40530737 32.61991723 58.54038593 33.56745857 60.68359375 36.328125 C62.44163762 38.01659636 64.22301225 39.68101374 66.0234375 41.32421875 C70.45959113 45.44971737 74.08785859 50.15542021 77.8125 54.91796875 C78.92431641 56.30435547 78.92431641 56.30435547 80.05859375 57.71875 C100.4115054 83.78599733 112.8125 116.85333243 112.8125 149.91796875 C78.4925 149.91796875 44.1725 149.91796875 8.8125 149.91796875 C7.8225 145.95796875 6.8325 141.99796875 5.8125 137.91796875 C-1.74637943 118.89638354 -14.81571165 106.75405833 -33.34521484 98.66894531 C-45.84994038 93.57160424 -63.76641714 94.08225029 -76.30078125 98.65625 C-91.61301556 105.34887745 -103.80403283 114.7143384 -111.5 129.73046875 C-111.82556885 130.35751709 -112.1511377 130.98456543 -112.48657227 131.63061523 C-115.45513833 137.73674035 -116.45418007 142.98468904 -118.1875 149.91796875 C-152.5075 149.91796875 -186.8275 149.91796875 -222.1875 149.91796875 C-222.1875 139.53285444 -221.52022351 131.7149483 -219.1875 121.91796875 C-219.02121094 121.18271973 -218.85492188 120.4474707 -218.68359375 119.68994141 C-215.88146047 107.38909521 -211.76045449 96.22617138 -206.1875 84.91796875 C-205.86378418 84.2528125 -205.54006836 83.58765625 -205.20654297 82.90234375 C-185.08582 41.98577442 -148.41441119 13.49152325 -105.98828125 -1.61328125 C-72.83397751 -12.66471583 -32.67947493 -13.01572224 0 0 Z " fill="#eb347d" transform="translate(329.1875,162.08203125)"/>
<path d="M0 0 C34.32 0 68.64 0 104 0 C104.99 5.94 104.99 5.94 106 12 C107.54493693 15.86234232 109.07447296 19.35333147 111 23 C111.42023438 23.83273437 111.84046875 24.66546875 112.2734375 25.5234375 C120.26091153 40.15944483 133.41702063 49.48751783 149.0625 54.4375 C166.76711736 59.41622594 183.67459583 56.99271544 199.91796875 48.46875 C215.04265664 39.42380266 224.04777372 26.40096446 229.30859375 9.81640625 C230.10021003 6.59179982 230.5304312 3.28698161 231 0 C265.32 0 299.64 0 335 0 C335 25.69803019 327.4017397 50.609667 315 73 C314.35592456 74.20918503 313.71269216 75.41881949 313.0703125 76.62890625 C306.35341235 89.053563 297.69652204 99.7674893 288 110 C287.15824219 110.89460938 286.31648438 111.78921875 285.44921875 112.7109375 C256.95214673 142.15653725 215.4769828 160.36949788 174.5234375 161.203125 C171.80722807 161.23515676 169.09138782 161.24730297 166.375 161.25 C165.31285278 161.25151062 165.31285278 161.25151062 164.22924805 161.25305176 C153.50317556 161.24275104 143.44816086 160.5981019 133 158 C131.66593253 157.70445579 130.33127883 157.41154717 128.99609375 157.12109375 C99.66631534 150.52850736 72.84319706 135.41254716 51.43164062 114.40087891 C50.07952389 113.07781515 48.70445603 111.77832477 47.328125 110.48046875 C21.71158597 85.85836058 7.60100557 52.38910969 1 18 C0.80148438 17.09121094 0.60296875 16.18242187 0.3984375 15.24609375 C-0.22091457 10.20019603 0 5.0837664 0 0 Z " fill="#FEFEFE" transform="translate(107,328)"/>
<path d="M0 0 C4.26552771 1.18913093 7.17492859 4.4809927 10.171875 7.60546875 C10.65398437 7.18394531 11.13609375 6.76242188 11.6328125 6.328125 C12.26445312 5.78027344 12.89609375 5.23242188 13.546875 4.66796875 C14.17335937 4.12269531 14.79984375 3.57742187 15.4453125 3.015625 C18.57942385 0.45586438 21.15737229 0.2551787 25.1953125 0.3359375 C27.171875 0.60546875 27.171875 0.60546875 29.671875 2.10546875 C31.3511407 4.90424492 31.90663119 7.158312 31.77734375 10.43359375 C30.58821282 14.69912146 27.29635105 17.60852234 24.171875 20.60546875 C24.59339844 21.064375 25.01492187 21.52328125 25.44921875 21.99609375 C25.99707031 22.6096875 26.54492188 23.22328125 27.109375 23.85546875 C27.65464844 24.45875 28.19992188 25.06203125 28.76171875 25.68359375 C30.23400299 27.6901418 30.74716689 29.17549324 31.171875 31.60546875 C31.90148437 31.41210938 32.63109375 31.21875 33.3828125 31.01953125 C61.76409055 23.94173104 91.72400693 25.18720751 120.109375 31.66796875 C120.81956787 31.83006836 121.52976074 31.99216797 122.26147461 32.15917969 C123.91744881 32.5706174 125.54890192 33.07869562 127.171875 33.60546875 C127.501875 34.26546875 127.831875 34.92546875 128.171875 35.60546875 C126.934375 35.80140625 125.696875 35.99734375 124.421875 36.19921875 C76.47246913 44.28142209 33.00608335 70.12971055 4.28344727 109.64038086 C-8.34044203 127.45932306 -17.5548129 146.72563892 -23.828125 167.60546875 C-24.28832031 169.08660156 -24.28832031 169.08660156 -24.7578125 170.59765625 C-33.7719139 202.65812001 -32.6546272 240.16216204 -21.828125 271.60546875 C-21.58723145 272.31832031 -21.34633789 273.03117187 -21.09814453 273.765625 C-17.20373325 285.19368309 -12.55135605 295.98017796 -6.828125 306.60546875 C-6.34690186 307.51570801 -6.34690186 307.51570801 -5.85595703 308.44433594 C2.71562806 324.57754789 14.26122309 337.78905517 27.171875 350.60546875 C28.0534729 351.52126709 28.0534729 351.52126709 28.95288086 352.45556641 C33.66388546 357.29980802 38.59119826 361.49909854 44.046875 365.48046875 C44.86986084 366.08197754 45.69284668 366.68348633 46.54077148 367.30322266 C63.32765791 379.34079709 82.36384953 388.70190037 102.171875 394.60546875 C88.63823264 403.62789699 55.24169161 398.09725679 39.78564453 395.14892578 C-9.86779615 384.82494307 -53.37059843 356.53194601 -81.328125 313.98046875 C-95.20844487 292.11421142 -104.04204936 269.04077343 -108.828125 243.60546875 C-109.07433594 242.33574219 -109.32054688 241.06601562 -109.57421875 239.7578125 C-113.62425479 214.08896341 -111.45976972 186.58047633 -104.59765625 161.625 C-103.70464623 158.64029672 -103.70464623 158.64029672 -103.828125 155.60546875 C-105.024375 155.08984375 -106.220625 154.57421875 -107.453125 154.04296875 C-113.37877728 151.06441079 -117.99837461 146.10266255 -120.3515625 139.80859375 C-122.18614593 131.3274048 -121.70526953 123.20158329 -117.31640625 115.66015625 C-113.35422433 110.19005733 -107.89352818 106.75212093 -101.390625 104.91796875 C-94.41504663 104.06728846 -89.29537295 105.18651748 -82.828125 107.60546875 C-81.838125 107.93546875 -80.848125 108.26546875 -79.828125 108.60546875 C-79.26867187 107.76886719 -78.70921875 106.93226563 -78.1328125 106.0703125 C-71.52923258 96.40835055 -64.0116913 87.95204962 -55.828125 79.60546875 C-55.2491748 79.00822998 -54.67022461 78.41099121 -54.07373047 77.7956543 C-50.3565571 74.00598834 -46.52359057 70.54350412 -42.328125 67.29296875 C-41.72919434 66.82785889 -41.13026367 66.36274902 -40.51318359 65.88354492 C-28.94132371 57.00858046 -17.00977697 49.83058922 -3.828125 43.60546875 C-3.168125 43.27546875 -2.508125 42.94546875 -1.828125 42.60546875 C-2.59125 42.33734375 -3.354375 42.06921875 -4.140625 41.79296875 C-8.35557387 39.93054948 -8.35557387 39.93054948 -9.828125 37.60546875 C-10.56952 33.23123828 -10.78660923 31.00981504 -8.2578125 27.3046875 C-6.51564213 25.31917754 -4.73398443 23.433538 -2.828125 21.60546875 C-3.46041016 20.88230469 -3.46041016 20.88230469 -4.10546875 20.14453125 C-4.65332031 19.51289062 -5.20117188 18.88125 -5.765625 18.23046875 C-6.31089844 17.60398437 -6.85617188 16.9775 -7.41796875 16.33203125 C-9.97772937 13.1979199 -10.17841505 10.61997146 -10.09765625 6.58203125 C-9.828125 4.60546875 -9.828125 4.60546875 -8.328125 2.10546875 C-5.52934883 0.42620305 -3.27528175 -0.12928744 0 0 Z M10.171875 33.60546875 C8.48099278 35.58503817 6.81357028 37.58492071 5.171875 39.60546875 C7.811875 38.94546875 10.451875 38.28546875 13.171875 37.60546875 C12.511875 36.28546875 11.851875 34.96546875 11.171875 33.60546875 C10.841875 33.60546875 10.511875 33.60546875 10.171875 33.60546875 Z M-101.203125 124.16796875 C-103.3980729 127.46039059 -103.89756897 129.6471623 -103.828125 133.60546875 C-101.80604141 136.71160962 -101.80604141 136.71160962 -98.828125 138.60546875 C-96.76227159 138.69793967 -96.76227159 138.69793967 -94.828125 137.60546875 C-93.17010175 135.22258277 -93.17010175 135.22258277 -91.953125 132.29296875 C-91.50195312 131.32746094 -91.05078125 130.36195313 -90.5859375 129.3671875 C-89.55252329 126.64995259 -89.55252329 126.64995259 -90.6953125 124.25 C-91.06914063 123.70730469 -91.44296875 123.16460937 -91.828125 122.60546875 C-96.79098492 122.18466041 -96.79098492 122.18466041 -101.203125 124.16796875 Z " fill="#ccb0f5" transform="translate(120.828125,103.39453125)"/>
<path d="M0 0 C5.10543917 4.01385307 8.67500435 9.1018221 12.00390625 14.62890625 C12.51566406 15.47839844 13.02742188 16.32789063 13.5546875 17.203125 C16.91614696 23.84082383 17.45853371 30.00248013 17.50390625 37.31640625 C17.510271 38.19530518 17.51663574 39.0742041 17.52319336 39.97973633 C17.2873307 52.10672316 12.17672311 63.44653392 4.00390625 72.37890625 C-7.13269134 82.8926094 -21.27240969 86.34991004 -36.18359375 86.00390625 C-49.04558353 85.29609235 -58.55102293 78.44859807 -67.18359375 69.44140625 C-77.74174353 57.15171991 -78.84580019 44.73645619 -78.21386719 29.24365234 C-77.75038334 23.67872854 -75.89536556 19.3313837 -72.99609375 14.62890625 C-72.42632812 13.67886719 -71.8565625 12.72882813 -71.26953125 11.75 C-64.27571866 1.17293775 -52.87654162 -7.32551212 -40.3125 -10.0546875 C-25.30494099 -12.10462389 -12.37478691 -8.50009825 0 0 Z " fill="#EAE7D8" transform="translate(304.99609375,283.37109375)"/>
<path d="M0 0 C7.33612439 5.33742796 11.68302949 12.31471348 14.5234375 20.8359375 C15.53341501 31.67155332 14.19597552 40.56138644 7.609375 49.40625 C1.56140231 56.07001627 -5.62329993 60.0804412 -14.59375 61.23828125 C-25.1474759 61.57395955 -33.10911148 58.54882132 -41.0390625 51.5859375 C-48.53566716 43.12822968 -51.09882915 35.03974413 -50.91015625 23.73046875 C-49.98247668 15.39806759 -46.17661678 9.06368658 -40.1640625 3.3359375 C-28.3542195 -6.03385529 -13.27238487 -7.74525473 0 0 Z " fill="#4E261F" transform="translate(292.4765625,293.1640625)"/>
<path d="M0 0 C0 0.66 0 1.32 0 2 C0.59296875 2.2165625 1.1859375 2.433125 1.796875 2.65625 C6.40377721 5.46613362 8.15574135 11.12926562 10 16 C11.64979017 23.2069781 9.29188483 28.94647772 5.8515625 35.2890625 C3.17628951 39.20602337 0.10574078 41.68948191 -4 44 C-4.58007812 44.37125 -5.16015625 44.7425 -5.7578125 45.125 C-11.6765241 47.43474111 -20.55025367 46.85986215 -26.6171875 45.34765625 C-32.75808681 42.56394119 -36.43795252 37.55134423 -39.875 31.9375 C-42.29603349 25.46196463 -42.10601025 17.57326388 -40.0859375 11.046875 C-36.56345747 3.45649867 -31.72947187 -0.71086304 -24 -4 C-15.51147678 -6.39419886 -7.26341313 -4.84227542 0 0 Z M-21.375 14.5625 C-23.5699479 17.85492184 -24.06944397 20.04169355 -24 24 C-21.97791641 27.10614087 -21.97791641 27.10614087 -19 29 C-16.93414659 29.09247092 -16.93414659 29.09247092 -15 28 C-13.34197675 25.61711402 -13.34197675 25.61711402 -12.125 22.6875 C-11.67382812 21.72199219 -11.22265625 20.75648438 -10.7578125 19.76171875 C-9.72439829 17.04448384 -9.72439829 17.04448384 -10.8671875 14.64453125 C-11.24101562 14.10183594 -11.61484375 13.55914062 -12 13 C-16.96285992 12.57919166 -16.96285992 12.57919166 -21.375 14.5625 Z " fill="#eb347d" transform="translate(41,213)"/>
<path d="M0 0 C5.43817169 3.85802369 10.13649861 9.01641488 12.0703125 15.46875 C12.99683545 25.08950574 12.74582225 32.76323934 6.4921875 40.39453125 C1.86417671 45.4290565 -2.33700269 48.12204942 -9.16796875 48.78125 C-17.65217819 49.07286622 -24.46666925 48.49507371 -30.92578125 42.66796875 C-37.42641158 35.7078344 -39.59084876 29.25234998 -39.33984375 19.7578125 C-38.49352039 12.97110521 -35.56869769 7.64911943 -30.5546875 3.03125 C-21.65061541 -3.68485566 -10.1855823 -5.26192443 0 0 Z M-19.9296875 17.46875 C-21.84368686 19.99174916 -21.93369611 21.27633679 -21.8671875 24.46875 C-20.65909286 28.33465284 -19.47940514 29.53955563 -15.9296875 31.46875 C-11.66529977 31.54356382 -9.69250599 31.11714572 -6.4296875 28.34375 C-4.42282683 24.49726705 -4.65792226 22.58328459 -5.9296875 18.46875 C-8.11467506 15.93683501 -8.11467506 15.93683501 -10.9296875 14.46875 C-15.25558804 14.46875 -16.53553737 14.96779727 -19.9296875 17.46875 Z " fill="#eb347d" transform="translate(54.9296875,9.53125)"/>
<path d="M0 0 C4.26552771 1.18913093 7.17492859 4.4809927 10.171875 7.60546875 C10.65398437 7.18394531 11.13609375 6.76242188 11.6328125 6.328125 C12.26445312 5.78027344 12.89609375 5.23242188 13.546875 4.66796875 C14.48660156 3.85005859 14.48660156 3.85005859 15.4453125 3.015625 C18.57942385 0.45586438 21.15737229 0.2551787 25.1953125 0.3359375 C27.171875 0.60546875 27.171875 0.60546875 29.671875 2.10546875 C31.3511407 4.90424492 31.90663119 7.158312 31.77734375 10.43359375 C30.58821282 14.69912146 27.29635105 17.60852234 24.171875 20.60546875 C24.80416016 21.32863281 24.80416016 21.32863281 25.44921875 22.06640625 C25.99707031 22.69804688 26.54492188 23.3296875 27.109375 23.98046875 C27.65464844 24.60695312 28.19992188 25.2334375 28.76171875 25.87890625 C31.41403337 29.12633856 31.57903075 31.4524801 31.171875 35.60546875 C29.18357313 39.18441212 27.80260997 40.3581217 23.984375 41.85546875 C18.33232536 41.48484254 15.25468023 38.31795151 11.171875 34.60546875 C10.44871094 35.23775391 10.44871094 35.23775391 9.7109375 35.8828125 C9.07929688 36.43066406 8.44765625 36.97851562 7.796875 37.54296875 C7.17039062 38.08824219 6.54390625 38.63351563 5.8984375 39.1953125 C2.76432615 41.75507312 0.18637771 41.9557588 -3.8515625 41.875 C-5.828125 41.60546875 -5.828125 41.60546875 -8.328125 40.10546875 C-10.0073907 37.30669258 -10.56288119 35.0526255 -10.43359375 31.77734375 C-9.24446282 27.51181604 -5.95260105 24.60241516 -2.828125 21.60546875 C-3.24964844 21.12335938 -3.67117187 20.64125 -4.10546875 20.14453125 C-4.65332031 19.51289062 -5.20117188 18.88125 -5.765625 18.23046875 C-6.31089844 17.60398437 -6.85617188 16.9775 -7.41796875 16.33203125 C-9.97772937 13.1979199 -10.17841505 10.61997146 -10.09765625 6.58203125 C-9.828125 4.60546875 -9.828125 4.60546875 -8.328125 2.10546875 C-5.52934883 0.42620305 -3.27528175 -0.12928744 0 0 Z " fill="#eb347d" transform="translate(120.828125,103.39453125)"/>
<path d="M0 0 C5.02839605 2.82263124 7.59067393 5.80441511 9.7890625 11.1171875 C10.64338812 16.99067615 9.04338419 21.30372133 5.7890625 26.1171875 C0.59171562 30.94329532 -3.10420097 31.64409906 -10.0859375 31.59375 C-15.22147274 30.81058088 -18.0987905 28.14179645 -21.2109375 24.1171875 C-23.37035101 19.79836048 -23.78856152 15.90321509 -23.2109375 11.1171875 C-21.09053447 6.07176421 -18.14040676 2.15519541 -13.16015625 -0.25390625 C-8.59804654 -1.72584946 -4.47459958 -1.78667757 0 0 Z " fill="#EAE7D8" transform="translate(281.2109375,305.8828125)"/>
<path d="M0 0 C1.04056801 -0.00006042 1.04056801 -0.00006042 2.10215759 -0.00012207 C3.56209421 0.00521782 5.02203157 0.02273556 6.48168945 0.05175781 C8.71199585 0.09369645 10.93928669 0.09281687 13.16992188 0.0859375 C23.85494609 0.16473883 23.85494609 0.16473883 27.04467773 1.88085938 C29.21400926 4.19217752 29.51042953 6.48870633 29.76171875 9.58984375 C29.5995683 12.56067163 28.50965956 14.32369734 26.65234375 16.59375 C22.16429901 18.83777237 16.09339753 17.90363449 11.10424805 17.94384766 C9.59985874 17.96039188 8.09554755 17.98766251 6.59155273 18.02587891 C4.41739334 18.08081208 2.24507353 18.1025437 0.0703125 18.1171875 C-1.88225464 18.1469165 -1.88225464 18.1469165 -3.87426758 18.17724609 C-8.2324137 17.44511921 -9.67765057 16.04927318 -12.34765625 12.59375 C-12.97265625 9.09375 -12.97265625 9.09375 -12.34765625 5.59375 C-8.58427976 0.74142844 -6.04776795 -0.0332648 0 0 Z " fill="#eb347d" transform="translate(425.34765625,80.40625)"/>
<path d="M0 0 C2.19335938 1.58398438 2.19335938 1.58398438 4 4 C4.39842915 6.6326394 4.56215695 8.84012168 4.53125 11.46875 C4.5350769 12.186073 4.53890381 12.903396 4.54284668 13.64245605 C4.54556227 15.15536914 4.53822555 16.66832945 4.52148438 18.18115234 C4.50006551 20.49292976 4.52129351 22.80160013 4.546875 25.11328125 C4.54423166 26.58594434 4.53910653 28.0586055 4.53125 29.53125 C4.53934692 30.21989136 4.54744385 30.90853271 4.55578613 31.61804199 C4.49136902 34.92595319 4.19225334 36.73840939 2.21289062 39.43164062 C-0.44988752 41.31885232 -2.67346619 41.51977918 -5.90234375 41.62890625 C-9.26485581 40.6207788 -10.78562532 38.67031497 -13 36 C-13.63110352 32.66601562 -13.63110352 32.66601562 -13.62890625 28.90625 C-13.63131821 28.23710571 -13.63373016 27.56796143 -13.63621521 26.87854004 C-13.63523979 25.46991015 -13.62191848 24.06124049 -13.59692383 22.65283203 C-13.56258798 20.50550193 -13.57627926 18.36228751 -13.59570312 16.21484375 C-13.58880411 14.84112845 -13.57913119 13.46742369 -13.56640625 12.09375 C-13.55009155 10.23266602 -13.55009155 10.23266602 -13.53344727 8.33398438 C-12.91055961 4.44100781 -11.74091198 2.77966071 -9 0 C-5.81452856 -1.59273572 -3.39809153 -0.76164121 0 0 Z " fill="#eb347d" transform="translate(467,98)"/>
<path d="M0 0 C3.9375 0.5625 3.9375 0.5625 6.15039062 2.13085938 C8.53279295 5.37248876 8.5143029 8.15698705 8.46875 12.03125 C8.4725769 12.748573 8.47640381 13.465896 8.48034668 14.20495605 C8.48306227 15.71786914 8.47572555 17.23082945 8.45898438 18.74365234 C8.43756551 21.05542976 8.45879351 23.36410013 8.484375 25.67578125 C8.48173166 27.14844434 8.47660653 28.6211055 8.46875 30.09375 C8.47684692 30.78239136 8.48494385 31.47103271 8.49328613 32.18054199 C8.42858358 35.50311116 8.14587086 37.28698493 6.11914062 39.96679688 C3.0144597 42.23763332 0.76186659 42.5625 -3.0625 42.5625 C-5.86439446 40.79608828 -7.57774911 39.53200178 -9.0625 36.5625 C-9.34405398 32.19271088 -9.37614613 27.81928113 -9.41259766 23.44165039 C-9.42914004 21.98575842 -9.45640836 20.5299471 -9.49462891 19.07446289 C-9.54958123 16.96978877 -9.57129616 14.86701493 -9.5859375 12.76171875 C-9.60575684 11.50190186 -9.62557617 10.24208496 -9.64599609 8.9440918 C-8.76411094 3.83321682 -5.49421318 -0.18568911 0 0 Z " fill="#eb347d" transform="translate(463.0625,39.4375)"/>
<path d="M0 0 C0.72015289 -0.0066568 1.44030579 -0.0133136 2.18228149 -0.02017212 C3.70710697 -0.03030337 5.23197683 -0.03498899 6.75683594 -0.03466797 C9.08603435 -0.0390334 11.4133256 -0.07532139 13.7421875 -0.11328125 C15.22395186 -0.11915101 16.70572521 -0.12311934 18.1875 -0.125 C18.88241547 -0.13937103 19.57733093 -0.15374207 20.29330444 -0.16854858 C23.69960445 -0.13649633 25.4369176 0.11117747 28.16235352 2.22607422 C29.94995608 4.63725907 30.29415784 5.86025869 30.2890625 8.8359375 C30.31097656 9.58875 30.33289063 10.3415625 30.35546875 11.1171875 C29.40213242 14.48051072 27.6233073 15.45644422 24.7265625 17.3359375 C21.28491211 17.85351562 21.28491211 17.85351562 17.37890625 17.8671875 C16.68519424 17.8710144 15.99148224 17.87484131 15.27674866 17.87878418 C13.81688985 17.88149506 12.3569818 17.87419152 10.8972168 17.85742188 C8.66670386 17.83596291 6.43939901 17.85726309 4.20898438 17.8828125 C2.78645125 17.88016971 1.36392012 17.87504572 -0.05859375 17.8671875 C-1.34644775 17.86267578 -2.63430176 17.85816406 -3.96118164 17.85351562 C-7.80745503 17.25249111 -8.97181877 16.41454917 -11.2734375 13.3359375 C-12.44083267 9.6780993 -12.62727879 8.07731926 -10.9609375 4.5859375 C-7.59305273 0.09542448 -5.35237957 0.01704309 0 0 Z " fill="#eb347d" transform="translate(482.2734375,80.6640625)"/>
<path d="M0 0 C4.0978357 2.11806428 6.3858792 4.82293512 8.5 8.875 C9.23777538 13.48609613 9.36045304 17.61526765 6.98828125 21.7734375 C4.42960457 25.08276696 2.05584019 27.03432377 -2 28 C-7.24665744 28.47696886 -10.55844889 27.86233294 -15 25 C-18.76274495 21.54234248 -19.81611792 18.3100087 -20.1640625 13.34765625 C-19.80923757 8.2702805 -17.53594417 4.48940041 -13.9375 1 C-9.24740245 -0.59662895 -4.88386877 -0.85939322 0 0 Z " fill="#eb347d" transform="translate(492,206)"/>
<path d="M0 0 C3.45383685 2.35488876 4.9543281 4.07646328 6.75 7.875 C7.55448032 12.92352445 7.32642572 16.70079945 5.0625 21.3125 C2.03115306 24.67156012 0.00860352 26.56855631 -4.58203125 27.19140625 C-8.92021667 27.39303106 -11.71690399 27.12700902 -15.6875 25.25 C-19.65147563 21.57607137 -21.38191549 18.19074481 -21.625 12.8125 C-21.06444638 6.92668704 -18.63588305 3.71264767 -14.25 -0.125 C-9.23972375 -1.79509208 -4.91956683 -1.70292698 0 0 Z " fill="#eb347d" transform="translate(263.25,34.125)"/>
<path d="M0 0 C6.39126109 1.23701828 12.36245903 4.88242606 16.671875 9.80078125 C18.44222073 12.66897125 18.41463549 14.4447326 17.875 17.75 C15.4225326 21.16859092 13.85588125 22.5145885 9.75 23.5 C3.35873891 22.26298172 -2.61245903 18.61757394 -6.921875 13.69921875 C-8.69222073 10.83102875 -8.66463549 9.0552674 -8.125 5.75 C-5.6725326 2.33140908 -4.10588125 0.9854115 0 0 Z " fill="#4D251E" transform="translate(362.125,159.25)"/>
<path d="M0 0 C0.99 0.66 1.98 1.32 3 2 C3.77657935 8.87827427 3.77657935 8.87827427 1.3125 12.4375 C-1.18625279 14.12584648 -3.02247554 14.66916395 -6 15 C-4.36041242 9.76727367 -2.61047965 4.84803364 0 0 Z " fill="#BDD5D5" transform="translate(31,228)"/>
</svg>
