<?xml version="1.0" encoding="UTF-8"?>
<svg version="1.1" xmlns="http://www.w3.org/2000/svg" width="512" height="512">
<path d="M0 0 C4.26552771 1.18913093 7.17492859 4.4809927 10.171875 7.60546875 C10.65398437 7.18394531 11.13609375 6.76242188 11.6328125 6.328125 C12.26445312 5.78027344 12.89609375 5.23242188 13.546875 4.66796875 C14.17335937 4.12269531 14.79984375 3.57742187 15.4453125 3.015625 C18.57942385 0.45586438 21.15737229 0.2551787 25.1953125 0.3359375 C27.171875 0.60546875 27.171875 0.60546875 29.671875 2.10546875 C31.3511407 4.90424492 31.90663119 7.158312 31.77734375 10.43359375 C30.58821282 14.69912146 27.29635105 17.60852234 24.171875 20.60546875 C24.59339844 21.064375 25.01492187 21.52328125 25.44921875 21.99609375 C25.99707031 22.6096875 26.54492188 23.22328125 27.109375 23.85546875 C27.65464844 24.45875 28.19992188 25.06203125 28.76171875 25.68359375 C30.23400299 27.6901418 30.74716689 29.17549324 31.171875 31.60546875 C31.90148437 31.41210938 32.63109375 31.21875 33.3828125 31.01953125 C61.00177664 24.13183896 91.40261735 24.35470102 118.859375 31.85546875 C127.91095052 34.30100537 136.65429629 33.50762447 145.91308594 32.77685547 C169.4351403 30.99210815 200.2314549 33.91565182 221.171875 45.60546875 C223.20945461 48.35620122 223.17574106 49.57002987 222.796875 53.04296875 C222.77226521 56.58495555 222.77226521 56.58495555 224.875 58.16796875 C228.74321238 60.74554485 228.74321238 60.74554485 233.171875 61.60546875 C234.2546875 60.36796875 234.2546875 60.36796875 235.359375 59.10546875 C238.171875 56.60546875 238.171875 56.60546875 241.296875 55.85546875 C247.69838694 57.09447106 253.64170737 60.74741763 257.98046875 65.6484375 C259.66381 68.41353247 259.50961013 70.4307585 259.171875 73.60546875 C258.511875 74.59546875 257.851875 75.58546875 257.171875 76.60546875 C260.141875 78.58546875 263.111875 80.56546875 266.171875 82.60546875 C267.491875 81.94546875 268.811875 81.28546875 270.171875 80.60546875 C274.11817113 80.01352433 276.62065473 79.67600548 280.08203125 81.75 C282.25915357 83.58736607 284.20670615 85.54204146 286.171875 87.60546875 C287.0175 88.4665625 287.863125 89.32765625 288.734375 90.21484375 C313.50798837 116.25528962 329.88245845 149.27221419 336.171875 184.60546875 C336.35065186 185.6094873 336.52942871 186.61350586 336.71362305 187.64794922 C338.25411925 197.21206329 338.53063195 206.57163827 338.484375 216.23046875 C338.48164078 217.41768021 338.48164078 217.41768021 338.47885132 218.62887573 C338.43156916 230.84045521 337.87842213 242.65510417 335.171875 254.60546875 C335.00558594 255.36956055 334.83929688 256.13365234 334.66796875 256.92089844 C323.81208976 305.59142258 293.82886994 348.4292524 251.71386719 375.19628906 C231.09933615 387.81215738 208.8787384 396.19181022 185.171875 400.60546875 C183.98464844 400.83234375 182.79742187 401.05921875 181.57421875 401.29296875 C158.31051116 404.93820694 132.98974131 403.7691388 110.234375 397.85546875 C105.83966882 396.76417859 102.23242438 396.5792657 97.73046875 397.01171875 C46.14674061 401.30331164 -4.09547845 388.95661162 -44.328125 355.41796875 C-78.64810337 325.95636367 -100.46472464 288.05224563 -108.828125 243.60546875 C-109.07433594 242.33574219 -109.32054688 241.06601562 -109.57421875 239.7578125 C-113.62425479 214.08896341 -111.45976972 186.58047633 -104.59765625 161.625 C-103.70464623 158.64029672 -103.70464623 158.64029672 -103.828125 155.60546875 C-105.024375 155.08984375 -106.220625 154.57421875 -107.453125 154.04296875 C-113.37877728 151.06441079 -117.99837461 146.10266255 -120.3515625 139.80859375 C-122.15829542 131.45615632 -121.78802784 123.16889805 -117.4375 115.7265625 C-112.72065017 109.50993761 -106.36364526 106.24659839 -98.828125 104.60546875 C-92.90329191 103.9706652 -88.29027552 105.56245509 -82.828125 107.60546875 C-81.838125 107.93546875 -80.848125 108.26546875 -79.828125 108.60546875 C-79.26867187 107.76886719 -78.70921875 106.93226563 -78.1328125 106.0703125 C-71.52923258 96.40835055 -64.0116913 87.95204962 -55.828125 79.60546875 C-55.2491748 79.00822998 -54.67022461 78.41099121 -54.07373047 77.7956543 C-50.3565571 74.00598834 -46.52359057 70.54350412 -42.328125 67.29296875 C-41.72919434 66.82785889 -41.13026367 66.36274902 -40.51318359 65.88354492 C-28.94132371 57.00858046 -17.00977697 49.83058922 -3.828125 43.60546875 C-3.168125 43.27546875 -2.508125 42.94546875 -1.828125 42.60546875 C-2.59125 42.33734375 -3.354375 42.06921875 -4.140625 41.79296875 C-8.35557387 39.93054948 -8.35557387 39.93054948 -9.828125 37.60546875 C-10.56952 33.23123828 -10.78660923 31.00981504 -8.2578125 27.3046875 C-6.51564213 25.31917754 -4.73398443 23.433538 -2.828125 21.60546875 C-3.46041016 20.88230469 -3.46041016 20.88230469 -4.10546875 20.14453125 C-4.65332031 19.51289062 -5.20117188 18.88125 -5.765625 18.23046875 C-6.31089844 17.60398437 -6.85617188 16.9775 -7.41796875 16.33203125 C-9.97772937 13.1979199 -10.17841505 10.61997146 -10.09765625 6.58203125 C-9.828125 4.60546875 -9.828125 4.60546875 -8.328125 2.10546875 C-5.52934883 0.42620305 -3.27528175 -0.12928744 0 0 Z M10.171875 33.60546875 C8.48099278 35.58503817 6.81357028 37.58492071 5.171875 39.60546875 C7.811875 38.94546875 10.451875 38.28546875 13.171875 37.60546875 C12.511875 36.28546875 11.851875 34.96546875 11.171875 33.60546875 C10.841875 33.60546875 10.511875 33.60546875 10.171875 33.60546875 Z M-101.203125 124.16796875 C-103.3980729 127.46039059 -103.89756897 129.6471623 -103.828125 133.60546875 C-101.80604141 136.71160962 -101.80604141 136.71160962 -98.828125 138.60546875 C-96.76227159 138.69793967 -96.76227159 138.69793967 -94.828125 137.60546875 C-93.17010175 135.22258277 -93.17010175 135.22258277 -91.953125 132.29296875 C-91.50195312 131.32746094 -91.05078125 130.36195313 -90.5859375 129.3671875 C-89.55252329 126.64995259 -89.55252329 126.64995259 -90.6953125 124.25 C-91.06914063 123.70730469 -91.44296875 123.16460937 -91.828125 122.60546875 C-96.79098492 122.18466041 -96.79098492 122.18466041 -101.203125 124.16796875 Z " fill="#8888888" transform="translate(120.828125,103.39453125)"/>
<path d="M0 0 C4.26552771 1.18913093 7.17492859 4.4809927 10.171875 7.60546875 C10.65398437 7.18394531 11.13609375 6.76242188 11.6328125 6.328125 C12.26445312 5.78027344 12.89609375 5.23242188 13.546875 4.66796875 C14.17335937 4.12269531 14.79984375 3.57742187 15.4453125 3.015625 C18.57942385 0.45586438 21.15737229 0.2551787 25.1953125 0.3359375 C27.171875 0.60546875 27.171875 0.60546875 29.671875 2.10546875 C31.3511407 4.90424492 31.90663119 7.158312 31.77734375 10.43359375 C30.58821282 14.69912146 27.29635105 17.60852234 24.171875 20.60546875 C24.59339844 21.064375 25.01492187 21.52328125 25.44921875 21.99609375 C25.99707031 22.6096875 26.54492188 23.22328125 27.109375 23.85546875 C27.65464844 24.45875 28.19992188 25.06203125 28.76171875 25.68359375 C30.23400299 27.6901418 30.74716689 29.17549324 31.171875 31.60546875 C31.90148437 31.41210938 32.63109375 31.21875 33.3828125 31.01953125 C61.76409055 23.94173104 91.72400693 25.18720751 120.109375 31.66796875 C120.81956787 31.83006836 121.52976074 31.99216797 122.26147461 32.15917969 C123.91744881 32.5706174 125.54890192 33.07869562 127.171875 33.60546875 C127.501875 34.26546875 127.831875 34.92546875 128.171875 35.60546875 C126.934375 35.80140625 125.696875 35.99734375 124.421875 36.19921875 C76.47246913 44.28142209 33.00608335 70.12971055 4.28344727 109.64038086 C-8.34044203 127.45932306 -17.5548129 146.72563892 -23.828125 167.60546875 C-24.28832031 169.08660156 -24.28832031 169.08660156 -24.7578125 170.59765625 C-33.7719139 202.65812001 -32.6546272 240.16216204 -21.828125 271.60546875 C-21.58723145 272.31832031 -21.34633789 273.03117187 -21.09814453 273.765625 C-17.20373325 285.19368309 -12.55135605 295.98017796 -6.828125 306.60546875 C-6.34690186 307.51570801 -6.34690186 307.51570801 -5.85595703 308.44433594 C2.71562806 324.57754789 14.26122309 337.78905517 27.171875 350.60546875 C28.0534729 351.52126709 28.0534729 351.52126709 28.95288086 352.45556641 C33.66388546 357.29980802 38.59119826 361.49909854 44.046875 365.48046875 C44.86986084 366.08197754 45.69284668 366.68348633 46.54077148 367.30322266 C63.32765791 379.34079709 82.36384953 388.70190037 102.171875 394.60546875 C88.63823264 403.62789699 55.24169161 398.09725679 39.78564453 395.14892578 C-9.86779615 384.82494307 -53.37059843 356.53194601 -81.328125 313.98046875 C-95.20844487 292.11421142 -104.04204936 269.04077343 -108.828125 243.60546875 C-109.07433594 242.33574219 -109.32054688 241.06601562 -109.57421875 239.7578125 C-113.62425479 214.08896341 -111.45976972 186.58047633 -104.59765625 161.625 C-103.70464623 158.64029672 -103.70464623 158.64029672 -103.828125 155.60546875 C-105.024375 155.08984375 -106.220625 154.57421875 -107.453125 154.04296875 C-113.37877728 151.06441079 -117.99837461 146.10266255 -120.3515625 139.80859375 C-122.15829542 131.45615632 -121.78802784 123.16889805 -117.4375 115.7265625 C-112.72065017 109.50993761 -106.36364526 106.24659839 -98.828125 104.60546875 C-92.90329191 103.9706652 -88.29027552 105.56245509 -82.828125 107.60546875 C-81.838125 107.93546875 -80.848125 108.26546875 -79.828125 108.60546875 C-79.26867187 107.76886719 -78.70921875 106.93226563 -78.1328125 106.0703125 C-71.52923258 96.40835055 -64.0116913 87.95204962 -55.828125 79.60546875 C-55.2491748 79.00822998 -54.67022461 78.41099121 -54.07373047 77.7956543 C-50.3565571 74.00598834 -46.52359057 70.54350412 -42.328125 67.29296875 C-41.72919434 66.82785889 -41.13026367 66.36274902 -40.51318359 65.88354492 C-28.94132371 57.00858046 -17.00977697 49.83058922 -3.828125 43.60546875 C-3.168125 43.27546875 -2.508125 42.94546875 -1.828125 42.60546875 C-2.59125 42.33734375 -3.354375 42.06921875 -4.140625 41.79296875 C-8.35557387 39.93054948 -8.35557387 39.93054948 -9.828125 37.60546875 C-10.56952 33.23123828 -10.78660923 31.00981504 -8.2578125 27.3046875 C-6.51564213 25.31917754 -4.73398443 23.433538 -2.828125 21.60546875 C-3.46041016 20.88230469 -3.46041016 20.88230469 -4.10546875 20.14453125 C-4.65332031 19.51289062 -5.20117188 18.88125 -5.765625 18.23046875 C-6.31089844 17.60398437 -6.85617188 16.9775 -7.41796875 16.33203125 C-9.97772937 13.1979199 -10.17841505 10.61997146 -10.09765625 6.58203125 C-9.828125 4.60546875 -9.828125 4.60546875 -8.328125 2.10546875 C-5.52934883 0.42620305 -3.27528175 -0.12928744 0 0 Z M10.171875 33.60546875 C8.48099278 35.58503817 6.81357028 37.58492071 5.171875 39.60546875 C7.811875 38.94546875 10.451875 38.28546875 13.171875 37.60546875 C12.511875 36.28546875 11.851875 34.96546875 11.171875 33.60546875 C10.841875 33.60546875 10.511875 33.60546875 10.171875 33.60546875 Z M-101.203125 124.16796875 C-103.3980729 127.46039059 -103.89756897 129.6471623 -103.828125 133.60546875 C-101.80604141 136.71160962 -101.80604141 136.71160962 -98.828125 138.60546875 C-96.76227159 138.69793967 -96.76227159 138.69793967 -94.828125 137.60546875 C-93.17010175 135.22258277 -93.17010175 135.22258277 -91.953125 132.29296875 C-91.50195312 131.32746094 -91.05078125 130.36195313 -90.5859375 129.3671875 C-89.55252329 126.64995259 -89.55252329 126.64995259 -90.6953125 124.25 C-91.06914063 123.70730469 -91.44296875 123.16460937 -91.828125 122.60546875 C-96.79098492 122.18466041 -96.79098492 122.18466041 -101.203125 124.16796875 Z " fill="#C0DADB" transform="translate(120.828125,103.39453125)"/>
<path d="M0 0 C1.3402522 0.21400692 2.681486 0.42192093 4.0234375 0.625 C12.63678639 1.9645293 20.56025806 3.95802369 28.73046875 7.01171875 C32.04777373 8.01444057 34.55877544 8.31374406 38 8 C38.66 7.46375 39.32 6.9275 40 6.375 C40.66 5.92125 41.32 5.4675 42 5 C46.08180072 5.85037515 48.76444132 7.45777532 52 10 C52.66 10 53.32 10 54 10 C54.721875 9.175 55.44375 8.35 56.1875 7.5 C59 5 59 5 62.125 4.25 C68.52651194 5.48900231 74.46983237 9.14194888 78.80859375 14.04296875 C80.491935 16.80806372 80.33773513 18.82528975 80 22 C79.34 22.99 78.68 23.98 78 25 C78.721875 25.40089844 79.44375 25.80179688 80.1875 26.21484375 C83.06313671 27.97617124 85.57392158 29.65190267 88 32 C88.3125 34.1171875 88.3125 34.1171875 88 36.3125 C87.59280737 39.70194848 87.72788593 40.64948982 89.87109375 43.41015625 C91.62913762 45.09862761 93.41051225 46.76304499 95.2109375 48.40625 C99.64709113 52.53174862 103.27535859 57.23745146 107 62 C108.11181641 63.38638672 108.11181641 63.38638672 109.24609375 64.80078125 C125.06474141 85.060713 140 113.92536604 140 140 C114.59 140 89.18 140 63 140 C61.35 135.71 59.7 131.42 58 127 C54.31235329 119.62470658 50.30426445 113.29059462 45 107 C44.35546875 106.19820313 43.7109375 105.39640625 43.046875 104.5703125 C33.22196848 92.8895903 20.90023334 85.8270299 7 80 C6.22914063 79.66226563 5.45828125 79.32453125 4.6640625 78.9765625 C-14.96198464 70.8858247 -41.07965188 72.79978919 -60.3515625 80.765625 C-68.9878429 84.51499313 -76.71949629 88.98068591 -84 95 C-84.84949219 95.68707031 -85.69898438 96.37414062 -86.57421875 97.08203125 C-95.81813603 104.93865313 -102.25920062 114.21270112 -107.9375 124.8125 C-108.50416382 125.87017578 -108.50416382 125.87017578 -109.08227539 126.94921875 C-111.37294188 131.38108091 -112.57417895 135.00962631 -114 140 C-139.41 140 -164.82 140 -191 140 C-191 132.96914512 -190.33852703 128.19091942 -188.5 121.625 C-188.23300293 120.66327881 -187.96600586 119.70155762 -187.69091797 118.71069336 C-184.99082578 109.3729388 -181.31629959 100.69231898 -177 92 C-176.67773438 91.33919434 -176.35546875 90.67838867 -176.0234375 89.99755859 C-169.70789789 77.15146862 -161.84879861 65.68465267 -152.0625 55.21875 C-150.22554251 53.24262907 -148.52188835 51.21045379 -146.8125 49.125 C-123.06039161 22.11917813 -87.64200478 6.53161413 -53 0 C-51.73285156 -0.24621094 -50.46570313 -0.49242187 -49.16015625 -0.74609375 C-33.1663633 -3.35475514 -15.86072785 -3.21229931 0 0 Z " fill="#FECD55" transform="translate(300,155)"/>
<path d="M0 0 C25.41 0 50.82 0 77 0 C78.98 5.61 80.96 11.22 83 17 C94.44547937 39.69362288 111.64757161 55.63101731 135.625 64.3125 C138.73695054 65.29218813 141.84098669 66.18607055 145 67 C146.1859375 67.35578125 147.371875 67.7115625 148.59375 68.078125 C163.3022264 71.70291318 180.82206955 69.96688887 195 65 C195.63969727 64.78037598 196.27939453 64.56075195 196.93847656 64.33447266 C220.5982351 56.07168501 238.09284853 40.24775759 249.3137207 18.08325195 C252.15909066 12.1579142 253.8772665 6.3682005 256 0 C281.41 0 306.82 0 333 0 C330.63942308 15.34375 330.63942308 15.34375 328.4375 22.5 C328.1806543 23.33893799 327.92380859 24.17787598 327.65917969 25.04223633 C319.31896591 51.34805096 305.94987328 74.00264629 287 94 C286.15824219 94.89460938 285.31648438 95.78921875 284.44921875 96.7109375 C255.95214673 126.15653725 214.4769828 144.36949788 173.5234375 145.203125 C170.80722807 145.23515676 168.09138782 145.24730297 165.375 145.25 C164.31285278 145.25151062 164.31285278 145.25151062 163.22924805 145.25305176 C152.50317556 145.24275104 142.44816086 144.5981019 132 142 C130.66593253 141.70445579 129.33127883 141.41154717 127.99609375 141.12109375 C98.66631534 134.52850736 71.84319706 119.41254716 50.43164062 98.40087891 C49.07952389 97.07781515 47.70445603 95.77832477 46.328125 94.48046875 C22.05178341 71.14653173 4.52376145 36.36274067 0 3 C0 2.01 0 1.02 0 0 Z " fill="#FEFDFD" transform="translate(108,344)"/>
<path d="M0 0 C12.66918912 10.45515607 19.20935739 24.18034523 24.76171875 39.28515625 C26.66187925 44.55500232 26.66187925 44.55500232 30.76171875 48.28515625 C33.44777096 48.49815252 36.03364628 48.59641743 38.72143555 48.60400391 C39.53141998 48.61404953 40.34140442 48.62409515 41.17593384 48.63444519 C43.85426115 48.66534562 46.53248819 48.68233129 49.2109375 48.69921875 C51.06753913 48.71792489 52.92413222 48.73749788 54.78071594 48.75790405 C59.66821254 48.80928982 64.55573672 48.84888102 69.44335938 48.88604736 C74.43040832 48.92604664 79.41734188 48.97715755 84.40429688 49.02734375 C94.19003128 49.12417941 103.97581306 49.2075329 113.76171875 49.28515625 C113.76171875 54.56515625 113.76171875 59.84515625 113.76171875 65.28515625 C111.26834961 65.29973877 108.77498047 65.31432129 106.20605469 65.3293457 C97.97171082 65.37966294 89.73755663 65.44625289 81.5033989 65.52087116 C76.5105831 65.56561546 71.51784967 65.60486263 66.52490234 65.6315918 C61.70720907 65.65758427 56.88983207 65.69795787 52.07233429 65.74834251 C50.23356304 65.7650387 48.39473705 65.77653582 46.55590057 65.78277016 C43.98191604 65.7923814 41.40874569 65.82040433 38.83496094 65.8527832 C37.69236565 65.85063057 37.69236565 65.85063057 36.52668762 65.84843445 C33.39634953 65.90419538 31.1146053 66.09512489 28.33453369 67.59220886 C25.82871992 70.28941803 25.29824348 73.61362126 24.44921875 77.09765625 C21.02640601 89.74952612 15.60455049 100.48077387 6.76171875 110.28515625 C6.17003906 110.96964844 5.57835937 111.65414062 4.96875 112.359375 C-3.96038779 122.05005973 -15.77540437 128.40002959 -28.23828125 132.28515625 C-29.25148438 132.60355469 -30.2646875 132.92195312 -31.30859375 133.25 C-51.74606659 138.8075584 -71.45674928 134.56170322 -89.54345703 124.29345703 C-93.45070825 121.96891835 -96.88303423 119.34342284 -100.23828125 116.28515625 C-101.05683594 115.558125 -101.87539062 114.83109375 -102.71875 114.08203125 C-114.17224944 103.33896067 -122.44018164 88.55782315 -125.36328125 73.03515625 C-125.89567858 69.38887417 -125.89567858 69.38887417 -127.7769165 67.57780457 C-131.2834512 65.73625866 -134.62653717 65.8456695 -138.49511719 65.8527832 C-139.32475479 65.84259155 -140.1543924 65.8323999 -141.00917053 65.82189941 C-143.74706757 65.79174347 -146.48461488 65.78249956 -149.22265625 65.7734375 C-151.12267217 65.75659273 -153.02267694 65.73844277 -154.92266846 65.71903992 C-159.92031366 65.67151183 -164.91791362 65.64172061 -169.91571045 65.61560059 C-175.01681452 65.58580927 -180.11776268 65.53927403 -185.21875 65.49414062 C-195.22519686 65.40807537 -205.23162734 65.34229203 -215.23828125 65.28515625 C-215.23828125 60.00515625 -215.23828125 54.72515625 -215.23828125 49.28515625 C-211.41520386 49.27899292 -211.41520386 49.27899292 -207.51489258 49.27270508 C-199.09292188 49.25550595 -190.6712548 49.2110016 -182.24947071 49.15306568 C-177.14338624 49.11877811 -172.03760153 49.09368294 -166.93139648 49.08959961 C-162.00334786 49.08532047 -157.07597564 49.05688961 -152.14813805 49.01172447 C-150.2683271 48.99873717 -148.38843526 48.99444615 -146.50858498 48.99900246 C-143.87452837 49.00389978 -141.24245532 48.97785636 -138.60864258 48.94458008 C-137.83180618 48.95320572 -137.05496979 48.96183136 -136.2545929 48.97071838 C-132.26303294 48.88621088 -130.4436375 48.44933188 -127.28715515 45.92582703 C-125.01913661 43.00271386 -124.19124343 40.79779546 -123.30078125 37.22265625 C-117.56880519 17.08144393 -104.87291064 2.2161654 -87.17578125 -8.58984375 C-81.71257947 -11.61704161 -76.2221568 -13.93488675 -70.23828125 -15.71484375 C-69.50996094 -15.94042969 -68.78164062 -16.16601562 -68.03125 -16.3984375 C-43.61082014 -22.59977258 -19.39077885 -14.85611154 0 0 Z " fill="#EAE7D8" transform="translate(324.23828125,262.71484375)"/>
<path d="M0 0 C12.66918912 10.45515607 19.20935739 24.18034523 24.76171875 39.28515625 C26.66187925 44.55500232 26.66187925 44.55500232 30.76171875 48.28515625 C33.44777096 48.49815252 36.03364628 48.59641743 38.72143555 48.60400391 C39.53141998 48.61404953 40.34140442 48.62409515 41.17593384 48.63444519 C43.85426115 48.66534562 46.53248819 48.68233129 49.2109375 48.69921875 C51.06753913 48.71792489 52.92413222 48.73749788 54.78071594 48.75790405 C59.66821254 48.80928982 64.55573672 48.84888102 69.44335938 48.88604736 C74.43040832 48.92604664 79.41734188 48.97715755 84.40429688 49.02734375 C94.19003128 49.12417941 103.97581306 49.2075329 113.76171875 49.28515625 C113.76171875 54.56515625 113.76171875 59.84515625 113.76171875 65.28515625 C111.26834961 65.29973877 108.77498047 65.31432129 106.20605469 65.3293457 C97.97171082 65.37966294 89.73755663 65.44625289 81.5033989 65.52087116 C76.5105831 65.56561546 71.51784967 65.60486263 66.52490234 65.6315918 C61.70720907 65.65758427 56.88983207 65.69795787 52.07233429 65.74834251 C50.23356304 65.7650387 48.39473705 65.77653582 46.55590057 65.78277016 C43.98191604 65.7923814 41.40874569 65.82040433 38.83496094 65.8527832 C37.69236565 65.85063057 37.69236565 65.85063057 36.52668762 65.84843445 C33.39634953 65.90419538 31.1146053 66.09512489 28.33453369 67.59220886 C25.82871992 70.28941803 25.29824348 73.61362126 24.44921875 77.09765625 C21.02640601 89.74952612 15.60455049 100.48077387 6.76171875 110.28515625 C6.17003906 110.96964844 5.57835937 111.65414062 4.96875 112.359375 C-3.96038779 122.05005973 -15.77540437 128.40002959 -28.23828125 132.28515625 C-29.25148438 132.60355469 -30.2646875 132.92195312 -31.30859375 133.25 C-51.74606659 138.8075584 -71.45674928 134.56170322 -89.54345703 124.29345703 C-93.45070825 121.96891835 -96.88303423 119.34342284 -100.23828125 116.28515625 C-101.05683594 115.558125 -101.87539062 114.83109375 -102.71875 114.08203125 C-114.17224944 103.33896067 -122.44018164 88.55782315 -125.36328125 73.03515625 C-125.89567858 69.38887417 -125.89567858 69.38887417 -127.7769165 67.57780457 C-131.2834512 65.73625866 -134.62653717 65.8456695 -138.49511719 65.8527832 C-139.32475479 65.84259155 -140.1543924 65.8323999 -141.00917053 65.82189941 C-143.74706757 65.79174347 -146.48461488 65.78249956 -149.22265625 65.7734375 C-151.12267217 65.75659273 -153.02267694 65.73844277 -154.92266846 65.71903992 C-159.92031366 65.67151183 -164.91791362 65.64172061 -169.91571045 65.61560059 C-175.01681452 65.58580927 -180.11776268 65.53927403 -185.21875 65.49414062 C-195.22519686 65.40807537 -205.23162734 65.34229203 -215.23828125 65.28515625 C-215.23828125 60.00515625 -215.23828125 54.72515625 -215.23828125 49.28515625 C-211.41520386 49.27899292 -211.41520386 49.27899292 -207.51489258 49.27270508 C-199.09292188 49.25550595 -190.6712548 49.2110016 -182.24947071 49.15306568 C-177.14338624 49.11877811 -172.03760153 49.09368294 -166.93139648 49.08959961 C-162.00334786 49.08532047 -157.07597564 49.05688961 -152.14813805 49.01172447 C-150.2683271 48.99873717 -148.38843526 48.99444615 -146.50858498 48.99900246 C-143.87452837 49.00389978 -141.24245532 48.97785636 -138.60864258 48.94458008 C-137.83180618 48.95320572 -137.05496979 48.96183136 -136.2545929 48.97071838 C-132.26303294 48.88621088 -130.4436375 48.44933188 -127.28715515 45.92582703 C-125.01913661 43.00271386 -124.19124343 40.79779546 -123.30078125 37.22265625 C-117.56880519 17.08144393 -104.87291064 2.2161654 -87.17578125 -8.58984375 C-81.71257947 -11.61704161 -76.2221568 -13.93488675 -70.23828125 -15.71484375 C-69.50996094 -15.94042969 -68.78164062 -16.16601562 -68.03125 -16.3984375 C-43.61082014 -22.59977258 -19.39077885 -14.85611154 0 0 Z M-101.03125 18.28515625 C-112.18777894 33.45013718 -115.65240582 49.73775407 -114.23828125 68.28515625 C-113.62669927 72.16294057 -112.67812463 75.63920092 -111.23828125 79.28515625 C-110.80322266 80.42597656 -110.80322266 80.42597656 -110.359375 81.58984375 C-109.4120956 83.88075376 -108.36224548 86.075852 -107.23828125 88.28515625 C-106.85285156 89.06375 -106.46742188 89.84234375 -106.0703125 90.64453125 C-97.92041798 105.65372115 -84.2678931 115.61895035 -68.17578125 120.72265625 C-51.03549598 125.54268603 -34.11691759 123.40139516 -18.23828125 115.28515625 C-1.91856958 105.76126481 9.11737556 90.79164505 13.91015625 72.62109375 C17.75032792 55.26415918 14.18193884 38.02093399 4.75390625 23.08984375 C-5.41684926 8.7710154 -19.93675557 -2.07272637 -37.515625 -5.3203125 C-62.70485052 -7.98989464 -84.0652398 -1.20644216 -101.03125 18.28515625 Z " fill="#9BBEE1" transform="translate(324.23828125,262.71484375)"/>
<path d="M0 0 C1.3298291 0.01450195 1.3298291 0.01450195 2.68652344 0.02929688 C21.11012659 0.36734464 35.84595118 7.23249543 49.1015625 20.109375 C61.21703951 33.02543419 66.99355076 49.32257862 66.78149414 66.80639648 C66.02965327 84.1824605 58.35116409 99.04446443 46.1875 111.25 C45.57261719 111.88808594 44.95773437 112.52617187 44.32421875 113.18359375 C32.20788948 124.83291247 14.32971839 129.71075989 -2.1171875 129.5234375 C-18.94118867 128.27853255 -32.99186211 121.23284218 -44.8125 109.25 C-45.53308594 108.53972656 -46.25367188 107.82945312 -46.99609375 107.09765625 C-59.71654864 93.80009188 -63.35643291 77.16451393 -63.0859375 59.40625 C-62.43604422 41.82695844 -53.31298611 27.03964016 -40.8125 15.25 C-29.15648162 5.38013293 -15.22041158 -0.17434607 0 0 Z M-34.8125 32.25 C-42.18487173 42.06975743 -46.57423575 51.70879507 -46.375 64.0625 C-46.36476807 65.02373779 -46.35453613 65.98497559 -46.34399414 66.9753418 C-45.91358902 81.45670604 -39.90586158 91.64471311 -29.5 101.5 C-18.27929788 111.11227383 -6.38729274 113.11887409 7.89501953 112.4453125 C19.60665668 111.44751594 30.5154814 104.79529844 38.44140625 96.375 C41.28913332 92.90930978 43.3104769 89.31131688 45.1875 85.25 C45.58066406 84.486875 45.97382813 83.72375 46.37890625 82.9375 C50.96834288 72.70321623 51.12497593 58.67508585 47.5625 48.0625 C45.35380466 43.07335486 42.42470544 38.6255634 39.1875 34.25 C38.61 33.38375 38.0325 32.5175 37.4375 31.625 C28.76954232 22.47548911 16.62913701 16.87305219 4.109375 16.046875 C-10.71595252 15.82778149 -24.67162762 21.03488267 -34.8125 32.25 Z " fill="#4D2620" transform="translate(272.8125,256.75)"/>
<path d="M0 0 C7.33612439 5.33742796 11.68302949 12.31471348 14.5234375 20.8359375 C15.53104723 31.64615048 14.26991796 40.71233505 7.50390625 49.44140625 C0.28079717 57.19581232 -7.9543603 60.84790726 -18.4765625 61.2734375 C-27.18767044 61.21457866 -33.9192426 57.87448158 -40.4765625 52.2734375 C-41.1365625 51.4690625 -41.7965625 50.6646875 -42.4765625 49.8359375 C-43.1571875 49.1140625 -43.8378125 48.3921875 -44.5390625 47.6484375 C-50.48961352 39.01054086 -51.86984587 30.21535857 -50.4765625 19.8359375 C-47.32814694 9.65408038 -40.70338689 2.47583194 -31.4765625 -2.6640625 C-21.30892236 -6.61715551 -9.27994048 -5.41541732 0 0 Z " fill="#4E261F" transform="translate(292.4765625,293.1640625)"/>
<path d="M0 0 C0.99 0.66 1.98 1.32 3 2 C3 2.66 3 3.32 3 4 C3.59296875 4.2165625 4.1859375 4.433125 4.796875 4.65625 C9.40377721 7.46613362 11.15574135 13.12926562 13 18 C14.64979017 25.2069781 12.29188483 30.94647772 8.8515625 37.2890625 C6.17628951 41.20602337 3.10574078 43.68948191 -1 46 C-1.58007812 46.37125 -2.16015625 46.7425 -2.7578125 47.125 C-8.6765241 49.43474111 -17.55025367 48.85986215 -23.6171875 47.34765625 C-29.75808681 44.56394119 -33.43795252 39.55134423 -36.875 33.9375 C-39.61839445 26.59974618 -39.1708894 17.58093884 -36 10.5 C-31.89376037 3.47556198 -25.8715112 -0.31446345 -18.15234375 -2.53125 C-11.56851867 -3.9651139 -6.07340026 -2.56589391 0 0 Z M-18.375 16.5625 C-20.5699479 19.85492184 -21.06944397 22.04169355 -21 26 C-18.97791641 29.10614087 -18.97791641 29.10614087 -16 31 C-13.93414659 31.09247092 -13.93414659 31.09247092 -12 30 C-10.34197675 27.61711402 -10.34197675 27.61711402 -9.125 24.6875 C-8.67382812 23.72199219 -8.22265625 22.75648438 -7.7578125 21.76171875 C-6.72439829 19.04448384 -6.72439829 19.04448384 -7.8671875 16.64453125 C-8.24101562 16.10183594 -8.61484375 15.55914062 -9 15 C-13.96285992 14.57919166 -13.96285992 14.57919166 -18.375 16.5625 Z " fill="#4C251E" transform="translate(38,211)"/>
<path d="M0 0 C5.43817169 3.85802369 10.13649861 9.01641488 12.0703125 15.46875 C12.99683545 25.08950574 12.74582225 32.76323934 6.4921875 40.39453125 C1.74748792 45.55599499 -2.42872097 48.15581444 -9.42578125 48.78125 C-18.17002134 49.0585698 -24.37302441 48.72964591 -30.85546875 42.66796875 C-37.40079681 35.68899577 -39.59233939 29.30873457 -39.33984375 19.7578125 C-38.49352039 12.97110521 -35.56869769 7.64911943 -30.5546875 3.03125 C-21.65061541 -3.68485566 -10.1855823 -5.26192443 0 0 Z M-19.9296875 17.46875 C-21.84368686 19.99174916 -21.93369611 21.27633679 -21.8671875 24.46875 C-20.65909286 28.33465284 -19.47940514 29.53955563 -15.9296875 31.46875 C-11.66529977 31.54356382 -9.69250599 31.11714572 -6.4296875 28.34375 C-4.42282683 24.49726705 -4.65792226 22.58328459 -5.9296875 18.46875 C-8.11467506 15.93683501 -8.11467506 15.93683501 -10.9296875 14.46875 C-15.25558804 14.46875 -16.53553737 14.96779727 -19.9296875 17.46875 Z " fill="#4B231C" transform="translate(54.9296875,9.53125)"/>
<path d="M0 0 C4.26552771 1.18913093 7.17492859 4.4809927 10.171875 7.60546875 C10.65398437 7.18394531 11.13609375 6.76242188 11.6328125 6.328125 C12.26445312 5.78027344 12.89609375 5.23242188 13.546875 4.66796875 C14.48660156 3.85005859 14.48660156 3.85005859 15.4453125 3.015625 C18.57942385 0.45586438 21.15737229 0.2551787 25.1953125 0.3359375 C27.171875 0.60546875 27.171875 0.60546875 29.671875 2.10546875 C31.3511407 4.90424492 31.90663119 7.158312 31.77734375 10.43359375 C30.58821282 14.69912146 27.29635105 17.60852234 24.171875 20.60546875 C24.80416016 21.32863281 24.80416016 21.32863281 25.44921875 22.06640625 C25.99707031 22.69804688 26.54492188 23.3296875 27.109375 23.98046875 C27.65464844 24.60695312 28.19992188 25.2334375 28.76171875 25.87890625 C31.41403337 29.12633856 31.57903075 31.4524801 31.171875 35.60546875 C29.18357313 39.18441212 27.80260997 40.3581217 23.984375 41.85546875 C18.33232536 41.48484254 15.25468023 38.31795151 11.171875 34.60546875 C10.44871094 35.23775391 10.44871094 35.23775391 9.7109375 35.8828125 C9.07929688 36.43066406 8.44765625 36.97851562 7.796875 37.54296875 C7.17039062 38.08824219 6.54390625 38.63351563 5.8984375 39.1953125 C2.76432615 41.75507312 0.18637771 41.9557588 -3.8515625 41.875 C-5.828125 41.60546875 -5.828125 41.60546875 -8.328125 40.10546875 C-10.0073907 37.30669258 -10.56288119 35.0526255 -10.43359375 31.77734375 C-9.24446282 27.51181604 -5.95260105 24.60241516 -2.828125 21.60546875 C-3.24964844 21.12335938 -3.67117187 20.64125 -4.10546875 20.14453125 C-4.65332031 19.51289062 -5.20117188 18.88125 -5.765625 18.23046875 C-6.31089844 17.60398437 -6.85617188 16.9775 -7.41796875 16.33203125 C-9.97772937 13.1979199 -10.17841505 10.61997146 -10.09765625 6.58203125 C-9.828125 4.60546875 -9.828125 4.60546875 -8.328125 2.10546875 C-5.52934883 0.42620305 -3.27528175 -0.12928744 0 0 Z " fill="#4C241D" transform="translate(120.828125,103.39453125)"/>
<path d="M0 0 C5.02839605 2.82263124 7.59067393 5.80441511 9.7890625 11.1171875 C10.64338812 16.99067615 9.04338419 21.30372133 5.7890625 26.1171875 C0.59171562 30.94329532 -3.10420097 31.64409906 -10.0859375 31.59375 C-15.22147274 30.81058088 -18.0987905 28.14179645 -21.2109375 24.1171875 C-23.37035101 19.79836048 -23.78856152 15.90321509 -23.2109375 11.1171875 C-21.09053447 6.07176421 -18.14040676 2.15519541 -13.16015625 -0.25390625 C-8.59804654 -1.72584946 -4.47459958 -1.78667757 0 0 Z " fill="#EAE7D8" transform="translate(281.2109375,305.8828125)"/>
<path d="M0 0 C1.04056801 -0.00006042 1.04056801 -0.00006042 2.10215759 -0.00012207 C3.56209421 0.00521782 5.02203157 0.02273556 6.48168945 0.05175781 C8.71199585 0.09369645 10.93928669 0.09281687 13.16992188 0.0859375 C23.85494609 0.16473883 23.85494609 0.16473883 27.04467773 1.88085938 C29.21400926 4.19217752 29.51042953 6.48870633 29.76171875 9.58984375 C29.5995683 12.56067163 28.50965956 14.32369734 26.65234375 16.59375 C22.16429901 18.83777237 16.09339753 17.90363449 11.10424805 17.94384766 C9.59985874 17.96039188 8.09554755 17.98766251 6.59155273 18.02587891 C4.41739334 18.08081208 2.24507353 18.1025437 0.0703125 18.1171875 C-1.88225464 18.1469165 -1.88225464 18.1469165 -3.87426758 18.17724609 C-8.2324137 17.44511921 -9.67765057 16.04927318 -12.34765625 12.59375 C-12.97265625 9.09375 -12.97265625 9.09375 -12.34765625 5.59375 C-8.58427976 0.74142844 -6.04776795 -0.0332648 0 0 Z " fill="#4C231C" transform="translate(425.34765625,80.40625)"/>
<path d="M0 0 C2.19335938 1.58398438 2.19335938 1.58398438 4 4 C4.39842915 6.6326394 4.56215695 8.84012168 4.53125 11.46875 C4.5350769 12.186073 4.53890381 12.903396 4.54284668 13.64245605 C4.54556227 15.15536914 4.53822555 16.66832945 4.52148438 18.18115234 C4.50006551 20.49292976 4.52129351 22.80160013 4.546875 25.11328125 C4.54423166 26.58594434 4.53910653 28.0586055 4.53125 29.53125 C4.53934692 30.21989136 4.54744385 30.90853271 4.55578613 31.61804199 C4.49136902 34.92595319 4.19225334 36.73840939 2.21289062 39.43164062 C-0.44988752 41.31885232 -2.67346619 41.51977918 -5.90234375 41.62890625 C-9.26485581 40.6207788 -10.78562532 38.67031497 -13 36 C-13.63110352 32.66601562 -13.63110352 32.66601562 -13.62890625 28.90625 C-13.63131821 28.23710571 -13.63373016 27.56796143 -13.63621521 26.87854004 C-13.63523979 25.46991015 -13.62191848 24.06124049 -13.59692383 22.65283203 C-13.56258798 20.50550193 -13.57627926 18.36228751 -13.59570312 16.21484375 C-13.58880411 14.84112845 -13.57913119 13.46742369 -13.56640625 12.09375 C-13.55009155 10.23266602 -13.55009155 10.23266602 -13.53344727 8.33398438 C-12.91055961 4.44100781 -11.74091198 2.77966071 -9 0 C-5.81452856 -1.59273572 -3.39809153 -0.76164121 0 0 Z " fill="#4B231C" transform="translate(467,98)"/>
<path d="M0 0 C3.9375 0.5625 3.9375 0.5625 6.15039062 2.13085938 C8.53279295 5.37248876 8.5143029 8.15698705 8.46875 12.03125 C8.4725769 12.748573 8.47640381 13.465896 8.48034668 14.20495605 C8.48306227 15.71786914 8.47572555 17.23082945 8.45898438 18.74365234 C8.43756551 21.05542976 8.45879351 23.36410013 8.484375 25.67578125 C8.48173166 27.14844434 8.47660653 28.6211055 8.46875 30.09375 C8.47684692 30.78239136 8.48494385 31.47103271 8.49328613 32.18054199 C8.42858358 35.50311116 8.14587086 37.28698493 6.11914062 39.96679688 C3.0144597 42.23763332 0.76186659 42.5625 -3.0625 42.5625 C-5.86439446 40.79608828 -7.57774911 39.53200178 -9.0625 36.5625 C-9.34405398 32.19271088 -9.37614613 27.81928113 -9.41259766 23.44165039 C-9.42914004 21.98575842 -9.45640836 20.5299471 -9.49462891 19.07446289 C-9.54958123 16.96978877 -9.57129616 14.86701493 -9.5859375 12.76171875 C-9.60575684 11.50190186 -9.62557617 10.24208496 -9.64599609 8.9440918 C-8.76411094 3.83321682 -5.49421318 -0.18568911 0 0 Z " fill="#4C231C" transform="translate(463.0625,39.4375)"/>
<path d="M0 0 C0.72015289 -0.0066568 1.44030579 -0.0133136 2.18228149 -0.02017212 C3.70710697 -0.03030337 5.23197683 -0.03498899 6.75683594 -0.03466797 C9.08603435 -0.0390334 11.4133256 -0.07532139 13.7421875 -0.11328125 C15.22395186 -0.11915101 16.70572521 -0.12311934 18.1875 -0.125 C18.88241547 -0.13937103 19.57733093 -0.15374207 20.29330444 -0.16854858 C23.69960445 -0.13649633 25.4369176 0.11117747 28.16235352 2.22607422 C29.94995608 4.63725907 30.29415784 5.86025869 30.2890625 8.8359375 C30.31097656 9.58875 30.33289063 10.3415625 30.35546875 11.1171875 C29.40213242 14.48051072 27.6233073 15.45644422 24.7265625 17.3359375 C21.28491211 17.85351562 21.28491211 17.85351562 17.37890625 17.8671875 C16.68519424 17.8710144 15.99148224 17.87484131 15.27674866 17.87878418 C13.81688985 17.88149506 12.3569818 17.87419152 10.8972168 17.85742188 C8.66670386 17.83596291 6.43939901 17.85726309 4.20898438 17.8828125 C2.78645125 17.88016971 1.36392012 17.87504572 -0.05859375 17.8671875 C-1.34644775 17.86267578 -2.63430176 17.85816406 -3.96118164 17.85351562 C-7.80745503 17.25249111 -8.97181877 16.41454917 -11.2734375 13.3359375 C-12.44083267 9.6780993 -12.62727879 8.07731926 -10.9609375 4.5859375 C-7.59305273 0.09542448 -5.35237957 0.01704309 0 0 Z " fill="#4C231C" transform="translate(482.2734375,80.6640625)"/>
<path d="M0 0 C4.0978357 2.11806428 6.3858792 4.82293512 8.5 8.875 C9.23777538 13.48609613 9.36045304 17.61526765 6.98828125 21.7734375 C4.42960457 25.08276696 2.05584019 27.03432377 -2 28 C-7.24665744 28.47696886 -10.55844889 27.86233294 -15 25 C-18.76274495 21.54234248 -19.81611792 18.3100087 -20.1640625 13.34765625 C-19.80923757 8.2702805 -17.53594417 4.48940041 -13.9375 1 C-9.24740245 -0.59662895 -4.88386877 -0.85939322 0 0 Z " fill="#4B231C" transform="translate(492,206)"/>
<path d="M0 0 C3.45383685 2.35488876 4.9543281 4.07646328 6.75 7.875 C7.55448032 12.92352445 7.32642572 16.70079945 5.0625 21.3125 C2.03115306 24.67156012 0.00860352 26.56855631 -4.58203125 27.19140625 C-8.92021667 27.39303106 -11.71690399 27.12700902 -15.6875 25.25 C-19.65147563 21.57607137 -21.38191549 18.19074481 -21.625 12.8125 C-21.06444638 6.92668704 -18.63588305 3.71264767 -14.25 -0.125 C-9.23972375 -1.79509208 -4.91956683 -1.70292698 0 0 Z " fill="#4B241C" transform="translate(263.25,34.125)"/>
<path d="M0 0 C6.39126109 1.23701828 12.36245903 4.88242606 16.671875 9.80078125 C18.44222073 12.66897125 18.41463549 14.4447326 17.875 17.75 C15.4225326 21.16859092 13.85588125 22.5145885 9.75 23.5 C3.35873891 22.26298172 -2.61245903 18.61757394 -6.921875 13.69921875 C-8.69222073 10.83102875 -8.66463549 9.0552674 -8.125 5.75 C-5.6725326 2.33140908 -4.10588125 0.9854115 0 0 Z " fill="#4D251D" transform="translate(362.125,159.25)"/>
<path d="M0 0 C0.99 0.33 1.98 0.66 3 1 C3.48648649 8.2972973 3.48648649 8.2972973 1.3125 11.4375 C-1.18625279 13.12584648 -3.02247554 13.66916395 -6 14 C-4.45941767 8.98491285 -2.97068161 4.3852919 0 0 Z " fill="#BED5D6" transform="translate(31,229)"/>
</svg>
