<?xml version="1.0" encoding="UTF-8"?>
<svg version="1.1" xmlns="http://www.w3.org/2000/svg" width="512" height="512">
<path d="M0 0 C0.74443359 0.04108887 1.48886719 0.08217773 2.25585938 0.12451172 C21.33164289 1.27184459 43.99489574 3.46966684 61 13 C63.29968563 16.21955988 63.55348638 19.12559532 63 23 C61 25.875 61 25.875 58 28 C52.32756398 28.41709088 47.87409505 27.58452244 42.5 25.75 C1.33211747 12.96474386 -42.50460656 17.31402357 -81 36 C-81.66805664 36.32371582 -82.33611328 36.64743164 -83.02441406 36.98095703 C-95.8581694 43.2951133 -107.31996287 51.15636772 -117.77734375 60.93359375 C-119.77538666 62.7911767 -121.83127197 64.51821251 -123.9375 66.25 C-155.67167201 94.01740051 -167.68532717 135.00707209 -174 175 C-123.015 174.505 -123.015 174.505 -71 174 C-70.01 170.04 -69.02 166.08 -68 162 C-60.90068141 144.72052644 -48.91264623 132.62596856 -32.12109375 124.62890625 C-16.1962848 118.30070706 2.99658051 118.05993371 18.875 124.8125 C20.26441936 125.51380085 21.63960314 126.24393823 23 127 C23.79535156 127.42023438 24.59070313 127.84046875 25.41015625 128.2734375 C41.70935457 137.39292713 51.55863377 151.33985156 57 169 C57.33 170.65 57.66 172.3 58 174 C91.99 174.33 125.98 174.66 161 175 C154.14478994 130.44113464 139.85399149 96.09143963 108.35351562 63.51123047 C105.04974798 59.8225 105.04974798 59.8225 104.8828125 57.0625 C105.52300285 51.61055635 105.52300285 51.61055635 107.5625 49 C111.1791277 47.5162553 114.22755525 47.07246313 118 48 C121.13133889 49.88264547 123.49030378 52.36481897 126 55 C126.845625 55.86109375 127.69125 56.7221875 128.5625 57.609375 C153.33611337 83.64982087 169.71058345 116.66674544 176 152 C176.17877686 153.00401855 176.35755371 154.00803711 176.54174805 155.04248047 C178.08224425 164.60659454 178.35875695 173.96616952 178.3125 183.625 C178.30976578 184.81221146 178.30976578 184.81221146 178.30697632 186.02340698 C178.25969416 198.23498646 177.70654713 210.04963542 175 222 C174.83371094 222.7640918 174.66742188 223.52818359 174.49609375 224.31542969 C163.64021476 272.98595383 133.65699494 315.82378365 91.54199219 342.59082031 C70.92746115 355.20668863 48.7068634 363.58634147 25 368 C23.81277344 368.226875 22.62554687 368.45375 21.40234375 368.6875 C-25.39565521 376.0203747 -75.25840879 364.2095911 -113.50512695 336.40942383 C-119.57560095 331.88196102 -125.36137834 327.11934678 -130.88671875 321.9375 C-133.02755978 319.92728994 -133.02755978 319.92728994 -135.5703125 317.96875 C-139.19428426 315.03228414 -141.99949611 311.55507173 -145 308 C-145.76570313 307.12214844 -146.53140625 306.24429687 -147.3203125 305.33984375 C-163.51614737 286.47855016 -175.42324953 264.66851743 -183 241 C-183.23944336 240.25685547 -183.47888672 239.51371094 -183.72558594 238.74804688 C-185.36622413 233.54624533 -186.76703344 228.3127545 -188 223 C-188.16516113 222.30052246 -188.33032227 221.60104492 -188.50048828 220.88037109 C-197.22972747 181.71163392 -190.40336394 138.67773357 -173 103 C-172.68836914 102.35224609 -172.37673828 101.70449219 -172.05566406 101.03710938 C-151.59157047 58.98285565 -113.64415348 26.90451955 -70 11 C-47.66399858 3.30725114 -23.72390125 -1.34664657 0 0 Z M-42.3125 153.1875 C-51.90177516 164.72613499 -55.25847063 177.2601627 -54 192 C-51.32207625 205.40483423 -44.78284065 216.74275812 -33.58203125 224.72265625 C-21.70404224 232.21775939 -8.88491817 234.89426399 4.9375 231.9375 C17.34364122 228.49403149 27.26682169 221.04783382 34.25 210.3125 C40.77565081 198.65191085 43.00641179 186.36348437 39.8125 173.3125 C35.58077388 159.77097641 28.28990091 150.19497914 16 143 C-4.08803813 133.48916416 -26.67670239 136.80996626 -42.3125 153.1875 Z M-174 192 C-172.57278925 208.98804291 -172.57278925 208.98804291 -169.25 225.375 C-168.85530518 226.88320313 -168.85530518 226.88320313 -168.45263672 228.421875 C-166.25073356 236.58426052 -163.55516931 244.31569429 -160 252 C-159.70367676 252.64340332 -159.40735352 253.28680664 -159.10205078 253.94970703 C-139.47151398 296.11109322 -105.26606367 326.83302551 -61.9921875 343.62109375 C-50.73933586 347.6481006 -38.85080942 350.50342201 -27 352 C-26.17371094 352.11085938 -25.34742188 352.22171875 -24.49609375 352.3359375 C18.18779758 357.15823973 61.77904532 344.29222145 95.44921875 317.875 C100.14973077 314.10364449 104.65259868 310.17437042 109 306 C109.89074219 305.16082031 110.78148437 304.32164062 111.69921875 303.45703125 C142.26786921 273.91159922 157.78259073 233.82632056 161 192 C127.01 192 93.02 192 58 192 C56.68 197.28 55.36 202.56 54 208 C47.93454281 222.35904151 39.51023763 232.97560727 26 241 C25.21109375 241.47050781 24.4221875 241.94101562 23.609375 242.42578125 C9.86952871 249.93837463 -7.38506075 251.30965714 -22.5625 247.75 C-24.38555772 247.20055066 -26.19935857 246.61897049 -28 246 C-28.845625 245.73316406 -29.69125 245.46632813 -30.5625 245.19140625 C-45.99309692 239.76658702 -58.09145285 227.33611741 -65.17480469 212.87011719 C-68.10930348 206.21974418 -69.58061647 199.09691765 -71 192 C-104.99 192 -138.98 192 -174 192 Z " fill="#BBBBBB" transform="translate(281,136)"/>
<path d="M0 0 C6.24444595 5.05197475 10.71992017 12.29743833 12.2421875 20.1875 C13.22353394 29.76161163 12.29181657 38.15950792 6.66015625 46.2109375 C2.5058747 51.05404864 -1.52279641 54.64032911 -7.3125 57.3125 C-8.034375 57.66570312 -8.75625 58.01890625 -9.5 58.3828125 C-16.70076037 60.76306384 -27.28994487 60.64109956 -34.375 57.75 C-42.6755385 53.1670772 -49.58074604 46.15501834 -53.125 37.27734375 C-55.82457354 27.84758339 -54.54188866 18.54994851 -50.05859375 9.890625 C-45.5076084 2.49992399 -39.29567626 -2.31682558 -31.3125 -5.6875 C-20.01351319 -8.3482896 -9.62502431 -6.56917058 0 0 Z M-31.96484375 14.74609375 C-35.88738107 19.30533278 -36.66910174 23.22916568 -36.59375 29.03125 C-36.00733612 33.78771811 -33.17266535 36.53625322 -29.75 39.625 C-25.60685809 42.49332901 -22.26169042 42.64803833 -17.3125 42.3125 C-11.63700447 40.26932161 -8.01376279 36.71502559 -5.3125 31.3125 C-4.50269906 24.79426623 -5.38963787 20.57739392 -9.3125 15.3125 C-16.27236074 9.56304982 -24.81615423 8.54380284 -31.96484375 14.74609375 Z " fill="#BBBBBB" transform="translate(295.3125,294.6875)"/>
<path d="M0 0 C5.84667146 3.88108812 9.47888434 9.00068265 11.01171875 15.8984375 C11.74114704 24.95870471 10.99579625 31.70459885 5.69921875 39.1484375 C-0.27629504 45.26291673 -6.35775215 47.87844389 -14.86328125 48.2734375 C-22.48572421 48.0883706 -28.95481114 44.81541647 -34.48046875 39.63671875 C-39.93392033 33.3497085 -40.70158587 26.47048222 -40.4296875 18.33984375 C-39.52252795 11.26721041 -36.76954626 5.98551228 -31.23828125 1.4609375 C-21.18921266 -5.21951676 -10.60713397 -5.87664397 0 0 Z M-20.36328125 15.4609375 C-22.55822915 18.75335934 -23.05772522 20.94013105 -22.98828125 24.8984375 C-20.89323235 27.65193034 -19.1206743 29.31397657 -16.05078125 30.8984375 C-12.77384237 30.8984375 -10.72094903 29.62120632 -7.98828125 27.8984375 C-5.9860068 25.37383059 -5.9783006 24.13797319 -6.11328125 20.8984375 C-7.14519936 17.36043255 -7.94495704 15.98071196 -10.98828125 13.8984375 C-14.90279581 13.33922113 -17.02650415 13.26568941 -20.36328125 15.4609375 Z " fill="#BBBBBB" transform="translate(39.98828125,212.1015625)"/>
<path d="M0 0 C5.43817169 3.85802369 10.13649861 9.01641488 12.0703125 15.46875 C12.99683545 25.08950574 12.74582225 32.76323934 6.4921875 40.39453125 C1.74748792 45.55599499 -2.42872097 48.15581444 -9.42578125 48.78125 C-18.17002134 49.0585698 -24.37302441 48.72964591 -30.85546875 42.66796875 C-37.40079681 35.68899577 -39.59233939 29.30873457 -39.33984375 19.7578125 C-38.49352039 12.97110521 -35.56869769 7.64911943 -30.5546875 3.03125 C-21.65061541 -3.68485566 -10.1855823 -5.26192443 0 0 Z M-19.9296875 17.46875 C-21.84368686 19.99174916 -21.93369611 21.27633679 -21.8671875 24.46875 C-20.65909286 28.33465284 -19.47940514 29.53955563 -15.9296875 31.46875 C-11.66529977 31.54356382 -9.69250599 31.11714572 -6.4296875 28.34375 C-4.42282683 24.49726705 -4.65792226 22.58328459 -5.9296875 18.46875 C-8.11467506 15.93683501 -8.11467506 15.93683501 -10.9296875 14.46875 C-15.25558804 14.46875 -16.53553737 14.96779727 -19.9296875 17.46875 Z " fill="#BBBBBB" transform="translate(54.9296875,9.53125)"/>
<path d="M0 0 C4.26552771 1.18913093 7.17492859 4.4809927 10.171875 7.60546875 C10.65398437 7.18394531 11.13609375 6.76242188 11.6328125 6.328125 C12.26445312 5.78027344 12.89609375 5.23242188 13.546875 4.66796875 C14.48660156 3.85005859 14.48660156 3.85005859 15.4453125 3.015625 C18.57942385 0.45586438 21.15737229 0.2551787 25.1953125 0.3359375 C27.171875 0.60546875 27.171875 0.60546875 29.671875 2.10546875 C31.3511407 4.90424492 31.90663119 7.158312 31.77734375 10.43359375 C30.58821282 14.69912146 27.29635105 17.60852234 24.171875 20.60546875 C24.80416016 21.32863281 24.80416016 21.32863281 25.44921875 22.06640625 C25.99707031 22.69804688 26.54492188 23.3296875 27.109375 23.98046875 C27.65464844 24.60695312 28.19992188 25.2334375 28.76171875 25.87890625 C31.32147937 29.0130176 31.52216505 31.59096604 31.44140625 35.62890625 C31.171875 37.60546875 31.171875 37.60546875 29.671875 40.10546875 C26.87309883 41.78473445 24.61903175 42.34022494 21.34375 42.2109375 C17.07822229 41.02180657 14.16882141 37.7299448 11.171875 34.60546875 C10.44871094 35.23775391 10.44871094 35.23775391 9.7109375 35.8828125 C9.07929688 36.43066406 8.44765625 36.97851562 7.796875 37.54296875 C7.17039062 38.08824219 6.54390625 38.63351563 5.8984375 39.1953125 C2.76432615 41.75507312 0.18637771 41.9557588 -3.8515625 41.875 C-5.828125 41.60546875 -5.828125 41.60546875 -8.328125 40.10546875 C-10.0073907 37.30669258 -10.56288119 35.0526255 -10.43359375 31.77734375 C-9.24446282 27.51181604 -5.95260105 24.60241516 -2.828125 21.60546875 C-3.24964844 21.12335938 -3.67117187 20.64125 -4.10546875 20.14453125 C-4.65332031 19.51289062 -5.20117188 18.88125 -5.765625 18.23046875 C-6.31089844 17.60398437 -6.85617188 16.9775 -7.41796875 16.33203125 C-9.97772937 13.1979199 -10.17841505 10.61997146 -10.09765625 6.58203125 C-9.828125 4.60546875 -9.828125 4.60546875 -8.328125 2.10546875 C-5.52934883 0.42620305 -3.27528175 -0.12928744 0 0 Z " fill="#BBBBBB" transform="translate(120.828125,103.39453125)"/>
<path d="M0 0 C1.04056801 -0.00006042 1.04056801 -0.00006042 2.10215759 -0.00012207 C3.56209421 0.00521782 5.02203157 0.02273556 6.48168945 0.05175781 C8.71199585 0.09369645 10.93928669 0.09281687 13.16992188 0.0859375 C23.85494609 0.16473883 23.85494609 0.16473883 27.04467773 1.88085938 C29.21400926 4.19217752 29.51042953 6.48870633 29.76171875 9.58984375 C29.5995683 12.56067163 28.50965956 14.32369734 26.65234375 16.59375 C22.16429901 18.83777237 16.09339753 17.90363449 11.10424805 17.94384766 C9.59985874 17.96039188 8.09554755 17.98766251 6.59155273 18.02587891 C4.41739334 18.08081208 2.24507353 18.1025437 0.0703125 18.1171875 C-1.88225464 18.1469165 -1.88225464 18.1469165 -3.87426758 18.17724609 C-8.2324137 17.44511921 -9.67765057 16.04927318 -12.34765625 12.59375 C-12.97265625 9.09375 -12.97265625 9.09375 -12.34765625 5.59375 C-8.58427976 0.74142844 -6.04776795 -0.0332648 0 0 Z " fill="#BBBBBB" transform="translate(425.34765625,80.40625)"/>
<path d="M0 0 C2.19335938 1.58398438 2.19335938 1.58398438 4 4 C4.39842915 6.6326394 4.56215695 8.84012168 4.53125 11.46875 C4.5350769 12.186073 4.53890381 12.903396 4.54284668 13.64245605 C4.54556227 15.15536914 4.53822555 16.66832945 4.52148438 18.18115234 C4.50006551 20.49292976 4.52129351 22.80160013 4.546875 25.11328125 C4.54423166 26.58594434 4.53910653 28.0586055 4.53125 29.53125 C4.53934692 30.21989136 4.54744385 30.90853271 4.55578613 31.61804199 C4.49136902 34.92595319 4.19225334 36.73840939 2.21289062 39.43164062 C-0.44988752 41.31885232 -2.67346619 41.51977918 -5.90234375 41.62890625 C-9.26485581 40.6207788 -10.78562532 38.67031497 -13 36 C-13.63110352 32.66601562 -13.63110352 32.66601562 -13.62890625 28.90625 C-13.63131821 28.23710571 -13.63373016 27.56796143 -13.63621521 26.87854004 C-13.63523979 25.46991015 -13.62191848 24.06124049 -13.59692383 22.65283203 C-13.56258798 20.50550193 -13.57627926 18.36228751 -13.59570312 16.21484375 C-13.58880411 14.84112845 -13.57913119 13.46742369 -13.56640625 12.09375 C-13.55009155 10.23266602 -13.55009155 10.23266602 -13.53344727 8.33398438 C-12.91055961 4.44100781 -11.74091198 2.77966071 -9 0 C-5.81452856 -1.59273572 -3.39809153 -0.76164121 0 0 Z " fill="#BBBBBB" transform="translate(467,98)"/>
<path d="M0 0 C3.9375 0.5625 3.9375 0.5625 6.15039062 2.13085938 C8.53279295 5.37248876 8.5143029 8.15698705 8.46875 12.03125 C8.4725769 12.748573 8.47640381 13.465896 8.48034668 14.20495605 C8.48306227 15.71786914 8.47572555 17.23082945 8.45898438 18.74365234 C8.43756551 21.05542976 8.45879351 23.36410013 8.484375 25.67578125 C8.48173166 27.14844434 8.47660653 28.6211055 8.46875 30.09375 C8.47684692 30.78239136 8.48494385 31.47103271 8.49328613 32.18054199 C8.42858358 35.50311116 8.14587086 37.28698493 6.11914062 39.96679688 C3.0144597 42.23763332 0.76186659 42.5625 -3.0625 42.5625 C-5.86439446 40.79608828 -7.57774911 39.53200178 -9.0625 36.5625 C-9.34405398 32.19271088 -9.37614613 27.81928113 -9.41259766 23.44165039 C-9.42914004 21.98575842 -9.45640836 20.5299471 -9.49462891 19.07446289 C-9.54958123 16.96978877 -9.57129616 14.86701493 -9.5859375 12.76171875 C-9.60575684 11.50190186 -9.62557617 10.24208496 -9.64599609 8.9440918 C-8.76411094 3.83321682 -5.49421318 -0.18568911 0 0 Z " fill="#BBBBBB" transform="translate(463.0625,39.4375)"/>
<path d="M0 0 C0.72015289 -0.0066568 1.44030579 -0.0133136 2.18228149 -0.02017212 C3.70710697 -0.03030337 5.23197683 -0.03498899 6.75683594 -0.03466797 C9.08603435 -0.0390334 11.4133256 -0.07532139 13.7421875 -0.11328125 C15.22395186 -0.11915101 16.70572521 -0.12311934 18.1875 -0.125 C18.88241547 -0.13937103 19.57733093 -0.15374207 20.29330444 -0.16854858 C23.69960445 -0.13649633 25.4369176 0.11117747 28.16235352 2.22607422 C29.94995608 4.63725907 30.29415784 5.86025869 30.2890625 8.8359375 C30.31097656 9.58875 30.33289063 10.3415625 30.35546875 11.1171875 C29.40213242 14.48051072 27.6233073 15.45644422 24.7265625 17.3359375 C21.28491211 17.85351562 21.28491211 17.85351562 17.37890625 17.8671875 C16.68519424 17.8710144 15.99148224 17.87484131 15.27674866 17.87878418 C13.81688985 17.88149506 12.3569818 17.87419152 10.8972168 17.85742188 C8.66670386 17.83596291 6.43939901 17.85726309 4.20898438 17.8828125 C2.78645125 17.88016971 1.36392012 17.87504572 -0.05859375 17.8671875 C-1.34644775 17.86267578 -2.63430176 17.85816406 -3.96118164 17.85351562 C-7.80745503 17.25249111 -8.97181877 16.41454917 -11.2734375 13.3359375 C-12.44083267 9.6780993 -12.62727879 8.07731926 -10.9609375 4.5859375 C-7.59305273 0.09542448 -5.35237957 0.01704309 0 0 Z " fill="#BBBBBB" transform="translate(482.2734375,80.6640625)"/>
<path d="M0 0 C4.0978357 2.11806428 6.3858792 4.82293512 8.5 8.875 C9.23777538 13.48609613 9.36045304 17.61526765 6.98828125 21.7734375 C4.42960457 25.08276696 2.05584019 27.03432377 -2 28 C-7.24665744 28.47696886 -10.55844889 27.86233294 -15 25 C-18.76274495 21.54234248 -19.81611792 18.3100087 -20.1640625 13.34765625 C-19.80923757 8.2702805 -17.53594417 4.48940041 -13.9375 1 C-9.24740245 -0.59662895 -4.88386877 -0.85939322 0 0 Z " fill="#BBBBBB" transform="translate(492,206)"/>
<path d="M0 0 C3.45383685 2.35488876 4.9543281 4.07646328 6.75 7.875 C7.55448032 12.92352445 7.32642572 16.70079945 5.0625 21.3125 C2.03115306 24.67156012 0.00860352 26.56855631 -4.58203125 27.19140625 C-8.92021667 27.39303106 -11.71690399 27.12700902 -15.6875 25.25 C-19.65147563 21.57607137 -21.38191549 18.19074481 -21.625 12.8125 C-21.06444638 6.92668704 -18.63588305 3.71264767 -14.25 -0.125 C-9.23972375 -1.79509208 -4.91956683 -1.70292698 0 0 Z " fill="#BBBBBB" transform="translate(263.25,34.125)"/>
<path d="M0 0 C6.39445269 1.237636 12.35958526 4.88537366 16.67578125 9.80078125 C18.42187028 12.63888687 18.34232686 14.478712 17.875 17.75 C15.94523833 21.22357101 14.54387836 22.47130069 10.875 24 C4.45710507 24.55807782 -2.22241691 19.11920243 -6.953125 15.2578125 C-8.74284868 12.9550347 -8.65506046 10.58338138 -8.53515625 7.7578125 C-7.55895263 2.97906333 -4.48452138 1.07628513 0 0 Z " fill="#BBBBBB" transform="translate(362.125,159.25)"/>
</svg>
