<?xml version="1.0" encoding="UTF-8"?>
<svg version="1.1" xmlns="http://www.w3.org/2000/svg" width="512" height="512">
<path d="M0 0 C0.94488785 -0.00705963 1.8897757 -0.01411926 2.86329651 -0.02139282 C41.91562467 -0.247035 41.91562467 -0.247035 58.76953125 3.203125 C59.7661377 3.39648438 60.76274414 3.58984375 61.78955078 3.7890625 C110.19101182 13.35276024 154.38512896 35.77050265 189.76953125 70.203125 C190.77330811 71.16822998 190.77330811 71.16822998 191.79736328 72.15283203 C200.73444332 80.76720099 209.13659789 89.47627109 216.49560547 99.48486328 C217.79203791 101.23348182 219.12241843 102.95141303 220.4609375 104.66796875 C228.32520366 114.8826848 234.71064045 125.84037758 240.76953125 137.203125 C241.43299561 138.44376709 241.43299561 138.44376709 242.10986328 139.70947266 C253.62475138 161.60914048 261.30553389 185.90530086 265.76953125 210.203125 C265.9303418 211.00911133 266.09115234 211.81509766 266.25683594 212.64550781 C271.65497468 240.45983507 271.45909671 273.46015473 265.76953125 301.203125 C265.46354004 302.74009033 265.46354004 302.74009033 265.15136719 304.30810547 C258.94968972 334.78840236 246.21423897 385.56357726 220.01953125 405.640625 C214.3726839 408.43541354 207.84793458 408.17566953 201.76953125 407.203125 C196.62893031 405.13815942 191.71472909 401.58998246 189.3984375 396.38671875 C186.99940638 388.0571635 187.47911147 382.20250919 191.5859375 374.625 C194.61992998 369.38952593 197.82167558 364.25743178 201.00878906 359.11425781 C216.05256035 334.24155553 223.58547941 304.85959157 226.76953125 276.203125 C185.18953125 276.203125 143.60953125 276.203125 100.76953125 276.203125 C100.10953125 279.503125 99.44953125 282.803125 98.76953125 286.203125 C91.58981436 308.33386282 74.59354429 326.96311869 54.08203125 337.578125 C32.56027135 347.90701303 6.90480348 350.30006155 -15.9609375 342.81640625 C-27.33714654 338.68031019 -37.14940731 333.26421215 -46.23046875 325.203125 C-47.2359375 324.41035156 -47.2359375 324.41035156 -48.26171875 323.6015625 C-61.35162051 313.05691942 -71.99301149 295.76136995 -75.23046875 279.203125 C-75.23046875 278.213125 -75.23046875 277.223125 -75.23046875 276.203125 C-116.81046875 276.203125 -158.39046875 276.203125 -201.23046875 276.203125 C-198.5130313 295.86309443 -198.5130313 295.86309443 -194.04296875 315.015625 C-193.75035156 316.02858643 -193.45773438 317.04154785 -193.15625 318.08520508 C-190.03271292 328.49943562 -185.85005594 338.3755768 -181.23046875 348.203125 C-180.92641113 348.86344727 -180.62235352 349.52376953 -180.30908203 350.20410156 C-167.25405858 378.42916653 -146.57686387 403.99255155 -122.23046875 423.203125 C-121.25464844 423.99589844 -120.27882813 424.78867187 -119.2734375 425.60546875 C-90.92024582 448.18102892 -57.61512221 461.53635041 -22.23046875 468.203125 C-20.98007813 468.43902344 -19.7296875 468.67492187 -18.44140625 468.91796875 C9.9267679 473.55572514 38.9801606 470.90189993 66.76953125 464.203125 C67.9292041 463.92710449 67.9292041 463.92710449 69.11230469 463.64550781 C87.86463642 459.03623409 105.76584282 450.85049628 122.3828125 441.13671875 C128.69637675 437.53208864 134.62877174 437.47637314 141.76953125 438.203125 C147.39608552 440.11740578 151.01711549 443.89981957 153.859375 449.03515625 C156.48449028 455.28811325 156.07145692 460.63389729 153.94921875 466.96484375 C150.15901249 474.15619537 144.90795626 477.2656034 137.89453125 480.953125 C136.43901855 481.7280127 136.43901855 481.7280127 134.95410156 482.51855469 C96.65931508 502.58359399 55.80740884 512.68403826 12.64453125 512.515625 C11.64996918 512.51346985 10.6554071 512.5113147 9.63070679 512.50909424 C-4.84985541 512.45873517 -18.99861125 512.10795856 -33.23046875 509.203125 C-34.75148193 508.90510986 -34.75148193 508.90510986 -36.30322266 508.60107422 C-77.39385539 500.38294767 -114.32830564 482.94180095 -147.23046875 457.203125 C-147.76961914 456.78401855 -148.30876953 456.36491211 -148.86425781 455.93310547 C-165.1043318 443.17008625 -180.17509218 427.97886011 -192.23046875 411.203125 C-193.09422145 410.03324044 -193.95882344 408.8639825 -194.82421875 407.6953125 C-209.96754617 387.0693007 -222.04968525 364.46015373 -230.23046875 340.203125 C-230.64353271 338.98061035 -230.64353271 338.98061035 -231.06494141 337.73339844 C-234.30302381 327.96254823 -236.83532348 318.08093763 -238.98046875 308.015625 C-239.17922607 307.09096436 -239.3779834 306.16630371 -239.58276367 305.21362305 C-242.87545902 289.00701323 -243.60577153 273.0727548 -243.54296875 256.578125 C-243.5408136 255.55988647 -243.53865845 254.54164795 -243.53643799 253.49255371 C-243.48673484 238.8683366 -243.17254863 224.57507862 -240.23046875 210.203125 C-239.94042969 208.70821533 -239.94042969 208.70821533 -239.64453125 207.18310547 C-230.21384757 159.45482289 -208.24432101 115.15908049 -174.23046875 80.203125 C-173.53791992 79.48479492 -172.84537109 78.76646484 -172.13183594 78.02636719 C-162.39274534 67.95866957 -152.64325716 58.35375276 -141.23046875 50.203125 C-140.61139648 49.75565918 -139.99232422 49.30819336 -139.35449219 48.84716797 C-99.20200514 19.97811463 -49.94969891 0.24934766 0 0 Z M-41.23046875 47.203125 C-42.41406982 47.48712158 -42.41406982 47.48712158 -43.62158203 47.77685547 C-56.03645438 50.85653502 -67.62666019 55.89064869 -79.23046875 61.203125 C-79.9565332 61.53183594 -80.68259766 61.86054687 -81.43066406 62.19921875 C-119.76515197 79.73811118 -152.02996689 111.09746682 -173.23046875 147.203125 C-173.80023438 148.10546875 -174.37 149.0078125 -174.95703125 149.9375 C-188.36794925 171.61542225 -195.38550109 196.41104558 -200.23046875 221.203125 C-200.44058594 222.22921875 -200.65070313 223.2553125 -200.8671875 224.3125 C-201.36165113 228.24694176 -201.23046875 232.23773394 -201.23046875 236.203125 C-159.65046875 236.203125 -118.07046875 236.203125 -75.23046875 236.203125 C-73.58046875 231.253125 -71.93046875 226.303125 -70.23046875 221.203125 C-66.45579521 212.13542608 -61.6652624 204.58578244 -55.23046875 197.203125 C-54.77414063 196.60371094 -54.3178125 196.00429687 -53.84765625 195.38671875 C-41.77515666 179.80813395 -20.42353323 169.78807166 -1.23046875 167.203125 C23.46459921 165.07271466 47.44581664 168.66473608 67.33203125 184.328125 C68.81830242 185.61161042 70.29831755 186.9024071 71.76953125 188.203125 C72.36636719 188.65816406 72.96320313 189.11320313 73.578125 189.58203125 C82.12470838 196.19428398 88.30424517 205.67066583 93.14453125 215.203125 C93.45382568 215.80624512 93.76312012 216.40936523 94.08178711 217.03076172 C97.11541286 223.30899071 98.65726906 229.33827289 100.76953125 236.203125 C142.34953125 236.203125 183.92953125 236.203125 226.76953125 236.203125 C226.82843583 228.6754557 226.82843583 228.6754557 225.88671875 221.5234375 C225.69223145 220.52183594 225.49774414 219.52023438 225.29736328 218.48828125 C225.08192871 217.44542969 224.86649414 216.40257812 224.64453125 215.328125 C224.42007324 214.23113281 224.19561523 213.13414062 223.96435547 212.00390625 C221.88109018 202.16459418 219.20360684 192.65322382 215.76953125 183.203125 C215.52009766 182.51412109 215.27066406 181.82511719 215.01367188 181.11523438 C207.71886171 161.40612003 197.59146656 142.8379839 184.76953125 126.203125 C183.99996094 125.2028125 183.23039062 124.2025 182.4375 123.171875 C145.36614698 76.68239446 92.77307742 48.08575836 33.76953125 41.203125 C8.57532112 38.55828303 -16.68804081 41.27604701 -41.23046875 47.203125 Z M-8.23046875 211.203125 C-9.08769531 211.63882813 -9.94492188 212.07453125 -10.828125 212.5234375 C-20.6277531 217.93318695 -27.18446411 225.27533481 -32.23046875 235.203125 C-32.64554688 235.98816406 -33.060625 236.77320313 -33.48828125 237.58203125 C-38.28399948 248.29694015 -38.0752563 262.45765024 -34.10546875 273.390625 C-28.3698413 285.9735605 -20.55475716 294.85812785 -8.23046875 301.203125 C-7.05097656 301.82767578 -7.05097656 301.82767578 -5.84765625 302.46484375 C4.87085055 307.25289146 19.02261192 307.04843707 29.95703125 303.078125 C42.53996675 297.34249755 51.4245341 289.52741341 57.76953125 277.203125 C58.39408203 276.02363281 58.39408203 276.02363281 59.03125 274.8203125 C63.56571022 264.66948576 63.70648616 250.58439538 60.14453125 240.078125 C59.40609209 238.4282557 58.61443373 236.80109274 57.76953125 235.203125 C57.33382812 234.34589844 56.898125 233.48867187 56.44921875 232.60546875 C51.0394693 222.80584065 43.69732144 216.24912964 33.76953125 211.203125 C32.98449219 210.78804687 32.19945312 210.37296875 31.390625 209.9453125 C19.57133566 204.65530193 3.16823957 205.17622175 -8.23046875 211.203125 Z " fill="#FFFFFF" transform="translate(243.23046875,-0.203125)"/>
</svg>
